<?xml version="1.0" encoding="utf-8"?>
<!-- Generator: Adobe Illustrator 16.0.0, SVG Export Plug-In . SVG Version: 6.00 Build 0)  -->
<!DOCTYPE svg PUBLIC "-//W3C//DTD SVG 1.1//EN" "http://www.w3.org/Graphics/SVG/1.1/DTD/svg11.dtd">
<svg version="1.1" id="Layer_1" xmlns="http://www.w3.org/2000/svg" xmlns:xlink="http://www.w3.org/1999/xlink" x="0px" y="0px"
	 width="1649.5px" height="229.9px" viewBox="0 0 1649.5 229.9" enable-background="new 0 0 1649.5 229.9" xml:space="preserve">
<g>
	<g>
		<path fill="#BCBCBB" d="M103.7,58.9l0.1,0.9l-20,2.5c-2.9,0.3-5.4,0.3-7.4,0l-1.9,0.3V62l2.5-0.4c2,0.2,4.6,0.1,7.8-0.3
			c0.2,0,0.4,0,0.5-0.1c6.1-0.6,12-1.4,17.6-2.3C103.2,59,103.4,58.9,103.7,58.9z"/>
		<path fill="#D7D7D7" d="M102.9,59l-0.7-3.1l0.6-0.9l0.9,3.9C103.4,58.9,103.2,59,102.9,59z"/>
		<path fill="#D9D9D8" d="M102.3,55.9c-5.8,0.9-11.4,1.8-16.9,2.6c-1.7,0.3-3.4,0.6-5,0.9l-3.1,1L76,60.7l0.4-0.6l3.4-1l23.2-4
			L102.3,55.9z"/>
		
			<linearGradient id="SVGID_1_" gradientUnits="userSpaceOnUse" x1="376.8408" y1="-72.9512" x2="337.4598" y2="-77.044" gradientTransform="matrix(1 0 0 -1 -268.4395 -15.9551)">
			<stop  offset="0.1098" style="stop-color:#727274"/>
			<stop  offset="0.2706" style="stop-color:#F4F3F8"/>
			<stop  offset="0.4627" style="stop-color:#DFDFE3"/>
			<stop  offset="0.5255" style="stop-color:#B1B5BD"/>
			<stop  offset="0.6627" style="stop-color:#F4F3F8"/>
			<stop  offset="0.8627" style="stop-color:#D9D8DF"/>
			<stop  offset="1" style="stop-color:#C5C5CD"/>
		</linearGradient>
		<path fill="url(#SVGID_1_)" d="M74.5,62l1.3-1.4l1.3-0.3l3.1-1c1.7-0.3,3.4-0.5,5-0.9c5.5-0.9,11.1-1.8,16.9-2.6l0.7,3.1
			c-5.6,0.9-11.5,1.7-17.6,2.3c-0.2,0.1-0.4,0.1-0.5,0.1c-3.3,0.3-5.9,0.4-7.8,0.3L74.5,62z"/>
		
			<linearGradient id="SVGID_2_" gradientUnits="userSpaceOnUse" x1="292.7197" y1="-82.9834" x2="281.1757" y2="-86.0809" gradientTransform="matrix(1 0 0 -1 -268.4395 -15.9551)">
			<stop  offset="0" style="stop-color:#DFDFE3"/>
			<stop  offset="1" style="stop-color:#C5C5CD"/>
		</linearGradient>
		<path fill="url(#SVGID_2_)" d="M29.4,67c-1-0.1-1.1,0-0.4,0.5l0.9,1c-0.1,0-0.4,0-0.6,0c-0.4,0.1-2.4,0.8-6.1,2.1
			c-3.8,1.3-7.5,1.2-11.1-0.4c-1.2-1.8-0.4-3.1,2.5-3.9c3-0.8,7.1-0.8,12.5,0.2C27.8,66.7,28.5,66.9,29.4,67z"/>
		
			<linearGradient id="SVGID_3_" gradientUnits="userSpaceOnUse" x1="305.7275" y1="-79.7051" x2="335.8528" y2="-79.7051" gradientTransform="matrix(1 0 0 -1 -268.4395 -15.9551)">
			<stop  offset="0.2706" style="stop-color:#F4F3F8"/>
			<stop  offset="1" style="stop-color:#C5C5CD"/>
		</linearGradient>
		<path fill="url(#SVGID_3_)" d="M29.4,67l46.9-7l-0.4,0.6L29,67.5C28.3,67.1,28.4,66.9,29.4,67z"/>
		
			<linearGradient id="SVGID_4_" gradientUnits="userSpaceOnUse" x1="321.0742" y1="-81.6182" x2="320.7767" y2="-79.567" gradientTransform="matrix(1 0 0 -1 -268.4395 -15.9551)">
			<stop  offset="0.1098" style="stop-color:#727274"/>
			<stop  offset="0.2706" style="stop-color:#F4F3F8"/>
			<stop  offset="0.4627" style="stop-color:#DFDFE3"/>
			<stop  offset="0.5255" style="stop-color:#B1B5BD"/>
			<stop  offset="0.6627" style="stop-color:#F4F3F8"/>
			<stop  offset="0.8627" style="stop-color:#D9D8DF"/>
			<stop  offset="1" style="stop-color:#C5C5CD"/>
		</linearGradient>
		<polygon fill="url(#SVGID_4_)" points="29,67.5 75.8,60.6 74.5,62 30,68.6 30,68.5 30,68.5 29.9,68.5 		"/>
		<path fill="#FFFFFF" d="M30,68.6c-0.1,0-0.2,0-0.3,0.1c-0.3,0.2-2.7,0.9-7,2.3c-4.4,1.3-7.9,1-10.7-0.8c3.6,1.6,7.3,1.7,11.1,0.4
			c3.7-1.3,5.7-2,6.1-2.1c0.3,0,0.5,0,0.6,0H30V68.6L30,68.6z"/>
		<path fill="#727274" d="M74.5,62.5L30.2,69c-1.1,0.4-2.2,0.8-3.2,1.3c-6.1,2.1-10.7,2.5-13.9,1.1c-0.5-0.4-0.8-0.8-1.1-1.1
			c2.8,1.8,6.3,2,10.7,0.8c4.4-1.3,6.7-2.1,7-2.3c0.1-0.1,0.2-0.1,0.3-0.1L74.5,62V62.5z"/>
	</g>
	<g>
		<path fill="#7B6045" d="M27.7,66.9c1.4,1.6,0.6,2.9-2.4,3.6c-3,0.8-5.2,1.1-6.7,1.1c-4,0-6.4-0.6-7.1-1.9
			c-0.2-0.4-0.4-0.8-0.4-1.2s0.1-0.6,0.1-0.8c0-0.3,0.1-0.5,0.3-0.7c0-0.1,0-0.2,0-0.3c0-0.3,0.2-0.5,0.6-0.5
			c0.1,0.1,0.1,0.1,0.3,0.2l0,0c0-0.1,0-0.1,0-0.2c0.1-0.3,0.2-0.4,0.5-0.4c0.1,0,0.2,0.1,0.3,0.2c-0.1-0.6,0.1-1,0.4-1.4
			c0.1,0,0.3,0.1,0.4,0.2c0.1-0.2,0.3-0.4,0.6-0.4c0.1,0,0.2,0,0.3-0.1c0.1-0.2,0.3-0.4,0.6-0.4c0.1,0.1,0.2,0.2,0.3,0.3
			c0.1-0.1,0.1-0.1,0.2-0.1c-0.1,0,0-0.1,0-0.1c-0.1-0.1-0.1-0.2,0-0.4c0.1-0.3,0.2-0.5,0.5-0.5c0.1,0.1,0.2,0.1,0.2,0.1
			c0.1,0,0.2-0.1,0.3-0.1s0.1-0.1,0.3-0.1c0.7-0.1,1.2-0.1,1.6,0.1c1-0.1,1.6,0.2,1.7,1C20.7,64,20.8,64,21,64
			c0.3,0.2,0.5,0.4,0.6,0.5l0,0c0-0.2,0.2-0.4,0.5-0.5c0.2,0.1,0.4,0.2,0.6,0.3c0.5,0.1,0.9,0.3,1.1,0.5c0-0.2,0-0.3,0-0.4
			s0.1-0.2,0.3-0.2c0.4,0.2,0.6,0.3,0.9,0.5h0.1c0.2,0.2,0.4,0.4,0.5,0.6C26.4,65.7,27.2,66.2,27.7,66.9z"/>
	</g>
</g>
<g>
	<g>
		<path fill="#BCBCBB" d="M213.7,58.9l0.1,0.9l-20,2.5c-2.9,0.3-5.4,0.3-7.4,0l-1.9,0.3V62l2.5-0.4c2,0.2,4.6,0.1,7.8-0.3
			c0.2,0,0.4,0,0.5-0.1c6.1-0.6,12-1.4,17.6-2.3C213.2,59,213.4,58.9,213.7,58.9z"/>
		<path fill="#D7D7D7" d="M212.9,59l-0.7-3.1l0.6-0.9l0.9,3.9C213.4,58.9,213.2,59,212.9,59z"/>
		<path fill="#D9D9D8" d="M185.8,60.6l0.4-0.6l3.4-1l23.2-4l-0.6,0.9c-5.8,0.9-11.4,1.8-16.9,2.6c-1.7,0.3-3.4,0.6-5,0.9l-3.1,1
			L185.8,60.6z"/>
		
			<linearGradient id="SVGID_5_" gradientUnits="userSpaceOnUse" x1="469.4102" y1="-107.9414" x2="430.0291" y2="-112.0342" gradientTransform="matrix(1 0 0 -1 -251.0098 -50.9453)">
			<stop  offset="0.1098" style="stop-color:#727274"/>
			<stop  offset="0.2706" style="stop-color:#F4F3F8"/>
			<stop  offset="0.4627" style="stop-color:#DFDFE3"/>
			<stop  offset="0.5255" style="stop-color:#B1B5BD"/>
			<stop  offset="0.6627" style="stop-color:#F4F3F8"/>
			<stop  offset="0.8627" style="stop-color:#D9D8DF"/>
			<stop  offset="1" style="stop-color:#C5C5CD"/>
		</linearGradient>
		<path fill="url(#SVGID_5_)" d="M184.5,62l1.3-1.4l1.3-0.3l3.1-1c1.7-0.3,3.4-0.5,5-0.9c5.5-0.9,11.1-1.8,16.9-2.6l0.7,3.1
			c-5.6,0.9-11.5,1.7-17.6,2.3c-0.2,0.1-0.4,0.1-0.5,0.1c-3.3,0.3-5.9,0.4-7.8,0.3L184.5,62z"/>
		
			<linearGradient id="SVGID_6_" gradientUnits="userSpaceOnUse" x1="385.2891" y1="-117.9731" x2="373.7451" y2="-121.0706" gradientTransform="matrix(1 0 0 -1 -251.0098 -50.9453)">
			<stop  offset="0" style="stop-color:#DFDFE3"/>
			<stop  offset="1" style="stop-color:#C5C5CD"/>
		</linearGradient>
		<path fill="url(#SVGID_6_)" d="M139,67.5l0.9,1c-0.1,0-0.4,0-0.6,0c-0.4,0.1-2.4,0.8-6.1,2.1c-3.8,1.3-7.5,1.2-11.1-0.4
			c-1.2-1.8-0.4-3.1,2.5-3.9c3-0.8,7.1-0.8,12.5,0.2c0.8,0.1,1.5,0.3,2.4,0.5C138.4,66.9,138.3,67.1,139,67.5z"/>
		
			<linearGradient id="SVGID_7_" gradientUnits="userSpaceOnUse" x1="398.2979" y1="-114.6953" x2="428.4225" y2="-114.6953" gradientTransform="matrix(1 0 0 -1 -251.0098 -50.9453)">
			<stop  offset="0.2706" style="stop-color:#F4F3F8"/>
			<stop  offset="1" style="stop-color:#C5C5CD"/>
		</linearGradient>
		<path fill="url(#SVGID_7_)" d="M139.4,67l46.9-7l-0.4,0.6L139,67.5C138.3,67.1,138.4,66.9,139.4,67z"/>
		<path fill="#FFFFFF" d="M140,68.6c-0.1,0-0.2,0-0.3,0.1c-0.3,0.2-2.7,0.9-7,2.3c-4.4,1.3-7.9,1-10.7-0.8c3.6,1.6,7.3,1.7,11.1,0.4
			c3.7-1.3,5.7-2,6.1-2.1c0.3,0,0.5,0,0.6,0h0.2V68.6L140,68.6z"/>
		
			<linearGradient id="SVGID_8_" gradientUnits="userSpaceOnUse" x1="413.6436" y1="-116.6084" x2="413.3462" y2="-114.558" gradientTransform="matrix(1 0 0 -1 -251.0098 -50.9453)">
			<stop  offset="0.1098" style="stop-color:#727274"/>
			<stop  offset="0.2706" style="stop-color:#F4F3F8"/>
			<stop  offset="0.4627" style="stop-color:#DFDFE3"/>
			<stop  offset="0.5255" style="stop-color:#B1B5BD"/>
			<stop  offset="0.6627" style="stop-color:#F4F3F8"/>
			<stop  offset="0.8627" style="stop-color:#D9D8DF"/>
			<stop  offset="1" style="stop-color:#C5C5CD"/>
		</linearGradient>
		<polygon fill="url(#SVGID_8_)" points="139,67.5 185.8,60.6 184.5,62 140,68.6 140,68.5 140,68.5 139.9,68.5 		"/>
		<path fill="#727274" d="M184.5,62.5L140.2,69c-1.1,0.4-2.2,0.8-3.2,1.3c-6.1,2.1-10.7,2.5-13.9,1.1c-0.5-0.4-0.8-0.8-1.1-1.1
			c2.8,1.8,6.3,2,10.7,0.8c4.4-1.3,6.7-2.1,7-2.3c0.1-0.1,0.2-0.1,0.3-0.1l44.5-6.7V62.5z"/>
	</g>
	<g>
		<path fill="#7B6045" d="M137.7,66.9c1.4,1.6,0.6,2.9-2.4,3.6c-3,0.8-5.2,1.1-6.7,1.1c-4,0-6.4-0.6-7.1-1.9
			c-0.2-0.4-0.4-0.8-0.4-1.2s0.1-0.6,0.1-0.8c0-0.3,0.1-0.5,0.3-0.7c0-0.1,0-0.2,0-0.3c0-0.3,0.2-0.5,0.6-0.5
			c0.1,0.1,0.1,0.1,0.3,0.2l0,0c0-0.1,0-0.1,0-0.2c0.1-0.3,0.2-0.4,0.5-0.4c0.1,0,0.2,0.1,0.3,0.2c-0.1-0.6,0.1-1,0.4-1.4
			c0.1,0,0.3,0.1,0.4,0.2c0.1-0.2,0.3-0.4,0.6-0.4c0.1,0,0.2,0,0.3-0.1c0.1-0.2,0.3-0.4,0.6-0.4c0.1,0.1,0.2,0.2,0.3,0.3
			c0.1-0.1,0.1-0.1,0.2-0.1c-0.1,0,0-0.1,0-0.1c-0.1-0.1-0.1-0.2,0-0.4c0.1-0.3,0.2-0.5,0.5-0.5c0.1,0.1,0.2,0.1,0.2,0.1
			c0.1,0,0.2-0.1,0.3-0.1s0.1-0.1,0.3-0.1c0.7-0.1,1.2-0.1,1.6,0.1c1-0.1,1.6,0.2,1.7,1c0.1-0.1,0.2-0.1,0.4-0.1
			c0.3,0.2,0.5,0.4,0.6,0.5l0,0c0-0.2,0.2-0.4,0.5-0.5c0.2,0.1,0.4,0.2,0.6,0.3c0.5,0.1,0.9,0.3,1.1,0.5c0-0.2,0-0.3,0-0.4
			s0.1-0.2,0.3-0.2c0.4,0.2,0.6,0.3,0.9,0.5h0.1c0.2,0.2,0.4,0.4,0.5,0.6C136.4,65.7,137.2,66.2,137.7,66.9z"/>
	</g>
	<g>
		<path fill="#7B6045" d="M122.4,75.9c-1.2-2.5-1-4.8,0.8-7l0,0c0.9,2.3,0.7,4.6-0.6,6.9C122.5,75.9,122.5,75.9,122.4,75.9z"/>
	</g>
</g>
<g>
	<g>
		<path fill="#BCBCBB" d="M323,54.4l0.2,0.9l-19.9,3.4c-2.9,0.4-5.4,0.5-7.4,0.4l-1.9,0.3V59l2.5-0.5c2,0.1,4.5-0.1,7.7-0.7
			c0.2,0,0.3,0,0.5,0c6.1-0.9,11.9-2,17.5-3.2C322.5,54.5,322.8,54.5,323,54.4z"/>
		<path fill="#D7D7D7" d="M322.3,54.5l-0.8-3.1l0.6-0.9l1,3.8C322.8,54.5,322.5,54.5,322.3,54.5z"/>
		
			<linearGradient id="SVGID_9_" gradientUnits="userSpaceOnUse" x1="578.668" y1="-103.46" x2="539.5612" y2="-109.4503" gradientTransform="matrix(1 0 0 -1 -251.0098 -50.9453)">
			<stop  offset="0.1098" style="stop-color:#727274"/>
			<stop  offset="0.2706" style="stop-color:#F4F3F8"/>
			<stop  offset="0.4627" style="stop-color:#DFDFE3"/>
			<stop  offset="0.5255" style="stop-color:#B1B5BD"/>
			<stop  offset="0.6627" style="stop-color:#F4F3F8"/>
			<stop  offset="0.8627" style="stop-color:#D9D8DF"/>
			<stop  offset="1" style="stop-color:#C5C5CD"/>
		</linearGradient>
		<path fill="url(#SVGID_9_)" d="M294,59l1.3-1.5l1.4-0.3l3-1c1.6-0.4,3.3-0.8,4.9-1.1c5.4-1.1,11-2.3,16.8-3.5l0.8,3.1
			c-5.6,1.2-11.4,2.3-17.5,3.2c-0.2,0-0.4,0-0.5,0c-3.2,0.5-5.7,0.8-7.7,0.7L294,59z"/>
		<path fill="#D9D9D8" d="M295.3,57.5l0.4-0.7l3.4-1.1l23-5.2l-0.6,0.9c-5.9,1.2-11.5,2.4-16.9,3.6c-1.6,0.4-3.3,0.8-4.9,1.1l-3,1
			L295.3,57.5z"/>
		
			<linearGradient id="SVGID_10_" gradientUnits="userSpaceOnUse" x1="495.1621" y1="-117.3232" x2="483.7605" y2="-120.9704" gradientTransform="matrix(1 0 0 -1 -251.0098 -50.9453)">
			<stop  offset="0" style="stop-color:#DFDFE3"/>
			<stop  offset="1" style="stop-color:#C5C5CD"/>
		</linearGradient>
		<path fill="url(#SVGID_10_)" d="M249.8,67.5c-0.1,0-0.3,0.1-0.6,0.2c-0.4,0.1-2.4,0.8-6,2.3c-3.7,1.5-7.4,1.5-11.1,0.1
			c-1.3-1.7-0.5-3,2.4-4s7-1.1,12.4-0.4c0.8,0.1,1.6,0.3,2.4,0.4c-1-0.1-1.1,0.1-0.4,0.6L249.8,67.5z"/>
		
			<linearGradient id="SVGID_11_" gradientUnits="userSpaceOnUse" x1="523.4141" y1="-114.5991" x2="523.0135" y2="-112.5492" gradientTransform="matrix(1 0 0 -1 -251.0098 -50.9453)">
			<stop  offset="0.1098" style="stop-color:#727274"/>
			<stop  offset="0.2706" style="stop-color:#F4F3F8"/>
			<stop  offset="0.4627" style="stop-color:#DFDFE3"/>
			<stop  offset="0.5255" style="stop-color:#B1B5BD"/>
			<stop  offset="0.6627" style="stop-color:#F4F3F8"/>
			<stop  offset="0.8627" style="stop-color:#D9D8DF"/>
			<stop  offset="1" style="stop-color:#C5C5CD"/>
		</linearGradient>
		<polygon fill="url(#SVGID_11_)" points="248.9,66.7 295.3,57.5 294,59 250,67.7 249.9,67.6 249.9,67.5 249.8,67.5 		"/>
		
			<linearGradient id="SVGID_12_" gradientUnits="userSpaceOnUse" x1="507.9053" y1="-113.3975" x2="538.0044" y2="-111.9275" gradientTransform="matrix(1 0 0 -1 -251.0098 -50.9453)">
			<stop  offset="0.2706" style="stop-color:#F4F3F8"/>
			<stop  offset="1" style="stop-color:#C5C5CD"/>
		</linearGradient>
		<path fill="url(#SVGID_12_)" d="M249.2,66.1l46.5-9.4l-0.4,0.7l-46.4,9.3C248.1,66.3,248.2,66.1,249.2,66.1z"/>
		<path fill="#FFFFFF" d="M250,67.7c-0.1,0-0.3,0-0.4,0c-0.3,0.3-2.6,1.1-6.9,2.6s-7.9,1.4-10.7-0.2c3.7,1.4,7.4,1.3,11.1-0.1
			c3.7-1.5,5.7-2.2,6-2.3c0.3-0.1,0.5-0.2,0.6-0.2h0.1v0.1L250,67.7z"/>
		<path fill="#727274" d="M294,59.4L250.1,68c-1.1,0.5-2.1,1-3.1,1.4c-6,2.4-10.6,3.1-13.9,1.9c-0.5-0.4-0.9-0.7-1.1-1.1
			c2.8,1.6,6.4,1.7,10.7,0.2s6.6-2.3,6.9-2.6c0.1,0,0.2,0,0.4,0l44-8.8V59.4z"/>
	</g>
	<g>
		<path fill="#7B6045" d="M248,67.5c-0.4,0.4-1.1,0.9-2,1.3c-2.8,1.3-4.9,2-6.4,2.3c-4,0.6-6.5,0.3-7.5-0.9c-0.2-0.3-0.4-0.6-0.4-1
			c-0.1-0.3-0.1-0.6,0-0.8c-0.1-0.2,0-0.5,0.2-0.8c-0.1,0-0.1-0.1-0.1-0.3c0-0.3,0.2-0.5,0.5-0.5c0.1,0,0.2,0,0.3,0h0.1l0,0
			c0-0.3,0.1-0.5,0.4-0.5c0.1,0,0.3,0,0.4,0.1c-0.2-0.5-0.1-1,0.1-1.5c0.2,0,0.3,0.1,0.5,0.1c0-0.2,0.2-0.4,0.5-0.5
			c0.1,0,0.2,0,0.3-0.1c0-0.2,0.1-0.4,0.4-0.5c0.1,0.1,0.1,0.1,0.3,0.2c0-0.1,0.1-0.1,0.2-0.1c0.1-0.1,0.2-0.2,0.2-0.2
			c-0.1,0-0.2-0.2-0.2-0.4c0.1-0.3,0.3-0.5,0.5-0.6c0.1,0,0.1,0,0.2,0c0,0,0.1-0.1,0.3-0.1c0.1-0.1,0.2-0.1,0.3-0.1
			c0.6-0.3,1.1-0.3,1.5-0.2c1-0.3,1.6,0,1.9,0.8c0.1-0.1,0.2-0.2,0.4-0.2c0.3,0.1,0.5,0.3,0.6,0.4c0-0.2,0.2-0.4,0.5-0.6
			c0.2,0.1,0.4,0.2,0.6,0.3c0.5,0.1,0.9,0.2,1.2,0.4c-0.1-0.2-0.1-0.3-0.1-0.5s0.1-0.2,0.2-0.2c0.2,0,0.3,0.1,0.5,0.2
			c0.5,0.3,1,0.8,1.5,1.3C246.6,65.3,247.4,66.4,248,67.5z"/>
	</g>
	<g>
		<path fill="#7B6045" d="M232.1,69.3c0.8,2,0.7,4.1-0.2,6.2c0.4,2.6,0.2,5.2-0.4,7.9c0,0.1-0.1,0.1-0.2,0.1
			c-1.4-3.2-1.6-6.4-0.6-9.5C230.5,72.4,230.9,70.8,232.1,69.3L232.1,69.3z M230.9,84.4c0.8,1.3,0.9,2.7,0.1,4.2
			c0,0.1,0,0.1-0.1,0.2c-1.2-1.2-1.3-2.6-0.4-4.3C230.6,84.4,230.7,84.4,230.9,84.4z M230.9,91.9c1,4.2,1,8.3-0.1,12.4
			c0,0.1-0.1,0.2-0.2,0.2c-1-4.1-1-8.3,0.1-12.5C230.6,91.9,230.7,91.9,230.9,91.9z M231.2,130.8c0,0.1,0,0.1-0.1,0.2
			c-1.4-4.4-1.5-9.3-0.3-14.7c0-0.1,0.1-0.1,0.3,0C232.1,121,232.1,125.9,231.2,130.8z M229.7,189c0,0-0.1,0-0.2,0
			c-1-8.1-1-16.3,0-24.5h0.2C230.8,172.7,230.8,180.8,229.7,189z"/>
	</g>
</g>
<g>
	<g>
		<path fill="#D7D7D7" d="M431,46.4l1.2,3.7c-0.3,0-0.5,0.1-0.8,0.2l-1-3L431,46.4z"/>
		<path fill="#D9D9D8" d="M404.7,54.5l0.3-0.7l3.2-1.3l22.8-6.1l-0.5,0.9c-5.7,1.4-11.2,2.9-16.6,4.3c-1.7,0.4-3.3,0.9-4.9,1.4
			L404.7,54.5z"/>
		
			<linearGradient id="SVGID_13_" gradientUnits="userSpaceOnUse" x1="687.6875" y1="-98.7202" x2="648.9116" y2="-106.6412" gradientTransform="matrix(1 0 0 -1 -251.0098 -50.9453)">
			<stop  offset="0.1098" style="stop-color:#727274"/>
			<stop  offset="0.2706" style="stop-color:#F4F3F8"/>
			<stop  offset="0.4627" style="stop-color:#DFDFE3"/>
			<stop  offset="0.5255" style="stop-color:#B1B5BD"/>
			<stop  offset="0.6627" style="stop-color:#F4F3F8"/>
			<stop  offset="0.8627" style="stop-color:#D9D8DF"/>
			<stop  offset="1" style="stop-color:#C5C5CD"/>
		</linearGradient>
		<path fill="url(#SVGID_13_)" d="M403.5,56l1.2-1.5l4.3-1.6c1.6-0.5,3.3-0.9,4.9-1.4c5.4-1.4,10.9-2.8,16.6-4.3l1,3
			c-5.5,1.5-11.3,2.8-17.3,4c-0.2,0-0.4,0.1-0.6,0.1c-3.2,0.7-5.8,1-7.8,1L403.5,56z"/>
		<path fill="#BCBCBB" d="M403.5,56.4V56l2.4-0.6c1.9,0,4.5-0.4,7.8-1c0.2,0,0.4,0,0.6-0.1c6-1.2,11.7-2.6,17.3-4
			c0.3-0.1,0.5-0.2,0.8-0.2l0.2,0.9l-19.7,4.4c-2.9,0.5-5.4,0.8-7.5,0.7L403.5,56.4z"/>
		
			<linearGradient id="SVGID_14_" gradientUnits="userSpaceOnUse" x1="604.8945" y1="-116.7725" x2="593.7205" y2="-121.002" gradientTransform="matrix(1 0 0 -1 -251.0098 -50.9453)">
			<stop  offset="0" style="stop-color:#DFDFE3"/>
			<stop  offset="1" style="stop-color:#C5C5CD"/>
		</linearGradient>
		<path fill="url(#SVGID_14_)" d="M359.6,66.9c-0.1,0-0.4,0-0.6,0c-0.4,0.1-2.3,1-5.9,2.6c-3.6,1.7-7.3,1.9-11.1,0.7
			c-1.4-1.6-0.6-3,2.1-4.1c2.9-1.1,7-1.5,12.4-1c0.8,0.1,1.6,0.1,2.4,0.2c-1,0-1.1,0.2-0.3,0.6L359.6,66.9z"/>
		
			<linearGradient id="SVGID_15_" gradientUnits="userSpaceOnUse" x1="633.04" y1="-112.7383" x2="632.5416" y2="-110.7129" gradientTransform="matrix(1 0 0 -1 -251.0098 -50.9453)">
			<stop  offset="0.1098" style="stop-color:#727274"/>
			<stop  offset="0.2706" style="stop-color:#F4F3F8"/>
			<stop  offset="0.4627" style="stop-color:#DFDFE3"/>
			<stop  offset="0.5255" style="stop-color:#B1B5BD"/>
			<stop  offset="0.6627" style="stop-color:#F4F3F8"/>
			<stop  offset="0.8627" style="stop-color:#D9D8DF"/>
			<stop  offset="1" style="stop-color:#C5C5CD"/>
		</linearGradient>
		<polygon fill="url(#SVGID_15_)" points="358.6,66 404.7,54.5 403.5,56 359.8,66.9 359.6,66.9 359.6,66.8 359.6,66.9 		"/>
		<path fill="#FFFFFF" d="M359.8,66.9c-0.1,0-0.3,0.1-0.3,0.1c-0.3,0.2-2.5,1.2-6.7,2.9c-4.2,1.7-7.8,1.8-10.8,0.3
			c3.8,1.2,7.5,1,11.1-0.7c3.5-1.6,5.5-2.5,5.9-2.6c0.3,0,0.5,0,0.6,0v-0.1v0.1H359.8z"/>
		<path fill="#727274" d="M403.5,56v0.4L360,67.3c-1.1,0.5-2.1,1-3,1.5c-5.9,2.7-10.5,3.5-13.8,2.5c-0.5-0.3-0.9-0.7-1.1-1
			c2.9,1.5,6.5,1.4,10.8-0.3c4.2-1.7,6.4-2.6,6.7-2.9c0.1-0.1,0.2-0.1,0.3-0.1L403.5,56z"/>
		
			<linearGradient id="SVGID_16_" gradientUnits="userSpaceOnUse" x1="617.5313" y1="-112.3271" x2="647.4838" y2="-109.4217" gradientTransform="matrix(1 0 0 -1 -251.0098 -50.9453)">
			<stop  offset="0.2706" style="stop-color:#F4F3F8"/>
			<stop  offset="1" style="stop-color:#C5C5CD"/>
		</linearGradient>
		<path fill="url(#SVGID_16_)" d="M359,65.4l46-11.6l-0.3,0.7L358.6,66C357.9,65.5,358,65.3,359,65.4z"/>
	</g>
	<g>
		<path fill="#7B6045" d="M353.6,63.8c0-0.1,0-0.2,0-0.2c0.3,0.2,0.6,0.4,0.9,0.8c1.2,1.2,2.1,2.6,2.6,4.2c-0.4,0.1-0.8,0.3-1.2,0.5
			c-2.8,1.2-5,1.8-6.5,2c-3.9,0.5-6.3,0.1-7.3-1.1c-0.3-0.4-0.4-0.8-0.5-1.1c-0.1-0.4-0.1-0.6,0-0.8c0-0.3,0.1-0.5,0.2-0.7
			c0-0.1-0.1-0.2-0.1-0.3c0-0.3,0.1-0.6,0.5-0.7c0.1,0.1,0.3,0.2,0.4,0.3l0,0l0,0c0-0.3,0.2-0.5,0.4-0.6c0.2,0,0.3,0.1,0.4,0.1
			c-0.1-0.5,0-0.9,0.3-1.3c0.1,0,0.2,0.1,0.2,0.3c0.1-0.3,0.4-0.5,0.8-0.6c0.1,0,0.1-0.1,0.1-0.2c0.1-0.2,0.3-0.3,0.5-0.4
			c0.1,0,0.3,0.1,0.4,0.3c0-0.1,0.1-0.2,0.2-0.3c0,0,0.1-0.1,0.2-0.1c-0.2,0-0.3-0.1-0.2-0.3c0.1-0.3,0.2-0.4,0.5-0.5
			c0.1,0,0.2,0,0.3,0c-0.1,0,0-0.1,0.2-0.1c0.1-0.1,0.2-0.1,0.3-0.1c0.7-0.1,1.1-0.1,1.4,0c1-0.3,1.6,0,1.8,0.7
			c0.2,0,0.3-0.1,0.4-0.1c0.4,0.1,0.6,0.3,0.6,0.4c0.1-0.2,0.3-0.4,0.5-0.6c0.3,0.1,0.5,0.3,0.7,0.4
			C353.2,63.4,353.5,63.5,353.6,63.8z"/>
	</g>
	<g>
		<path fill="#7B6045" d="M343,87c0.9,4.9,1,9.8,0.2,14.8c0.1-0.2,0.2-0.3,0.3-0.5h0.1c1.9,2.5,2.1,5.1,0.5,7.8c0,0.1,0,0.1-0.1,0.1
			c-1.7-2-2-4.3-0.9-6.8c-1.3-4.9-1.4-10-0.3-15.4C342.7,86.9,342.8,86.9,343,87z M341.9,80.5c-0.6-3.6-0.3-7.2,0.9-10.9
			c0,0,0.1-0.1,0.2-0.1c1.2,3.8,0.9,7.4-0.9,10.9C342.1,80.4,342,80.5,341.9,80.5z M343.2,108.5c0.9,6.3,1,12.7,0.4,19.1
			c0,0,0,0.1-0.1,0.1c-1.7-6-1.9-12.4-0.4-19.2H343.2z M343.5,142.7c1,7.7,0.9,15.3-0.4,22.9c0,0-0.1,0-0.2,0
			c-0.9-7.6-0.8-15.2,0.3-22.8L343.5,142.7z M343.1,189.3c0,0.1-0.1,0.2-0.2,0.2c-1.2-3-1.2-5.9-0.1-8.6h0.2
			C344.2,183.7,344.3,186.5,343.1,189.3z M340.5,218.5c0.1-2.6,0.3-5.2,0.6-7.9l0.2-0.1c0.4,2.7,0.6,5.3,0.8,8H340.5z"/>
	</g>
</g>
<g>
	<g>
		<path fill="#D7D7D7" d="M539.7,41.5l1.4,3.7c-0.2,0.1-0.5,0.2-0.7,0.3l-1.1-3L539.7,41.5z"/>
		<path fill="#D9D9D8" d="M514.1,50.5l3.2-1.5l22.4-7.5l-0.5,1c-5.6,1.7-11,3.4-16.3,5.1c-1.6,0.6-3.2,1.1-4.9,1.6l-3,1.4l-1.3,0.4
			L514.1,50.5z"/>
		<path fill="#BCBCBB" d="M512.8,53.1v-0.4l2.3-0.8c1.9-0.1,4.5-0.6,7.7-1.5c0.2,0,0.3,0,0.5-0.1c6-1.4,11.7-3,17.1-4.8
			c0.2-0.1,0.5-0.2,0.7-0.3l0.3,0.9L522,51.5c-2.9,0.7-5.3,1-7.4,1L512.8,53.1z"/>
		
			<linearGradient id="SVGID_17_" gradientUnits="userSpaceOnUse" x1="796.5498" y1="-93.6753" x2="758.2093" y2="-103.5657" gradientTransform="matrix(1 0 0 -1 -251.0098 -50.9453)">
			<stop  offset="0.1098" style="stop-color:#727274"/>
			<stop  offset="0.2706" style="stop-color:#F4F3F8"/>
			<stop  offset="0.4627" style="stop-color:#DFDFE3"/>
			<stop  offset="0.5255" style="stop-color:#B1B5BD"/>
			<stop  offset="0.6627" style="stop-color:#F4F3F8"/>
			<stop  offset="0.8627" style="stop-color:#D9D8DF"/>
			<stop  offset="1" style="stop-color:#C5C5CD"/>
		</linearGradient>
		<path fill="url(#SVGID_17_)" d="M539.2,42.5l1.1,3c-5.4,1.8-11.1,3.4-17.1,4.8c-0.2,0.1-0.3,0.1-0.5,0.1c-3.2,0.8-5.8,1.3-7.7,1.5
			l-2.3,0.8l1-1.6l1.3-0.4l3-1.4c1.6-0.5,3.3-1.1,4.9-1.6C528.2,46,533.6,44.3,539.2,42.5z"/>
		
			<linearGradient id="SVGID_18_" gradientUnits="userSpaceOnUse" x1="714.751" y1="-115.9434" x2="703.8151" y2="-120.7258" gradientTransform="matrix(1 0 0 -1 -251.0098 -50.9453)">
			<stop  offset="0" style="stop-color:#DFDFE3"/>
			<stop  offset="1" style="stop-color:#C5C5CD"/>
		</linearGradient>
		<path fill="url(#SVGID_18_)" d="M468.5,64.9l1,0.8c-0.1,0-0.4,0-0.7,0.1c-0.3,0.2-2.2,1.1-5.7,2.9c-3.5,1.8-7.2,2.3-11,1.3
			c-1.5-1.6-0.9-3,1.9-4.2c2.8-1.3,7-1.9,12.4-1.8c0.8,0.1,1.6,0.1,2.4,0.1C467.8,64.3,467.7,64.5,468.5,64.9z"/>
		
			<linearGradient id="SVGID_19_" gradientUnits="userSpaceOnUse" x1="727.1602" y1="-110.9165" x2="756.957" y2="-106.4495" gradientTransform="matrix(1 0 0 -1 -251.0098 -50.9453)">
			<stop  offset="0.2706" style="stop-color:#F4F3F8"/>
			<stop  offset="1" style="stop-color:#C5C5CD"/>
		</linearGradient>
		<path fill="url(#SVGID_19_)" d="M513.8,51.1l-45.3,13.8c-0.8-0.4-0.8-0.6,0.3-0.6l45.3-13.8L513.8,51.1z"/>
		
			<linearGradient id="SVGID_20_" gradientUnits="userSpaceOnUse" x1="742.6357" y1="-110.5225" x2="742.0319" y2="-108.5237" gradientTransform="matrix(1 0 0 -1 -251.0098 -50.9453)">
			<stop  offset="0.1098" style="stop-color:#727274"/>
			<stop  offset="0.2706" style="stop-color:#F4F3F8"/>
			<stop  offset="0.4627" style="stop-color:#DFDFE3"/>
			<stop  offset="0.5255" style="stop-color:#B1B5BD"/>
			<stop  offset="0.6627" style="stop-color:#F4F3F8"/>
			<stop  offset="0.8627" style="stop-color:#D9D8DF"/>
			<stop  offset="1" style="stop-color:#C5C5CD"/>
		</linearGradient>
		<polygon fill="url(#SVGID_20_)" points="468.5,64.9 513.8,51.1 512.8,52.7 469.8,65.9 469.6,65.8 469.6,65.7 469.5,65.7 		"/>
		<path fill="#FFFFFF" d="M469.8,65.9c-0.1,0-0.3,0-0.4,0c-0.3,0.3-2.5,1.4-6.6,3.3c-4.1,1.9-7.6,2.2-10.6,0.9c3.8,1,7.5,0.5,11-1.3
			c3.5-1.8,5.4-2.8,5.7-2.9c0.3-0.1,0.6-0.1,0.7-0.1h0.1l0,0L469.8,65.9z"/>
		<path fill="#727274" d="M512.8,52.7v0.4l-42.8,13c-1.1,0.6-2.1,1.2-3,1.7c-5.7,3-10.2,4.1-13.6,3.2c-0.5-0.3-0.9-0.6-1.2-0.9
			c3,1.3,6.5,1,10.6-0.9c4.2-1.9,6.4-3,6.6-3.3c0.1,0,0.2,0,0.4,0L512.8,52.7z"/>
	</g>
	<g>
		<path fill="#7B6045" d="M465.8,68.2c-0.2,0.1-0.3,0.1-0.5,0.2c-2.9,1.3-5,2-6.4,2.2c-4,0.7-6.4,0.4-7.3-0.7
			c-0.3-0.5-0.5-0.9-0.6-1.2c-0.1-0.3-0.1-0.5,0-0.7c0-0.3,0.1-0.5,0.2-0.8c0,0-0.1-0.1-0.1-0.4c0-0.3,0.1-0.5,0.5-0.6
			c0.1,0.1,0.2,0.1,0.4,0.1l0,0c0,0,0,0,0-0.1c0-0.3,0.1-0.4,0.3-0.4s0.3,0,0.4,0.1c-0.1-0.5-0.1-1,0.1-1.5c0.1,0,0.3,0,0.4,0.1
			c0-0.2,0.1-0.3,0.4-0.4c0.1,0,0.2-0.1,0.3-0.2c0-0.3,0.2-0.4,0.5-0.5c0.1,0.1,0.3,0.2,0.4,0.3c0-0.1,0-0.1,0.1-0.1
			c0.1-0.1,0.2-0.1,0.1-0.2c0,0,0-0.1,0-0.3c0-0.4,0.1-0.6,0.4-0.8l0,0h0.1c0.1,0.1,0.2,0.1,0.2,0.1c0.1,0,0.1-0.1,0.1-0.2h0.1
			c0.1-0.1,0.1-0.1,0.2-0.1c0.8-0.1,1.3-0.2,1.6-0.3c0.7-0.2,1.2-0.1,1.6,0.3c0.1,0.1,0.2,0.3,0.3,0.5c0.1-0.1,0.3-0.2,0.4-0.3
			c0.4,0.2,0.6,0.3,0.6,0.5l0.1,0.1c0-0.1,0-0.3,0.1-0.4c1,0.4,2,1,2.8,1.8C464.6,65.6,465.3,66.8,465.8,68.2z"/>
	</g>
	<g>
		<path fill="#7B6045" d="M451.4,68.8c0.9,1.3,0.9,2.6,0.1,4c0,0.1-0.1,0.1-0.3,0.2c-1.1-1.2-1.1-2.5-0.2-4
			C451.2,68.8,451.3,68.8,451.4,68.8z M449.9,71c0.9,1.5,0.9,2.9,0,4.3c0,0,0.1-0.1,0.2-0.1c1.3,1.5,1.3,3,0,4.5
			c0,0.1-0.1,0.1-0.3,0.1c-0.9-1.4-1-2.8-0.1-4.3c0,0-0.1,0-0.2,0c-1-1.6-0.9-3.2,0.2-4.6h0.2V71z M452.4,80.7
			c0,0.1-0.1,0.2-0.3,0.2c-1.1-1.2-1.1-2.5-0.2-4c0.1-0.1,0.2-0.2,0.3-0.1C453.1,78.1,453.1,79.4,452.4,80.7z M451.1,78.9
			c0.8,6.5,1,13.1,0.6,19.9c0.9,1.7,0.8,3.4-0.2,5.1c0,0.1-0.1,0.1-0.2,0.1c0,0.7-0.1,1.3-0.2,2c0,0.1-0.1,0.1-0.2,0.1
			c-0.1-0.9-0.2-1.7-0.3-2.6c0,0.2-0.1,0.4-0.2,0.5c0,0.1,0,0.2-0.1,0.2c-1.4-1.7-1.5-3.6-0.5-5.9c0-0.1,0.1-0.1,0.1-0.2
			c0.1,0.1,0.3,0.3,0.3,0.4c-0.1-1.9-0.2-3.8-0.2-5.8c-0.1,0.4-0.3,0.9-0.6,1.4c0,0.1-0.1,0.2-0.2,0.2c-1.1-1.9-1-3.8,0.2-5.5l0,0
			c0.3,0.4,0.5,0.9,0.6,1.3c0-0.4,0-0.9,0-1.3c0,0.1-0.1,0.1-0.1,0.3c0,0.1-0.1,0.1-0.2,0.1c-1.1-3-1.1-5.9,0.2-8.6h0.1
			c0.2,0.5,0.3,1,0.4,1.5c0.1-1.1,0.2-2.2,0.4-3.3C450.9,78.9,451,78.9,451.1,78.9z M451.7,106.3c0.9,1.8,0.9,3.6,0,5.5
			c0,0.1-0.1,0.2-0.2,0.2c-0.1-0.2-0.2-0.3-0.3-0.5c0.1,0.7-0.1,1.5-0.5,2.4c0,0.1,0,0.2-0.1,0.2c-0.2-0.1-0.4-0.2-0.5-0.3
			c0.2,1,0,2-0.5,3c0,0.1-0.1,0.1-0.2,0.2c-1.1-1.5-1.1-3.1-0.2-4.8l0.1-0.1c0-0.7,0.4-1.5,1.1-2.4c0,0,0.1,0,0.2,0
			c0,0,0.1,0.1,0.1,0.2c-0.2-1.2,0-2.4,0.6-3.5C451.5,106.2,451.6,106.2,451.7,106.3z M449.9,119.8c0.1-1,0.3-1.9,0.5-2.9
			c0.1-0.1,0.2-0.1,0.3-0.1c0.5,2.7,0.8,5.5,0.8,8.4c0.4,1.3,0.3,2.6-0.3,4c-0.1,1.2-0.3,2.3-0.4,3.5c0,0-0.1,0.1-0.2,0.1
			c-0.3-1.4-0.5-2.7-0.6-4.1c-0.2-0.8-0.4-1.6-0.5-2.3c-1.1-1-1.1-2.2-0.1-3.8h0.1C449.5,121.8,449.6,120.8,449.9,119.8
			C449.9,119.9,449.9,119.8,449.9,119.8z M449.9,132.8c0.9,1.5,0.9,3-0.1,4.5c0,0.1-0.1,0.1-0.2,0.1c-1-1.6-0.9-3.2,0.2-4.6H449.9z
			 M449.9,142.5c0-0.1,0.1-0.2,0.3-0.1c0.2,0.7,0.3,1.4,0.4,2.1c0.2,0.7,0.3,1.3,0.2,2c0.2,2.4,0.1,4.8-0.5,7.3c0,0.1,0,0.2-0.1,0.2
			c0.6,1.3,0.4,2.6-0.4,3.9c0,0.1-0.1,0.1-0.2,0.1c-1-1.6-0.9-3.2,0.2-4.6h0.1v0.1c-0.8-2.2-1-4.5-0.8-6.9c-0.1-0.6,0-1.3,0.3-2
			C449.5,143.8,449.6,143.1,449.9,142.5z M449.5,160.7L449.5,160.7c0.4,1.2,0.6,2.5,0.8,3.8c0-0.1,0.1-0.2,0.1-0.3
			c0.1-0.1,0.2-0.2,0.3-0.1c0.9,2.3,0.9,4.7,0.1,7.1c0,0.1-0.1,0.1-0.2,0.2c-0.1-0.3-0.3-0.6-0.4-0.9c-0.1,0.7-0.2,1.5-0.4,2.3
			c0,0.1-0.1,0.1-0.2,0.2c-1.4-3.7-1.5-7.5-0.4-11.3c-0.2,0.5-0.4,1.1-0.7,1.6c0,0.1-0.1,0.2-0.2,0.2c-1.1-2.4-0.9-4.8,0.5-7l0,0
			C449.4,157.8,449.6,159.2,449.5,160.7z M449.5,174.5L449.5,174.5c1,2,1,4.1,0,6.1c0,0.1-0.1,0.2-0.2,0.2c-0.1-0.1-0.2-0.3-0.2-0.4
			c0.3,3.8,0.1,7.7-0.5,11.6c0,0.1,0,0.1-0.1,0.2c-1.4-5.2-1.5-10.6-0.3-16.3c0-0.1,0.1-0.1,0.3-0.1c0,0.3,0.1,0.5,0.1,0.8
			C448.8,175.8,449.1,175.1,449.5,174.5z M449.7,186c-0.5-1.2-0.4-2.5,0.3-4c0.1-0.1,0.2-0.2,0.3-0.2c0.9,1.6,1,3.3,0.2,5
			c0.1,4.9,0.1,9.9,0,14.9c0.3,0.8,0.3,1.7,0,2.6c0,0.7,0,1.5,0,2.3c0.2,0.8,0.1,1.6-0.1,2.4c-0.2,3.4-0.4,6.8-0.6,10.1
			c0,0-0.1,0.1-0.2,0.1c0-0.2,0-0.4,0-0.6c-0.1,0.4-0.3,0.8-0.5,1.3c0,0.1-0.1,0.2-0.2,0.2c-1-2-1.1-4-0.3-6.1c0,0,0.1-0.1,0.3-0.1
			c0.1,0.2,0.3,0.5,0.4,0.7c-0.4-5.3-0.5-10.5-0.3-15.8c-0.5-2-0.4-4,0.3-5.9C449.2,190.5,449.4,188.2,449.7,186z M449.5,221.4h-1
			c0.1-0.3,0.2-0.6,0.3-0.9c0.1-0.1,0.2-0.2,0.3-0.2C449.2,220.7,449.4,221.1,449.5,221.4z"/>
	</g>
</g>
<g>
	<g>
		<path fill="#D7D7D7" d="M647.8,38.4l0.4-0.9l1.6,3.5c-0.3,0.1-0.5,0.2-0.8,0.3L647.8,38.4z"/>
		<path fill="#D9D9D8" d="M622.8,48.1l0.2-0.6l3.2-1.7l22-8.3l-0.4,0.9c-5.5,2-10.9,4-16,5.9c-1.6,0.6-3.2,1.2-4.8,1.8L622.8,48.1z"
			/>
		
			<linearGradient id="SVGID_21_" gradientUnits="userSpaceOnUse" x1="905.0039" y1="-89.1875" x2="867.2303" y2="-100.9668" gradientTransform="matrix(1 0 0 -1 -251.0098 -50.9453)">
			<stop  offset="0.1098" style="stop-color:#727274"/>
			<stop  offset="0.2706" style="stop-color:#F4F3F8"/>
			<stop  offset="0.4627" style="stop-color:#DFDFE3"/>
			<stop  offset="0.5255" style="stop-color:#B1B5BD"/>
			<stop  offset="0.6627" style="stop-color:#F4F3F8"/>
			<stop  offset="0.8627" style="stop-color:#D9D8DF"/>
			<stop  offset="1" style="stop-color:#C5C5CD"/>
		</linearGradient>
		<path fill="url(#SVGID_21_)" d="M621.8,49.8l1-1.7l4.1-2.1c1.6-0.6,3.2-1.2,4.8-1.8c5.2-1.9,10.5-3.9,16-5.9l1.3,2.9
			c-5.3,2-10.9,3.9-16.8,5.7c-0.1,0.1-0.3,0.1-0.5,0.2c-3.2,1-5.7,1.6-7.7,1.9L621.8,49.8z"/>
		<path fill="#BCBCBB" d="M621.8,50.2v-0.4L624,49c1.9-0.3,4.5-0.9,7.7-1.8c0.2-0.1,0.3-0.1,0.5-0.2c5.9-1.8,11.5-3.7,16.8-5.7
			c0.2-0.1,0.5-0.3,0.8-0.3l0.3,0.8L631,48.1c-2.9,0.9-5.3,1.4-7.4,1.5L621.8,50.2z"/>
		
			<linearGradient id="SVGID_22_" gradientUnits="userSpaceOnUse" x1="836.6904" y1="-109.7578" x2="866.2072" y2="-103.817" gradientTransform="matrix(1 0 0 -1 -251.0098 -50.9453)">
			<stop  offset="0.2706" style="stop-color:#F4F3F8"/>
			<stop  offset="1" style="stop-color:#C5C5CD"/>
		</linearGradient>
		<path fill="url(#SVGID_22_)" d="M622.8,48.1l-44.5,16c-0.8-0.3-0.8-0.5,0.2-0.5L623,47.5L622.8,48.1z"/>
		<path fill="#727274" d="M621.8,49.8v0.4l-42.2,15c-1,0.7-1.9,1.3-2.9,1.9c-5.6,3.3-10,4.5-13.4,3.9c-0.5-0.3-0.9-0.6-1.2-0.9
			c3,1.1,6.5,0.7,10.6-1.4c4-2.1,6.2-3.4,6.4-3.7c0-0.1,0.1-0.1,0.2-0.1l0.1-0.1L621.8,49.8z"/>
		
			<linearGradient id="SVGID_23_" gradientUnits="userSpaceOnUse" x1="852.1074" y1="-108.5864" x2="851.4131" y2="-106.6335" gradientTransform="matrix(1 0 0 -1 -251.0098 -50.9453)">
			<stop  offset="0.1098" style="stop-color:#727274"/>
			<stop  offset="0.2706" style="stop-color:#F4F3F8"/>
			<stop  offset="0.4627" style="stop-color:#DFDFE3"/>
			<stop  offset="0.5255" style="stop-color:#B1B5BD"/>
			<stop  offset="0.6627" style="stop-color:#F4F3F8"/>
			<stop  offset="0.8627" style="stop-color:#D9D8DF"/>
			<stop  offset="1" style="stop-color:#C5C5CD"/>
		</linearGradient>
		<polygon fill="url(#SVGID_23_)" points="578.3,64.1 622.8,48.1 621.8,49.8 579.5,64.9 579.4,65 579.3,64.9 579.2,64.9 		"/>
		
			<linearGradient id="SVGID_24_" gradientUnits="userSpaceOnUse" x1="824.5459" y1="-115.4058" x2="813.8266" y2="-120.6923" gradientTransform="matrix(1 0 0 -1 -251.0098 -50.9453)">
			<stop  offset="0" style="stop-color:#DFDFE3"/>
			<stop  offset="1" style="stop-color:#C5C5CD"/>
		</linearGradient>
		<path fill="url(#SVGID_24_)" d="M579.2,64.9c-0.1,0-0.3,0.1-0.6,0.2c-0.3,0.1-2.2,1.2-5.6,3.2c-3.5,2-7.1,2.6-10.9,1.8
			c-1.6-1.5-1-3,1.6-4.4c2.7-1.4,6.8-2.1,12.3-2.3c0.7,0,1.5,0,2.4,0.1c-1,0-1,0.2-0.2,0.5L579.2,64.9z"/>
		<path fill="#FFFFFF" d="M579.4,65c-0.1,0-0.2,0-0.2,0.1c-0.2,0.3-2.4,1.5-6.4,3.7c-4.1,2.1-7.6,2.5-10.6,1.4
			c3.8,0.8,7.4,0.2,10.9-1.8c3.4-2,5.3-3.1,5.6-3.2c0.2-0.1,0.4-0.2,0.6-0.2l0,0H579.4z"/>
	</g>
	<g>
		<path fill="#7B6045" d="M574.5,68.4c-2.1,1.2-3.8,1.9-4.9,2.3c-3.9,1-6.3,1-7.3,0c-0.4-0.3-0.6-0.6-0.6-1
			c-0.1-0.4-0.2-0.6-0.2-0.8c-0.1-0.3-0.1-0.6,0.1-0.9c0-0.1,0-0.2,0-0.3c0-0.3,0.1-0.5,0.4-0.6c0.1,0.1,0.3,0.1,0.3,0.1h0.1
			c0,0,0,0,0-0.1c0-0.3,0.1-0.4,0.4-0.5c0.1,0,0.3,0.1,0.4,0.2c-0.3-0.6-0.4-1.1-0.1-1.6c0.2,0,0.3,0,0.4,0.1c0-0.2,0.2-0.4,0.4-0.6
			c0.1,0,0.2-0.1,0.4-0.1c-0.1-0.3,0-0.5,0.3-0.5c0.2,0,0.3,0.1,0.4,0.2c0-0.1,0.1-0.2,0.2-0.3v-0.1c-0.1-0.1-0.1-0.2,0-0.4
			c0-0.1,0-0.3,0-0.4c0.5-0.1,1-0.1,1.5-0.3c2.4-0.4,4.3,0.2,5.9,1.7C573.5,65.7,574.2,66.9,574.5,68.4z"/>
	</g>
	<g>
		<path fill="#7B6045" d="M561.3,73.8c-1-1.6-1-3.2,0.2-4.6l0,0c0.9,1.5,0.9,3,0,4.5C561.5,73.8,561.4,73.8,561.3,73.8z M561.8,89
			c0.9,1.3,0.9,2.7,0.2,4.2c0,0.1-0.1,0.1-0.2,0.2v-0.1c-0.1,3.1-0.4,6.1-0.6,9.3c0,0-0.1,0.1-0.2,0.1c-1.2-9.1-1.3-18.4-0.1-27.9
			c0.1-0.1,0.1-0.1,0.3-0.1C561.5,79.4,561.8,84.2,561.8,89z M560.5,103.6c0.5,0.9,0.7,1.8,0.6,2.7c0,0,0,0,0.1-0.1h0.1
			c1,2.3,1,4.6-0.1,6.9c0,0.1-0.1,0.1-0.2,0.1c-0.7-1.6-0.9-3.2-0.5-4.8h-0.1c-1.1-1.5-1.1-3-0.2-4.8
			C560.3,103.7,560.4,103.6,560.5,103.6z M560.5,115.6c1.1,2.5,1.1,5.1,0,7.9c0,0.1-0.1,0.1-0.2,0.2c-1.1-2.5-1.2-5.2-0.1-8
			C560.3,115.6,560.4,115.6,560.5,115.6z M561.3,132.3c0.9,2.4,1,4.9,0.1,7.4c0,0.1,0,0.1-0.1,0.1c-1.3-2.2-1.4-4.7-0.3-7.4
			C561.1,132.3,561.2,132.3,561.3,132.3z M560.1,131c0,0.1-0.1,0.1-0.2,0.1c-1.1-1.9-1-3.7,0.2-5.4h0.1
			C561.2,127.5,561.2,129.2,560.1,131z M561,142.4c0.9,1.7,1,3.4,0.1,5.1c0.3,1.9,0.1,3.9-0.6,5.8c0,0.1-0.1,0.1-0.2,0.1
			c-1-2.5-1.1-4.9-0.1-7.2C559.9,144.9,560.1,143.6,561,142.4L561,142.4z M561.1,159.2c0-0.6,0.3-1.2,0.6-1.8
			c0.1-0.1,0.1-0.2,0.2-0.2c1.2,1.1,1.4,2.5,0.5,4.3c0,0.1,0,0.1-0.1,0.2c-0.4-0.4-0.8-0.8-1-1.2c0.1,0.6,0.1,1.2,0.1,1.8
			c0.3,0.9,0.3,1.8-0.1,2.7c-0.1,0.9-0.3,1.9-0.5,2.8c0,0.1-0.1,0.2-0.2,0.2c0.6,6.3,0.5,12.7-0.5,19c0,0-0.1,0-0.2,0
			c-1-7.2-1-14.4,0-21.6c-0.4-2.2-0.3-4.5,0.3-6.8c-0.7-1.4-0.6-2.8,0.5-4.1l0,0c0.8,1.3,0.9,2.6,0.3,3.9
			C561.1,158.7,561.1,159,561.1,159.2z M561.5,195.2c0.8,2.4,0.7,4.7-0.4,6.9c0.7,2,0.5,4.1-0.5,6.3c0.7,3,0.6,5.9-0.5,8.7H560
			c-1-3.2-1-6.4,0-9.6c-0.4-1.2-0.5-2.4-0.2-3.7l0,0c-0.3-1-0.4-2-0.4-2.9c-0.7-3.4-0.6-6.9,0.4-10.6c0-0.1,0.1-0.2,0.3-0.1
			c0.5,2,0.8,4.1,0.8,6.2C561,196,561.2,195.6,561.5,195.2L561.5,195.2z"/>
	</g>
</g>
<g>
	<g>
		<path fill="#D7D7D7" d="M756.2,34.3l0.4-1l1.8,3.5c-0.3,0.1-0.5,0.3-0.8,0.3L756.2,34.3z"/>
		<path fill="#D9D9D8" d="M731.8,45.1l0.2-0.6l3-1.8l21.5-9.5l-0.4,1c-5.4,2.3-10.7,4.5-15.8,6.6c-1.6,0.7-3.1,1.4-4.6,2.1l-2.7,1.7
			L731.8,45.1z"/>
		<path fill="#BCBCBB" d="M730.8,47.3l-0.1-0.4L733,46c2-0.3,4.5-1,7.5-2.2c0.2,0,0.4-0.1,0.5-0.2c5.7-2.1,11.2-4.3,16.5-6.6
			c0.3-0.1,0.5-0.2,0.8-0.3l0.3,0.8l-18.8,7.3c-2.8,0.9-5.3,1.6-7.3,1.9L730.8,47.3z"/>
		
			<linearGradient id="SVGID_25_" gradientUnits="userSpaceOnUse" x1="1013.4902" y1="-84.8125" x2="976.3168" y2="-98.3879" gradientTransform="matrix(1 0 0 -1 -251.0098 -50.9453)">
			<stop  offset="0.1098" style="stop-color:#727274"/>
			<stop  offset="0.2706" style="stop-color:#F4F3F8"/>
			<stop  offset="0.4627" style="stop-color:#DFDFE3"/>
			<stop  offset="0.5255" style="stop-color:#B1B5BD"/>
			<stop  offset="0.6627" style="stop-color:#F4F3F8"/>
			<stop  offset="0.8627" style="stop-color:#D9D8DF"/>
			<stop  offset="1" style="stop-color:#C5C5CD"/>
		</linearGradient>
		<path fill="url(#SVGID_25_)" d="M730.8,46.9l1-1.8l1.2-0.5l2.8-1.7c1.5-0.7,3-1.4,4.6-2.1c5.1-2.2,10.3-4.4,15.8-6.6l1.4,2.8
			c-5.2,2.2-10.7,4.4-16.5,6.6c-0.2,0.1-0.4,0.2-0.5,0.2c-3.1,1.2-5.6,1.9-7.6,2.2L730.8,46.9z"/>
		<path fill="#727274" d="M730.8,47.3l-41.3,17.2c-1,0.7-2,1.3-2.8,1.9c-5.4,3.5-9.8,5-13.2,4.4c-0.5-0.2-1-0.5-1.4-0.8
			c3.1,1.1,6.6,0.5,10.6-1.9c3.9-2.3,6-3.6,6.3-3.9c0-0.1,0.1-0.1,0.3-0.1l41.5-17.2V47.3z"/>
		
			<linearGradient id="SVGID_26_" gradientUnits="userSpaceOnUse" x1="946.1133" y1="-108.5684" x2="975.3198" y2="-101.2667" gradientTransform="matrix(1 0 0 -1 -251.0098 -50.9453)">
			<stop  offset="0.2706" style="stop-color:#F4F3F8"/>
			<stop  offset="1" style="stop-color:#C5C5CD"/>
		</linearGradient>
		<path fill="url(#SVGID_26_)" d="M688.2,62.7L732,44.5l-0.2,0.6L688,63.3C687.2,63,687.2,62.8,688.2,62.7z"/>
		
			<linearGradient id="SVGID_27_" gradientUnits="userSpaceOnUse" x1="961.5176" y1="-106.6392" x2="960.7352" y2="-104.7168" gradientTransform="matrix(1 0 0 -1 -251.0098 -50.9453)">
			<stop  offset="0.1098" style="stop-color:#727274"/>
			<stop  offset="0.2706" style="stop-color:#F4F3F8"/>
			<stop  offset="0.4627" style="stop-color:#DFDFE3"/>
			<stop  offset="0.5255" style="stop-color:#B1B5BD"/>
			<stop  offset="0.6627" style="stop-color:#F4F3F8"/>
			<stop  offset="0.8627" style="stop-color:#D9D8DF"/>
			<stop  offset="1" style="stop-color:#C5C5CD"/>
		</linearGradient>
		<polygon fill="url(#SVGID_27_)" points="689.3,64.1 689.1,64.1 689.1,64 689,64 688,63.3 731.8,45.1 730.8,46.9 		"/>
		<path fill="#FFFFFF" d="M672.1,70c3.9,0.6,7.6-0.1,10.9-2.3c3.3-2.2,5.1-3.3,5.4-3.5c0.3-0.1,0.5-0.2,0.6-0.2h0.1v0.1h0.1
			c-0.1,0-0.2,0.1-0.3,0.1c-0.3,0.3-2.4,1.6-6.3,3.9C678.8,70.5,675.3,71.1,672.1,70z"/>
		
			<linearGradient id="SVGID_28_" gradientUnits="userSpaceOnUse" x1="934.2939" y1="-114.9346" x2="923.895" y2="-120.7814" gradientTransform="matrix(1 0 0 -1 -251.0098 -50.9453)">
			<stop  offset="0" style="stop-color:#DFDFE3"/>
			<stop  offset="1" style="stop-color:#C5C5CD"/>
		</linearGradient>
		<path fill="url(#SVGID_28_)" d="M672.1,70c-1.6-1.4-1.1-2.8,1.6-4.3s6.7-2.5,12.1-2.9c0.8,0,1.6-0.1,2.4-0.1c-1,0.1-1,0.3-0.2,0.6
			l1,0.8c-0.1,0-0.3,0.1-0.6,0.2c-0.3,0.2-2.1,1.3-5.4,3.5C679.7,69.9,676.1,70.6,672.1,70z"/>
	</g>
	<g>
		<path fill="#7B6045" d="M683.1,67.9c-1.8,1-3.2,1.6-4.1,1.9c-3.9,1.1-6.4,1.1-7.5,0c-0.3-0.3-0.5-0.7-0.5-1.1
			c-0.2-0.3-0.2-0.5-0.1-0.6c-0.1-0.3-0.1-0.5,0-0.8c0,0,0-0.1,0-0.3c-0.1-0.3,0-0.5,0.3-0.6c0.2,0,0.3,0,0.3,0.1l0,0v-0.1
			c0-0.3,0.2-0.5,0.4-0.6c0.1,0,0.3,0,0.4,0c-0.2-0.4-0.2-0.7-0.1-1c1.3-0.4,2.7-0.8,4-1c2.1-0.4,3.8-0.1,5.1,1.1
			C682.2,65.6,682.8,66.6,683.1,67.9z"/>
	</g>
	<g>
		<path fill="#7B6045" d="M671.2,67.1c1,2.9,1,5.9,0.1,9c0,0.1-0.1,0.2-0.1,0.2c0.4,1.9,0.3,3.8-0.5,5.7c0.8,1.8,0.9,3.6,0.1,5.5
			c1.5,1.2,1.5,2.6-0.2,4.2c-0.1,0-0.1,0.1-0.2,0.1c-0.9-1.3-1-2.6-0.2-4c-0.9-1.9-0.9-3.8,0.1-5.5c-1.2-2.7-1.1-5.2,0.3-7.6
			c-0.7-2.3-0.6-4.8,0.3-7.4C671,67.2,671.1,67.1,671.2,67.1z M670.5,93.1c0.8,2.1,1,4.3,0.4,6.6c0.9,8.4,0.9,16.9,0,25.5
			c0,0.1-0.1,0.2-0.1,0.2c-1.2-8.1-1.4-16.4-0.5-25c-1.1-2.1-1.2-4.5-0.1-7.1C670.2,93.2,670.3,93.1,670.5,93.1z M668.5,144.9
			c0.9,1.3,0.9,2.6,0.2,3.9c0,0.1-0.1,0.1-0.3,0.2c-1.1-1.2-1.1-2.5-0.2-4C668.3,144.9,668.4,144.9,668.5,144.9z M670.5,145
			c-1-3.6-1-7.2,0-10.9c0,0,0.1-0.1,0.2-0.1C671.8,137.6,671.7,141.3,670.5,145C670.6,145,670.6,145,670.5,145z M670.1,148.7
			c1,13.7,1.1,27.5,0.1,41.4c0,0-0.1,0.1-0.2,0.1c-1.1-13.6-1.2-27.3-0.2-41.3C669.9,148.7,670,148.6,670.1,148.7z M669.9,197.8
			c-1.2-1.7-1.3-3.6-0.3-5.8c0-0.1,0.1-0.2,0.3-0.1C670.8,193.8,670.9,195.7,669.9,197.8C670,197.8,670,197.8,669.9,197.8z
			 M670.9,220.4h-0.5c-1-5.6-1.1-11.1-0.3-16.5c-1.1-1.5-1.1-3-0.2-4.8c0.1-0.1,0.2-0.2,0.3-0.2c0.5,0.9,0.7,1.8,0.7,2.7
			C671.7,207.9,671.7,214.1,670.9,220.4z"/>
	</g>
</g>
<g>
	<g>
		<path fill="#D7D7D7" d="M865.6,32.6l-1.5-2.8l0.3-0.9l1.9,3.4C866.1,32.4,865.9,32.5,865.6,32.6z"/>
		
			<linearGradient id="SVGID_29_" gradientUnits="userSpaceOnUse" x1="1121.3623" y1="-80.0425" x2="1084.9657" y2="-95.497" gradientTransform="matrix(1 0 0 -1 -251.0098 -50.9453)">
			<stop  offset="0.1098" style="stop-color:#727274"/>
			<stop  offset="0.2706" style="stop-color:#F4F3F8"/>
			<stop  offset="0.4627" style="stop-color:#DFDFE3"/>
			<stop  offset="0.5255" style="stop-color:#B1B5BD"/>
			<stop  offset="0.6627" style="stop-color:#F4F3F8"/>
			<stop  offset="0.8627" style="stop-color:#D9D8DF"/>
			<stop  offset="1" style="stop-color:#C5C5CD"/>
		</linearGradient>
		<path fill="url(#SVGID_29_)" d="M840.3,42.1l4-2.5c1.5-0.8,3-1.5,4.5-2.4c5-2.4,10.1-4.9,15.4-7.5l1.5,2.8
			c-5.1,2.6-10.4,5-16.1,7.4c-0.1,0.1-0.3,0.1-0.5,0.1c-3,1.3-5.5,2.2-7.4,2.6l-2.3,1.1L840.3,42.1z"/>
		<path fill="#D9D9D8" d="M840.4,41.4l3-1.9l21-10.6l-0.3,0.9c-5.3,2.6-10.4,5.1-15.4,7.5c-1.5,0.8-3,1.6-4.5,2.4l-4,2.5L840.4,41.4
			z"/>
		<path fill="#BCBCBB" d="M839.5,44.3l-0.1-0.4l2.3-1.1c1.9-0.4,4.4-1.3,7.4-2.6c0.2,0,0.3-0.1,0.5-0.1c5.7-2.4,11-4.8,16.1-7.4
			c0.3-0.1,0.5-0.2,0.8-0.4l0.4,0.8l-18.4,8.2c-2.7,1.2-5.1,1.9-7.1,2.2L839.5,44.3z"/>
		
			<linearGradient id="SVGID_30_" gradientUnits="userSpaceOnUse" x1="1055.4346" y1="-107.3105" x2="1084.1812" y2="-98.4722" gradientTransform="matrix(1 0 0 -1 -251.0098 -50.9453)">
			<stop  offset="0.2706" style="stop-color:#F4F3F8"/>
			<stop  offset="1" style="stop-color:#C5C5CD"/>
		</linearGradient>
		<path fill="url(#SVGID_30_)" d="M797.7,61.9l42.7-20.5l-0.2,0.8l-42.7,20.2C796.6,62.2,796.7,62,797.7,61.9z"/>
		
			<linearGradient id="SVGID_31_" gradientUnits="userSpaceOnUse" x1="-758.5859" y1="-585.3906" x2="-756.5286" y2="-585.3906" gradientTransform="matrix(-0.4375 -0.8992 -0.9042 0.4273 -41.6064 -378.3261)">
			<stop  offset="0.1098" style="stop-color:#727274"/>
			<stop  offset="0.2706" style="stop-color:#F4F3F8"/>
			<stop  offset="0.4627" style="stop-color:#DFDFE3"/>
			<stop  offset="0.5255" style="stop-color:#B1B5BD"/>
			<stop  offset="0.6627" style="stop-color:#F4F3F8"/>
			<stop  offset="0.8627" style="stop-color:#D9D8DF"/>
			<stop  offset="1" style="stop-color:#C5C5CD"/>
		</linearGradient>
		<polygon fill="url(#SVGID_31_)" points="839.4,43.9 798.9,63.2 798.8,63.1 798.8,63 798.6,63.1 797.5,62.4 840.3,42.1 		"/>
		<path fill="#727274" d="M839.5,44.3l-40.4,19.1c-0.9,0.7-1.9,1.5-2.8,2.1c-5.2,3.8-9.5,5.5-13,5.2c-0.5-0.3-0.9-0.5-1.3-0.8
			c3.1,0.9,6.6,0,10.4-2.5c3.8-2.5,5.8-3.9,6.1-4.2c0,0,0.1-0.1,0.3-0.1l40.6-19.4L839.5,44.3z"/>
		<path fill="#FFFFFF" d="M782.1,70c3.9,0.4,7.5-0.6,10.6-2.9c3.2-2.3,5-3.5,5.3-3.6c0.3-0.2,0.5-0.3,0.6-0.3l0.1-0.1v0.1l0.1,0.1
			c-0.1,0-0.2,0.1-0.3,0.1c-0.3,0.3-2.3,1.7-6.1,4.2C788.7,70,785.2,70.8,782.1,70z"/>
		
			<linearGradient id="SVGID_32_" gradientUnits="userSpaceOnUse" x1="1043.8164" y1="-114.1938" x2="1033.6942" y2="-120.5223" gradientTransform="matrix(1 0 0 -1 -251.0098 -50.9453)">
			<stop  offset="0" style="stop-color:#DFDFE3"/>
			<stop  offset="1" style="stop-color:#C5C5CD"/>
		</linearGradient>
		<path fill="url(#SVGID_32_)" d="M797.7,61.9c-1,0.1-1.1,0.3-0.2,0.5l1.1,0.7c-0.1,0-0.4,0.1-0.6,0.3c-0.3,0.2-2,1.4-5.3,3.6
			c-3.2,2.3-6.7,3.3-10.6,2.9c-1.7-1.3-1.3-2.8,1.3-4.5c2.6-1.6,6.6-2.8,12-3.5C796.1,62,796.9,61.9,797.7,61.9z"/>
	</g>
	<g>
		<path fill="#7B6045" d="M791.9,68c-1.1,0.6-2,1.1-2.6,1.4c-3.8,1.4-6.3,1.6-7.5,0.6c-0.3-0.3-0.5-0.6-0.7-1
			c-0.1-0.3-0.1-0.5-0.1-0.7c-0.1-0.2-0.1-0.5,0-0.8c-0.1-0.1-0.1-0.2-0.1-0.3c-0.1-0.3,0-0.6,0.3-0.7c0.1,0.1,0.2,0.1,0.2,0.1l0,0
			c0.1-0.1,0.1-0.1,0.1-0.1c-0.1-0.3,0-0.4,0.3-0.5c0.2-0.1,0.3-0.1,0.5-0.1c-0.2-0.1-0.3-0.3-0.3-0.5c1.5-0.3,2.8-0.6,4.1-1
			c1.7-0.5,3.1-0.4,4.3,0.5C791.1,65.6,791.6,66.6,791.9,68z"/>
	</g>
	<g>
		<path fill="#7B6045" d="M781,67.8c1,2.6,1,5.1,0,7.7c0,0.1-0.1,0.1-0.2,0.1C779.6,73,779.7,70.3,781,67.8L781,67.8z M781.1,83.5
			c0.9,2.2,0.8,4.4-0.2,6.6c0,0.1-0.1,0.1-0.2,0.1c-1-2.2-1-4.3-0.1-6.4c-1-2.6-0.9-5.2,0.3-7.6l0,0C782,78.7,782,81.1,781.1,83.5z
			 M780.5,90.9c1,3.6,1,7.3,0,11.1c0,0.1-0.1,0.1-0.2,0.2c-1.1-3.6-1.2-7.3-0.1-11.2C780.3,90.9,780.4,90.9,780.5,90.9z
			 M780.8,103.1c1,8.4,1.1,17,0.1,25.7c0,0.1,0,0.2-0.1,0.2c-1.3-8.3-1.4-16.9-0.3-25.8C780.5,103.1,780.6,103.1,780.8,103.1z
			 M782.1,133.3c0.9,1.6,0.9,3.3,0.1,5c0,0.1,0,0.2-0.1,0.2c-1.2-1.4-1.4-3.1-0.4-5C781.9,133.4,782,133.3,782.1,133.3z
			 M782.1,140.5c0.9,1.5,0.9,3-0.1,4.5c0,0.1-0.1,0.2-0.2,0.2C780.8,143.6,780.9,142,782.1,140.5L782.1,140.5z M781.3,144.8
			c1.1,6.3,1,12.6-0.1,18.9c0,0-0.1,0-0.2,0c-1-6.2-1-12.5,0.1-18.9H781.3z M780.8,165c1,2.6,1,5.2,0.1,7.9c0,0.1-0.1,0.2-0.2,0.2
			c-1.2-2.5-1.2-5.2-0.1-8C780.5,165,780.6,164.9,780.8,165z M781.3,172.9c0.8,1.3,0.9,2.6,0.1,3.9c0,0.1-0.1,0.1-0.3,0.2
			c-1.1-1.2-1.1-2.5-0.2-4C781,172.9,781.2,172.9,781.3,172.9z M781,184.8c0.9,1.8,1,3.7,0.1,5.5c0,0.1-0.1,0.2-0.2,0.2
			c0-0.1-0.1-0.1-0.1-0.2c0.8,8.1,0.7,16.3-0.2,24.5c0,0-0.1,0.1-0.2,0.2c-1.1-8.6-1.2-17.4-0.2-26.3c-0.3-1.2-0.1-2.5,0.6-3.8
			C780.8,184.9,780.9,184.8,781,184.8z M781.1,183.2c0,0.1,0,0.2-0.1,0.2c-1.2-1.4-1.3-3.1-0.3-5.1c0.1-0.1,0.2-0.2,0.3-0.1
			C781.9,179.8,782,181.5,781.1,183.2z M778.4,219.9c-0.5-2.5-0.3-5.1,0.5-7.9c0-0.1,0.1-0.2,0.3-0.1c0.8,2.6,1,5.3,0.6,8H778.4z"/>
	</g>
</g>
<g>
	<g>
		<path fill="#D7D7D7" d="M973.9,28.5l-1.7-2.7l0.2-1l2.1,3.3C974.3,28.3,974.1,28.4,973.9,28.5z"/>
		
			<linearGradient id="SVGID_33_" gradientUnits="userSpaceOnUse" x1="1229.46" y1="-75.918" x2="1193.7928" y2="-93.0557" gradientTransform="matrix(1 0 0 -1 -251.0098 -50.9453)">
			<stop  offset="0.1098" style="stop-color:#727274"/>
			<stop  offset="0.2706" style="stop-color:#F4F3F8"/>
			<stop  offset="0.4627" style="stop-color:#DFDFE3"/>
			<stop  offset="0.5255" style="stop-color:#B1B5BD"/>
			<stop  offset="0.6627" style="stop-color:#F4F3F8"/>
			<stop  offset="0.8627" style="stop-color:#D9D8DF"/>
			<stop  offset="1" style="stop-color:#C5C5CD"/>
		</linearGradient>
		<path fill="url(#SVGID_33_)" d="M948.2,41l0.8-1.8l3.8-2.6c1.5-0.8,3-1.7,4.4-2.5c4.8-2.7,9.9-5.5,15.1-8.3l1.7,2.7
			c-5,2.8-10.2,5.5-15.8,8.2c-0.1,0.1-0.3,0.2-0.4,0.3c-2.9,1.5-5.4,2.4-7.3,2.9L948.2,41z"/>
		<path fill="#BCBCBB" d="M948.3,41.4l-0.1-0.4l2.1-1.1c1.9-0.5,4.4-1.4,7.3-2.9c0.2-0.1,0.3-0.2,0.4-0.3c5.6-2.6,10.8-5.4,15.8-8.2
			c0.2-0.1,0.4-0.3,0.6-0.4l0.4,0.8L957,38c-2.7,1.3-5,2.2-7,2.6L948.3,41.4z"/>
		<path fill="#D9D9D8" d="M972.3,25.9c-5.3,2.7-10.3,5.5-15.1,8.2c-1.4,0.9-2.9,1.7-4.4,2.5l-3.8,2.7l0.2-0.8l2.8-2l20.5-11.6
			L972.3,25.9z"/>
		
			<linearGradient id="SVGID_34_" gradientUnits="userSpaceOnUse" x1="-851.144" y1="-662.0342" x2="-849.0867" y2="-662.0342" gradientTransform="matrix(-0.4617 -0.887 -0.8805 0.4743 -47.0339 -389.1473)">
			<stop  offset="0.1098" style="stop-color:#727274"/>
			<stop  offset="0.2706" style="stop-color:#F4F3F8"/>
			<stop  offset="0.4627" style="stop-color:#DFDFE3"/>
			<stop  offset="0.5255" style="stop-color:#B1B5BD"/>
			<stop  offset="0.6627" style="stop-color:#F4F3F8"/>
			<stop  offset="0.8627" style="stop-color:#D9D8DF"/>
			<stop  offset="1" style="stop-color:#C5C5CD"/>
		</linearGradient>
		<polygon fill="url(#SVGID_34_)" points="948.2,41 908.6,62.3 908.4,62.3 907.3,61.6 949,39.3 		"/>
		<path fill="#727274" d="M948.3,41.4l-39.4,21.1c-0.9,0.9-1.7,1.6-2.5,2.3c-5,4.1-9.3,6-12.8,5.9c-0.5-0.2-1-0.4-1.4-0.7
			c3.2,0.7,6.6-0.3,10.3-3s5.6-4.1,5.8-4.4c0.1-0.1,0.2-0.2,0.3-0.2L948.2,41L948.3,41.4z"/>
		
			<linearGradient id="SVGID_35_" gradientUnits="userSpaceOnUse" x1="1164.8398" y1="-106.1772" x2="1193.1416" y2="-96.0071" gradientTransform="matrix(1 0 0 -1 -251.0098 -50.9453)">
			<stop  offset="0.2706" style="stop-color:#F4F3F8"/>
			<stop  offset="1" style="stop-color:#C5C5CD"/>
		</linearGradient>
		<path fill="url(#SVGID_35_)" d="M907.5,61l41.7-22.5l-0.2,0.8l-41.7,22.3C906.4,61.4,906.5,61.2,907.5,61z"/>
		
			<linearGradient id="SVGID_36_" gradientUnits="userSpaceOnUse" x1="1153.7461" y1="-113.6812" x2="1143.9507" y2="-120.5226" gradientTransform="matrix(1 0 0 -1 -251.0098 -50.9453)">
			<stop  offset="0" style="stop-color:#DFDFE3"/>
			<stop  offset="1" style="stop-color:#C5C5CD"/>
		</linearGradient>
		<path fill="url(#SVGID_36_)" d="M908.4,62.3c-0.1,0-0.3,0.1-0.6,0.2c-0.3,0.2-2,1.6-5,4c-3.1,2.5-6.6,3.6-10.5,3.4
			c-1.8-1.3-1.4-2.8,1.1-4.5c2.5-1.8,6.4-3.1,11.8-4.1c0.7-0.1,1.5-0.1,2.4-0.3c-1,0.2-1.1,0.4-0.2,0.6L908.4,62.3z"/>
		<path fill="#FFFFFF" d="M908.6,62.3c-0.1,0-0.2,0.1-0.3,0.2c-0.2,0.3-2.1,1.8-5.8,4.4c-3.7,2.7-7.1,3.7-10.3,3
			c3.9,0.2,7.4-0.9,10.5-3.4c3.1-2.5,4.8-3.8,5-4c0.3-0.1,0.5-0.2,0.6-0.2H908.6z"/>
	</g>
	<g>
		<path fill="#7B6045" d="M895,65.3c1.6-0.4,2.8-0.3,3.8,0.6c0.7,0.5,1.1,1.3,1.4,2.4c-0.3,0.2-0.6,0.3-0.9,0.4
			c-3.6,1.6-6,1.8-7.3,0.8c-0.3-0.2-0.5-0.4-0.6-0.7c-0.1-0.4-0.2-0.7-0.2-1c-0.1-0.2-0.1-0.5,0-0.8l-0.2-0.1
			c-0.1-0.2,0-0.4,0.1-0.6l0.1-0.1c0.1,0,0.2,0,0.2,0.1c0.1,0,0.2,0,0.2-0.1C892.9,65.9,894,65.6,895,65.3z"/>
	</g>
	<g>
		<path fill="#7B6045" d="M891.3,68.5c0.9,1.8,1,3.8,0.1,5.8c0,0.1,0,0.2-0.1,0.2c-1.2-1.7-1.3-3.6-0.3-5.9
			C891.1,68.5,891.2,68.4,891.3,68.5z M890,78.5c1,2.3,1,4.6-0.1,6.9c0,0.1-0.1,0.1-0.2,0.1C888.6,83.2,888.7,80.8,890,78.5
			L890,78.5z M889.7,90.1c0-0.1,0.1-0.2,0.3-0.1c0.9,2.3,1,4.7,0.1,7.1c0,0.1-0.1,0.1-0.2,0.2C888.7,95,888.6,92.6,889.7,90.1z
			 M889.6,135.7c0,0-0.1,0-0.2,0c-1-8.4-1-16.8,0-25.3l0.2-0.1C890.8,118.8,890.8,127.2,889.6,135.7z M890.5,100.5
			c0.1-0.1,0.2-0.2,0.3-0.1c0.8,1.3,0.9,2.6,0.1,3.9c0,0.1-0.1,0.2-0.3,0.2C889.6,103.3,889.5,101.9,890.5,100.5z M888.9,191.6
			c1,3.4,1,6.8,0.1,10.3c0,0.1-0.1,0.2-0.2,0.2c-1.1-3.3-1.2-6.8-0.1-10.3C888.7,191.6,888.8,191.6,888.9,191.6z M891,154.2
			c1,6,1.1,12.1,0.1,18.3c0,0.1-0.1,0.1-0.2,0.2c-1.2-6-1.3-12.1-0.1-18.4C890.8,154.2,890.9,154.2,891,154.2z M889.5,217
			c0.2-0.4,0.5-0.8,0.8-1.3l0,0c0.4,0.4,0.6,0.8,0.9,1.3H889.5z"/>
	</g>
</g>
<g>
	<g>
		<path fill="#BCBCBB" d="M1056.7,38.5l-0.2-0.4l2.2-1.4c1.8-0.6,4.2-1.6,7.1-3.1c0.1-0.1,0.3-0.2,0.5-0.3c5.3-2.9,10.4-5.9,15.3-9
			c0.3-0.1,0.5-0.2,0.8-0.3l0.5,0.8l-17.5,9.9c-2.7,1.4-5,2.3-6.9,2.9L1056.7,38.5z"/>
		<path fill="#D9D9D8" d="M1057.2,36.3l0.1-0.7l2.7-2.3l19.9-12.6l-0.2,1c-5,3.1-9.8,6.1-14.5,9c-1.5,0.9-2.9,1.8-4.4,2.7
			L1057.2,36.3z"/>
		<path fill="#D7D7D7" d="M1081.5,24.3l-1.8-2.6l0.2-1l2.3,3.3C1082,24.1,1081.8,24.2,1081.5,24.3z"/>
		
			<linearGradient id="SVGID_37_" gradientUnits="userSpaceOnUse" x1="1336.8896" y1="-71.3892" x2="1302.1766" y2="-90.3698" gradientTransform="matrix(1 0 0 -1 -251.0098 -50.9453)">
			<stop  offset="0.1098" style="stop-color:#727274"/>
			<stop  offset="0.2706" style="stop-color:#F4F3F8"/>
			<stop  offset="0.4627" style="stop-color:#DFDFE3"/>
			<stop  offset="0.5255" style="stop-color:#B1B5BD"/>
			<stop  offset="0.6627" style="stop-color:#F4F3F8"/>
			<stop  offset="0.8627" style="stop-color:#D9D8DF"/>
			<stop  offset="1" style="stop-color:#C5C5CD"/>
		</linearGradient>
		<path fill="url(#SVGID_37_)" d="M1056.5,38.1l0.7-1.9l3.6-2.8c1.4-0.9,2.9-1.8,4.4-2.7c4.7-2.9,9.5-6,14.5-9l1.8,2.6
			c-4.8,3.1-9.9,6.1-15.3,9c-0.2,0.1-0.3,0.2-0.5,0.3c-2.9,1.5-5.3,2.6-7.1,3.1L1056.5,38.1z"/>
		
			<linearGradient id="SVGID_38_" gradientUnits="userSpaceOnUse" x1="1273.9473" y1="-105.0693" x2="1301.6759" y2="-93.4296" gradientTransform="matrix(1 0 0 -1 -251.0098 -50.9453)">
			<stop  offset="0.2706" style="stop-color:#F4F3F8"/>
			<stop  offset="1" style="stop-color:#C5C5CD"/>
		</linearGradient>
		<path fill="url(#SVGID_38_)" d="M1016.9,60.2l40.4-24.6l-0.1,0.7l-40.4,24.5C1015.9,60.7,1016,60.5,1016.9,60.2z"/>
		<path fill="#727274" d="M1056.7,38.5l-38.3,23.1c-0.8,0.8-1.6,1.6-2.4,2.4c-4.9,4.3-9,6.5-12.5,6.5c-0.5-0.2-1-0.5-1.4-0.7
			c3.2,0.6,6.6-0.5,10.1-3.4c3.5-2.8,5.4-4.4,5.6-4.8c0-0.1,0.1-0.2,0.3-0.2l38.4-23.3L1056.7,38.5z"/>
		
			<linearGradient id="SVGID_39_" gradientUnits="userSpaceOnUse" x1="-946.6104" y1="-725.3516" x2="-944.5397" y2="-725.3516" gradientTransform="matrix(-0.4948 -0.869 -0.8572 0.5156 -52.3582 -398.6642)">
			<stop  offset="0.1098" style="stop-color:#727274"/>
			<stop  offset="0.2706" style="stop-color:#F4F3F8"/>
			<stop  offset="0.4627" style="stop-color:#DFDFE3"/>
			<stop  offset="0.5255" style="stop-color:#B1B5BD"/>
			<stop  offset="0.6627" style="stop-color:#F4F3F8"/>
			<stop  offset="0.8627" style="stop-color:#D9D8DF"/>
			<stop  offset="1" style="stop-color:#C5C5CD"/>
		</linearGradient>
		<polygon fill="url(#SVGID_39_)" points="1018.1,61.4 1018,61.4 1018,61.3 1018,61.3 1016.8,60.8 1057.2,36.3 1056.5,38.1 		"/>
		<path fill="#FFFFFF" d="M1002.1,69.8c3.9,0,7.4-1.3,10.4-3.9s4.6-4,4.9-4.3c0.3-0.2,0.5-0.3,0.6-0.4l0,0v0.1h0.1
			c-0.1,0-0.2,0.1-0.3,0.2c-0.2,0.3-2.1,1.9-5.6,4.8C1008.8,69.3,1005.4,70.4,1002.1,69.8z"/>
		
			<linearGradient id="SVGID_40_" gradientUnits="userSpaceOnUse" x1="1263.3174" y1="-113.0918" x2="1253.8911" y2="-120.4141" gradientTransform="matrix(1 0 0 -1 -251.0098 -50.9453)">
			<stop  offset="0" style="stop-color:#DFDFE3"/>
			<stop  offset="1" style="stop-color:#C5C5CD"/>
		</linearGradient>
		<path fill="url(#SVGID_40_)" d="M1002.1,69.8c-1.8-1.1-1.5-2.6,0.8-4.5c2.4-1.9,6.3-3.5,11.6-4.6c0.8-0.2,1.6-0.3,2.4-0.4
			c-0.9,0.3-1,0.5-0.1,0.6l1.2,0.5c-0.1,0.1-0.3,0.2-0.6,0.4c-0.3,0.2-1.9,1.6-4.9,4.3C1009.5,68.8,1006.1,69.8,1002.1,69.8z"/>
	</g>
	<g>
		<path fill="#7B6045" d="M1004.2,66.1c1.3-0.4,2.4-0.2,3.3,0.5c0.6,0.4,1,1.1,1.2,1.9c-3.4,1.7-5.8,2.1-7.1,1.2
			c-0.3-0.2-0.5-0.5-0.7-0.8c-0.2-0.3-0.3-0.6-0.4-0.9s-0.1-0.5,0-0.6c-0.1,0-0.1,0,0-0.2c0-0.1,0-0.2,0-0.2
			C1001.8,66.7,1003,66.4,1004.2,66.1z"/>
	</g>
	<g>
		<path fill="#7B6045" d="M1001.4,74c0,0.1,0,0.2-0.1,0.2c-1.2-1.7-1.3-3.6-0.3-5.9c0.1-0.1,0.2-0.2,0.3-0.1
			C1002.2,70.1,1002.3,72,1001.4,74z M1000,89.8c0.9,2.3,1,4.7,0.1,7.1c-0.1,0.1-0.1,0.1-0.2,0.2c-1.2-2.3-1.2-4.7-0.1-7.2
			C999.7,89.8,999.8,89.7,1000,89.8z M1000,78.4c1,2.3,1,4.6-0.1,6.9c0,0.1-0.1,0.1-0.2,0.1C998.6,83,998.7,80.6,1000,78.4
			L1000,78.4z M999.6,135.5c0,0-0.1,0-0.2,0c-1-8.4-1-16.8,0-25.3l0.2-0.1C1000.8,118.6,1000.8,127,999.6,135.5z M1000.5,100.3
			c0.1-0.1,0.2-0.2,0.3-0.1c0.8,1.3,0.9,2.6,0.1,3.9c0,0.1-0.1,0.2-0.3,0.2C999.6,103,999.5,101.7,1000.5,100.3z M998.9,191.4
			c1,3.4,1,6.8,0.1,10.3c0,0.1-0.1,0.2-0.2,0.2c-1.1-3.3-1.2-6.8-0.1-10.4C998.7,191.4,998.8,191.4,998.9,191.4z M1001,154
			c1,6,1.1,12.1,0.1,18.3c0,0.1-0.1,0.1-0.2,0.2c-1.2-6-1.3-12.1-0.1-18.4C1000.8,154,1000.9,154,1001,154z M999.5,216.8
			c0.2-0.4,0.5-0.8,0.8-1.3l0,0c0.4,0.4,0.6,0.8,0.9,1.3H999.5z"/>
	</g>
</g>
<g>
	<g>
		<path fill="#D7D7D7" d="M1189.3,20.5l-2-2.6l0.2-0.9l2.4,3C1189.7,20.2,1189.5,20.3,1189.3,20.5z"/>
		
			<linearGradient id="SVGID_41_" gradientUnits="userSpaceOnUse" x1="1444.418" y1="-67.208" x2="1410.6682" y2="-87.7859" gradientTransform="matrix(1 0 0 -1 -251.0098 -50.9453)">
			<stop  offset="0.1098" style="stop-color:#727274"/>
			<stop  offset="0.2706" style="stop-color:#F4F3F8"/>
			<stop  offset="0.4627" style="stop-color:#DFDFE3"/>
			<stop  offset="0.5255" style="stop-color:#B1B5BD"/>
			<stop  offset="0.6627" style="stop-color:#F4F3F8"/>
			<stop  offset="0.8627" style="stop-color:#D9D8DF"/>
			<stop  offset="1" style="stop-color:#C5C5CD"/>
		</linearGradient>
		<path fill="url(#SVGID_41_)" d="M1165,35.5l0.6-2l1-0.8l2.4-2.2c1.4-0.9,2.8-1.9,4.2-2.9c4.6-3.1,9.3-6.4,14-9.8l2,2.6
			c-4.6,3.3-9.6,6.5-14.8,9.6c-0.1,0.1-0.3,0.3-0.5,0.4c-2.8,1.7-5.1,3-6.9,3.6L1165,35.5z"/>
		<path fill="#D9D9D8" d="M1187.3,17.9c-4.8,3.4-9.5,6.6-14,9.8c-1.4,1-2.8,2-4.2,2.9l-2.4,2.2l-1,0.8v-0.7l2.6-2.3l19.2-13.6
			L1187.3,17.9z"/>
		<path fill="#BCBCBB" d="M1189.9,20l0.5,0.7l-17,10.8c-2.5,1.5-4.8,2.6-6.8,3.2l-1.5,1.1l-0.1-0.3l2-1.4c1.8-0.7,4.1-1.9,6.9-3.6
			c0.2-0.1,0.3-0.2,0.5-0.4c5.2-3.1,10.2-6.3,14.8-9.6C1189.5,20.3,1189.7,20.2,1189.9,20z"/>
		
			<linearGradient id="SVGID_42_" gradientUnits="userSpaceOnUse" x1="1383.2344" y1="-103.9561" x2="1410.3615" y2="-90.9855" gradientTransform="matrix(1 0 0 -1 -251.0098 -50.9453)">
			<stop  offset="0.2706" style="stop-color:#F4F3F8"/>
			<stop  offset="1" style="stop-color:#C5C5CD"/>
		</linearGradient>
		<path fill="url(#SVGID_42_)" d="M1126.4,59.4l39.3-26.6v0.7L1126.4,60C1125.5,59.9,1125.5,59.7,1126.4,59.4z"/>
		<path fill="#727274" d="M1165.3,35.9l-37.2,24.8c-0.9,0.9-1.6,1.8-2.4,2.5c-4.6,4.6-8.6,6.9-12,7c-0.5-0.2-1-0.4-1.5-0.6
			c3.2,0.4,6.5-0.9,9.9-4c3.4-3,5.2-4.7,5.4-5.1c0,0,0.1-0.1,0.3-0.2l37.3-25L1165.3,35.9z"/>
		
			<linearGradient id="SVGID_43_" gradientUnits="userSpaceOnUse" x1="1397.9297" y1="-98.9941" x2="1396.7767" y2="-97.2711" gradientTransform="matrix(1 0 0 -1 -251.0098 -50.9453)">
			<stop  offset="0.1098" style="stop-color:#727274"/>
			<stop  offset="0.2706" style="stop-color:#F4F3F8"/>
			<stop  offset="0.4627" style="stop-color:#DFDFE3"/>
			<stop  offset="0.5255" style="stop-color:#B1B5BD"/>
			<stop  offset="0.6627" style="stop-color:#F4F3F8"/>
			<stop  offset="0.8627" style="stop-color:#D9D8DF"/>
			<stop  offset="1" style="stop-color:#C5C5CD"/>
		</linearGradient>
		<polygon fill="url(#SVGID_43_)" points="1165,35.5 1127.8,60.5 1127.6,60.5 1127.6,60.5 1127.5,60.5 1126.4,60 1165.7,33.5 		"/>
		<path fill="#FFFFFF" d="M1112.2,69.7c3.9-0.1,7.3-1.6,10.3-4.4c2.7-2.8,4.2-4.3,4.5-4.4c0.3-0.2,0.5-0.3,0.6-0.3l0.1-0.1v0.1
			l0.2-0.1c-0.1,0.1-0.2,0.2-0.3,0.2c-0.2,0.4-2,2.1-5.4,5.1C1118.8,68.8,1115.4,70.1,1112.2,69.7z"/>
		
			<linearGradient id="SVGID_44_" gradientUnits="userSpaceOnUse" x1="1372.8184" y1="-112.4141" x2="1363.7452" y2="-120.1955" gradientTransform="matrix(1 0 0 -1 -251.0098 -50.9453)">
			<stop  offset="0" style="stop-color:#DFDFE3"/>
			<stop  offset="1" style="stop-color:#C5C5CD"/>
		</linearGradient>
		<path fill="url(#SVGID_44_)" d="M1127.5,60.5c-0.1,0-0.3,0.1-0.6,0.3c-0.3,0.2-1.8,1.6-4.5,4.4c-2.9,2.8-6.3,4.3-10.3,4.4
			c-1.8-1-1.6-2.6,0.6-4.6c2.4-2,6.2-3.8,11.4-5.1c0.8-0.2,1.5-0.4,2.3-0.6c-0.9,0.3-0.9,0.5,0,0.6L1127.5,60.5z"/>
	</g>
	<g>
		<path fill="#7B6045" d="M1117,69c-2.5,1.2-4.2,1.4-5.3,0.8c-0.4-0.2-0.7-0.5-0.9-0.8s-0.3-0.6-0.3-0.8c-0.1-0.2-0.1-0.3-0.1-0.5
			c1-0.3,1.9-0.5,2.9-0.8c1.1-0.3,2-0.1,2.8,0.5C1116.6,67.9,1116.9,68.4,1117,69z"/>
	</g>
	<g>
		<path fill="#7B6045" d="M1109.3,95.3c0,0.1-0.1,0.1-0.2,0.1c-1.1-2.7-1-5.3,0.2-7.8l0,0C1110.3,90.2,1110.3,92.7,1109.3,95.3z
			 M1111.1,76.6c-1.5-2.8-1.7-5.8-0.4-9.1c0-0.1,0-0.1,0-0.2c1.4,2.7,1.6,5.7,0.5,9C1111.3,76.5,1111.3,76.5,1111.1,76.6z
			 M1110.1,139.8c1,2.6,1,5.3,0,7.9c0,0.1-0.1,0.2-0.2,0.2c-1.4-2.6-1.4-5.3,0-8C1110,139.9,1110,139.8,1110.1,139.8z M1110.1,111.5
			c0.9,1.5,0.9,3-0.1,4.5c0,0.1-0.1,0.1-0.2,0.1C1108.8,114.5,1108.9,112.9,1110.1,111.5L1110.1,111.5z"/>
	</g>
</g>
<g>
	<g>
		<path fill="#D7D7D7" d="M1295,13.3l2.5,3c-0.2,0.1-0.4,0.3-0.7,0.5l-2-2.5L1295,13.3z"/>
		<path fill="#D9D9D8" d="M1273.9,31v-0.7l2.5-2.5l18.6-14.5l-0.2,1c-4.7,3.6-9.3,7-13.6,10.4c-1.4,1-2.7,2.1-4,3.1l-2.3,2.4
			L1273.9,31z"/>
		<path fill="#BCBCBB" d="M1273.5,33.3l-0.2-0.3l2-1.6c1.8-0.8,4-2.1,6.7-4c0.2-0.1,0.4-0.2,0.5-0.3c5-3.4,9.8-6.9,14.3-10.4
			c0.3-0.2,0.5-0.4,0.7-0.5l0.6,0.7l-16.4,11.7c-2.5,1.6-4.7,2.8-6.6,3.5L1273.5,33.3z"/>
		
			<linearGradient id="SVGID_45_" gradientUnits="userSpaceOnUse" x1="1551.9141" y1="-63.3965" x2="1519.2339" y2="-85.6773" gradientTransform="matrix(1 0 0 -1 -251.0098 -50.9453)">
			<stop  offset="0.1098" style="stop-color:#727274"/>
			<stop  offset="0.2706" style="stop-color:#F4F3F8"/>
			<stop  offset="0.4627" style="stop-color:#DFDFE3"/>
			<stop  offset="0.5255" style="stop-color:#B1B5BD"/>
			<stop  offset="0.6627" style="stop-color:#F4F3F8"/>
			<stop  offset="0.8627" style="stop-color:#D9D8DF"/>
			<stop  offset="1" style="stop-color:#C5C5CD"/>
		</linearGradient>
		<path fill="url(#SVGID_45_)" d="M1296.8,16.8c-4.5,3.5-9.2,7-14.3,10.4c-0.2,0.1-0.3,0.2-0.5,0.3c-2.7,1.9-4.9,3.2-6.7,4l-2,1.6
			l0.6-2l1-0.8l2.3-2.4c1.3-1.1,2.7-2.1,4-3.1c4.3-3.3,8.9-6.8,13.6-10.4L1296.8,16.8z"/>
		
			<linearGradient id="SVGID_46_" gradientUnits="userSpaceOnUse" x1="1492.5264" y1="-103.041" x2="1518.9995" y2="-88.7612" gradientTransform="matrix(1 0 0 -1 -251.0098 -50.9453)">
			<stop  offset="0.2706" style="stop-color:#F4F3F8"/>
			<stop  offset="1" style="stop-color:#C5C5CD"/>
		</linearGradient>
		<path fill="url(#SVGID_46_)" d="M1273.9,31L1236,59.4c-0.9-0.1-0.8-0.3,0.1-0.7l37.8-28.4V31z"/>
		
			<linearGradient id="SVGID_47_" gradientUnits="userSpaceOnUse" x1="1506.8701" y1="-97.3721" x2="1505.6458" y2="-95.7217" gradientTransform="matrix(1 0 0 -1 -251.0098 -50.9453)">
			<stop  offset="0.1098" style="stop-color:#727274"/>
			<stop  offset="0.2706" style="stop-color:#F4F3F8"/>
			<stop  offset="0.4627" style="stop-color:#DFDFE3"/>
			<stop  offset="0.5255" style="stop-color:#B1B5BD"/>
			<stop  offset="0.6627" style="stop-color:#F4F3F8"/>
			<stop  offset="0.8627" style="stop-color:#D9D8DF"/>
			<stop  offset="1" style="stop-color:#C5C5CD"/>
		</linearGradient>
		<polygon fill="url(#SVGID_47_)" points="1236,59.4 1273.9,31 1273.3,33 1237.4,59.8 1237.4,59.8 1237.3,59.6 1237.2,59.8 		"/>
		<path fill="#727274" d="M1273.5,33.3L1237.7,60c-0.8,0.9-1.5,1.8-2.2,2.6c-4.3,4.7-8.3,7.3-11.8,7.6c-0.5-0.2-1-0.3-1.5-0.5
			c3.3,0.3,6.5-1.2,9.8-4.4c3.2-3.2,4.9-5,5.1-5.3c0.1-0.1,0.1-0.2,0.2-0.3l36-26.7L1273.5,33.3z"/>
		
			<linearGradient id="SVGID_48_" gradientUnits="userSpaceOnUse" x1="1482.6523" y1="-112.04" x2="1473.959" y2="-120.247" gradientTransform="matrix(1 0 0 -1 -251.0098 -50.9453)">
			<stop  offset="0" style="stop-color:#DFDFE3"/>
			<stop  offset="1" style="stop-color:#C5C5CD"/>
		</linearGradient>
		<path fill="url(#SVGID_48_)" d="M1222.3,69.7c-1.9-1-1.8-2.5,0.5-4.6c2.2-2.2,5.9-4.1,11-5.7c0.8-0.3,1.5-0.5,2.4-0.8
			c-1,0.4-1,0.6-0.1,0.7l1.3,0.4c-0.1,0-0.3,0.1-0.5,0.3c-0.3,0.3-1.8,1.8-4.5,4.7C1229.5,67.7,1226.2,69.3,1222.3,69.7z"/>
		<path fill="#FFFFFF" d="M1222.3,69.7c3.9-0.4,7.3-2,10-5c2.7-2.9,4.2-4.4,4.5-4.7c0.2-0.2,0.4-0.3,0.5-0.3l0.1-0.1l0.1,0.1l0,0
			c-0.1,0.1-0.1,0.1-0.2,0.3c-0.2,0.3-1.9,2.1-5.1,5.3C1228.8,68.5,1225.6,70,1222.3,69.7z"/>
	</g>
	<g>
		<path fill="#7B6045" d="M1219.3,95.3c0,0.1-0.1,0.1-0.2,0.1c-1.1-2.7-1-5.3,0.2-7.8l0,0C1220.3,90.2,1220.3,92.7,1219.3,95.3z
			 M1221.1,76.6c-1.5-2.8-1.7-5.8-0.4-9.1c0-0.1,0-0.1,0-0.2c1.4,2.7,1.6,5.7,0.5,9C1221.3,76.5,1221.3,76.5,1221.1,76.6z
			 M1220.1,139.8c1,2.6,1,5.3,0,7.9c0,0.1-0.1,0.2-0.2,0.2c-1.4-2.6-1.4-5.3,0-8C1220,139.9,1220,139.8,1220.1,139.8z M1220.1,111.5
			c0.9,1.5,0.9,3-0.1,4.5c0,0.1-0.1,0.1-0.2,0.1C1218.8,114.5,1218.9,112.9,1220.1,111.5L1220.1,111.5z"/>
	</g>
</g>
<g>
	<g>
		<path fill="#BCBCBB" d="M1404.5,12.4l0.6,0.8l-15.8,12.3c-2.4,1.8-4.5,3.1-6.4,4l-1.5,1.1l-0.2-0.4l1.9-1.5c1.8-0.9,4-2.3,6.6-4.3
			c0.1-0.1,0.3-0.2,0.4-0.4c4.9-3.6,9.5-7.3,13.9-11C1404.2,12.8,1404.3,12.6,1404.5,12.4z"/>
		<path fill="#D7D7D7" d="M1404.5,12.4c-0.2,0.2-0.4,0.4-0.6,0.6l-2.2-2.3v-1L1404.5,12.4z"/>
		
			<linearGradient id="SVGID_49_" gradientUnits="userSpaceOnUse" x1="1658.71" y1="-59.4375" x2="1627.1945" y2="-83.3286" gradientTransform="matrix(1 0 0 -1 -251.0098 -50.9453)">
			<stop  offset="0.1098" style="stop-color:#727274"/>
			<stop  offset="0.2706" style="stop-color:#F4F3F8"/>
			<stop  offset="0.4627" style="stop-color:#DFDFE3"/>
			<stop  offset="0.5255" style="stop-color:#B1B5BD"/>
			<stop  offset="0.6627" style="stop-color:#F4F3F8"/>
			<stop  offset="0.8627" style="stop-color:#D9D8DF"/>
			<stop  offset="1" style="stop-color:#C5C5CD"/>
		</linearGradient>
		<path fill="url(#SVGID_49_)" d="M1381.3,30.3l0.4-1.9l3.1-3.4c1.3-1.1,2.6-2.3,3.9-3.3c4.2-3.6,8.5-7.3,13-11.1l2.3,2.4
			c-4.3,3.7-8.9,7.4-13.8,11.1c-0.1,0.1-0.3,0.3-0.4,0.4c-2.6,2-4.8,3.4-6.6,4.3L1381.3,30.3z"/>
		<path fill="#D9D9D8" d="M1401.8,10.6c-4.5,3.7-8.8,7.4-13,11.1c-1.3,1.1-2.6,2.2-3.9,3.3l-3.1,3.4v-0.7l2.2-2.7l17.8-15.4V10.6z"
			/>
		<path fill="#727274" d="M1381.5,30.6l-34.4,28.6c-0.8,1-1.5,1.9-2.1,2.7c-4.1,5-7.9,7.7-11.3,8.3c-0.6-0.1-1.1-0.3-1.5-0.4
			c3.3,0.1,6.5-1.6,9.5-5c3.1-3.3,4.7-5.2,4.8-5.5c0-0.1,0.1-0.2,0.2-0.2l34.5-28.8L1381.5,30.6z"/>
		
			<linearGradient id="SVGID_50_" gradientUnits="userSpaceOnUse" x1="1601.4707" y1="-102.041" x2="1627.1804" y2="-86.4332" gradientTransform="matrix(1 0 0 -1 -251.0098 -50.9453)">
			<stop  offset="0.2706" style="stop-color:#F4F3F8"/>
			<stop  offset="1" style="stop-color:#C5C5CD"/>
		</linearGradient>
		<path fill="url(#SVGID_50_)" d="M1381.7,28.4l-36.4,30.2c-0.9,0-0.9-0.2,0.1-0.6l36.4-30.3L1381.7,28.4L1381.7,28.4z"/>
		
			<linearGradient id="SVGID_51_" gradientUnits="userSpaceOnUse" x1="1615.5391" y1="-95.6909" x2="1614.2145" y2="-94.0906" gradientTransform="matrix(1 0 0 -1 -251.0098 -50.9453)">
			<stop  offset="0.1098" style="stop-color:#727274"/>
			<stop  offset="0.2706" style="stop-color:#F4F3F8"/>
			<stop  offset="0.4627" style="stop-color:#DFDFE3"/>
			<stop  offset="0.5255" style="stop-color:#B1B5BD"/>
			<stop  offset="0.6627" style="stop-color:#F4F3F8"/>
			<stop  offset="0.8627" style="stop-color:#D9D8DF"/>
			<stop  offset="1" style="stop-color:#C5C5CD"/>
		</linearGradient>
		<polygon fill="url(#SVGID_51_)" points="1345.3,58.6 1381.7,28.4 1381.3,30.3 1346.8,59 1346.6,59 1346.5,59 		"/>
		<path fill="#FFFFFF" d="M1332.2,69.7c3.9-0.6,7.1-2.4,9.7-5.5c2.5-3,3.8-4.6,4.1-4.9c0.2-0.2,0.4-0.4,0.5-0.4h0.1h0.1
			c-0.1,0-0.2,0.1-0.2,0.2c-0.1,0.4-1.8,2.2-4.8,5.5C1338.7,68.1,1335.5,69.8,1332.2,69.7z"/>
		
			<linearGradient id="SVGID_52_" gradientUnits="userSpaceOnUse" x1="1592.1367" y1="-111.582" x2="1583.9115" y2="-120.2307" gradientTransform="matrix(1 0 0 -1 -251.0098 -50.9453)">
			<stop  offset="0" style="stop-color:#DFDFE3"/>
			<stop  offset="1" style="stop-color:#C5C5CD"/>
		</linearGradient>
		<path fill="url(#SVGID_52_)" d="M1345.4,58c-0.9,0.4-1,0.6-0.1,0.6l1.3,0.4c-0.1,0.1-0.3,0.2-0.5,0.4c-0.3,0.3-1.6,1.9-4.1,4.9
			c-2.6,3-5.8,4.9-9.7,5.5c-2-0.9-1.9-2.4,0.1-4.6c2.1-2.2,5.7-4.3,10.8-6.3C1343.8,58.5,1344.5,58.3,1345.4,58z"/>
	</g>
	<g>
		<path fill="#7B6045" d="M1331.5,94.7c0.8,1.3,0.9,2.6,0.1,3.9c0,0.1-0.1,0.2-0.3,0.2c-1.1-1.2-1.1-2.5-0.2-3.9
			C1331.3,94.7,1331.4,94.7,1331.5,94.7z M1331.5,83.4c-1.9-3.2-2.1-6.7-0.8-10.6c0-0.1,0.1-0.2,0.3-0.1c0.9,3.5,1.1,7,0.6,10.6
			C1331.6,83.3,1331.6,83.4,1331.5,83.4z"/>
	</g>
</g>
<g>
	<g>
		<path fill="#BCBCBB" d="M1489.6,28.3l-0.2-0.3l1.8-1.8c1.7-0.9,3.8-2.4,6.3-4.6c0.1-0.1,0.3-0.2,0.4-0.4c4.7-4,9.1-7.9,13.2-11.8
			c0.2-0.2,0.4-0.4,0.6-0.5l0.7,0.6l-15.2,13.4c-2.3,1.9-4.4,3.3-6.2,4.1L1489.6,28.3z"/>
		<path fill="#D7D7D7" d="M1508.9,6.3l2.9,2.7c-0.2,0.2-0.4,0.4-0.6,0.5l-2.3-2.2V6.3z"/>
		<path fill="#D9D9D8" d="M1489.7,26v-0.8l2.2-2.6l17-16.4v1c-4.3,4-8.5,7.9-12.6,11.7c-1.2,1.2-2.4,2.4-3.6,3.5L1489.7,26z"/>
		
			<linearGradient id="SVGID_53_" gradientUnits="userSpaceOnUse" x1="1765.708" y1="-55.8398" x2="1735.5056" y2="-81.3147" gradientTransform="matrix(1 0 0 -1 -251.0098 -50.9453)">
			<stop  offset="0.1098" style="stop-color:#727274"/>
			<stop  offset="0.2706" style="stop-color:#F4F3F8"/>
			<stop  offset="0.4627" style="stop-color:#DFDFE3"/>
			<stop  offset="0.5255" style="stop-color:#B1B5BD"/>
			<stop  offset="0.6627" style="stop-color:#F4F3F8"/>
			<stop  offset="0.8627" style="stop-color:#D9D8DF"/>
			<stop  offset="1" style="stop-color:#C5C5CD"/>
		</linearGradient>
		<path fill="url(#SVGID_53_)" d="M1489.4,28l0.3-1.9l3-3.5c1.2-1.1,2.4-2.3,3.6-3.5c4-3.8,8.2-7.7,12.6-11.7l2.3,2.2
			c-4.2,3.8-8.5,7.7-13.2,11.7c-0.1,0.1-0.3,0.3-0.4,0.4c-2.5,2.1-4.6,3.6-6.3,4.6L1489.4,28z"/>
		
			<linearGradient id="SVGID_54_" gradientUnits="userSpaceOnUse" x1="1710.6348" y1="-101.1729" x2="1735.5525" y2="-84.312" gradientTransform="matrix(1 0 0 -1 -251.0098 -50.9453)">
			<stop  offset="0.2706" style="stop-color:#F4F3F8"/>
			<stop  offset="1" style="stop-color:#C5C5CD"/>
		</linearGradient>
		<path fill="url(#SVGID_54_)" d="M1489.7,26l-34.8,32c-0.9,0-1-0.2-0.1-0.6l34.9-32.1V26z"/>
		<path fill="#727274" d="M1489.6,28.3l-33,30.2c-0.7,1-1.3,1.9-1.9,2.8c-3.9,5.1-7.5,8-11,8.7c-0.6-0.1-1-0.2-1.5-0.3
			c3.2-0.1,6.3-1.9,9.2-5.4c2.9-3.5,4.5-5.4,4.6-5.8c0.1-0.1,0.1-0.2,0.3-0.3l33.1-30.2L1489.6,28.3z"/>
		
			<linearGradient id="SVGID_55_" gradientUnits="userSpaceOnUse" x1="1724.3457" y1="-94.0757" x2="1722.9462" y2="-92.5495" gradientTransform="matrix(1 0 0 -1 -251.0098 -50.9453)">
			<stop  offset="0.1098" style="stop-color:#727274"/>
			<stop  offset="0.2706" style="stop-color:#F4F3F8"/>
			<stop  offset="0.4627" style="stop-color:#DFDFE3"/>
			<stop  offset="0.5255" style="stop-color:#B1B5BD"/>
			<stop  offset="0.6627" style="stop-color:#F4F3F8"/>
			<stop  offset="0.8627" style="stop-color:#D9D8DF"/>
			<stop  offset="1" style="stop-color:#C5C5CD"/>
		</linearGradient>
		<polygon fill="url(#SVGID_55_)" points="1454.9,58 1489.7,26 1489.4,28 1456.4,58.3 1456.1,58.3 1456.1,58.2 		"/>
		<path fill="#FFFFFF" d="M1442.3,69.7c3.9-0.8,7-2.7,9.4-5.9c2.4-3.2,3.7-4.9,3.9-5.2c0.2-0.2,0.4-0.4,0.6-0.4l0,0h0.2
			c-0.1,0.1-0.2,0.2-0.3,0.3c-0.1,0.3-1.7,2.3-4.6,5.8S1445.5,69.6,1442.3,69.7z"/>
		
			<linearGradient id="SVGID_56_" gradientUnits="userSpaceOnUse" x1="1701.6611" y1="-111.0732" x2="1693.845" y2="-120.1058" gradientTransform="matrix(1 0 0 -1 -251.0098 -50.9453)">
			<stop  offset="0" style="stop-color:#DFDFE3"/>
			<stop  offset="1" style="stop-color:#C5C5CD"/>
		</linearGradient>
		<path fill="url(#SVGID_56_)" d="M1454.9,58l1.2,0.2c-0.1,0.1-0.3,0.3-0.6,0.4c-0.2,0.3-1.5,2.1-3.9,5.2c-2.4,3.1-5.5,5.1-9.4,5.9
			c-2-0.8-2-2.3,0-4.6c1.9-2.4,5.4-4.7,10.4-6.9c0.7-0.3,1.4-0.6,2.1-0.9C1453.9,57.8,1454,58,1454.9,58z"/>
	</g>
	<g>
		<path fill="#7B6045" d="M1441.9,94.5c0,0.1,0,0.1-0.1,0.2c-1.9-3.2-2.2-6.8-0.8-10.7c0-0.1,0.1-0.2,0.3-0.1
			C1442.1,87.4,1442.4,90.9,1441.9,94.5z M1441.6,110c-1-1.2-1.1-2.5-0.2-4c0.1-0.1,0.2-0.2,0.4-0.1c0.8,1.3,0.9,2.6,0.1,3.9
			C1441.8,109.9,1441.7,110,1441.6,110z"/>
	</g>
</g>
<g>
	
		<linearGradient id="SVGID_57_" gradientUnits="userSpaceOnUse" x1="1872.3955" y1="-52.1196" x2="1843.4113" y2="-79.0809" gradientTransform="matrix(1 0 0 -1 -251.0098 -50.9453)">
		<stop  offset="0.1098" style="stop-color:#727274"/>
		<stop  offset="0.2706" style="stop-color:#F4F3F8"/>
		<stop  offset="0.4627" style="stop-color:#DFDFE3"/>
		<stop  offset="0.5255" style="stop-color:#B1B5BD"/>
		<stop  offset="0.6627" style="stop-color:#F4F3F8"/>
		<stop  offset="0.8627" style="stop-color:#D9D8DF"/>
		<stop  offset="1" style="stop-color:#C5C5CD"/>
	</linearGradient>
	<path fill="url(#SVGID_57_)" d="M1597.3,25.5l0.2-2l1-1l1.9-2.6c1.2-1.2,2.4-2.4,3.5-3.8c3.9-4,7.8-8.1,11.9-12.3l2.4,2.2
		c-3.9,4.1-8.2,8.2-12.7,12.4c-0.1,0.1-0.2,0.3-0.3,0.4c-2.4,2.2-4.5,3.9-6.2,4.9L1597.3,25.5z"/>
	<path fill="#D7D7D7" d="M1618.2,6l-2.5-2.1v-1l3,2.5C1618.5,5.6,1618.3,5.8,1618.2,6z"/>
	<path fill="#D9D9D8" d="M1615.7,3.9c-4.1,4.2-8,8.3-11.9,12.3c-1.1,1.3-2.3,2.6-3.5,3.8l-1.9,2.6l-1,1V23l2.1-2.9l16.2-17.2V3.9z"
		/>
	<path fill="#BCBCBB" d="M1618.7,5.4l0.6,0.6l-14.5,14c-2.2,2-4.2,3.5-6,4.5l-1.3,1.3l-0.2-0.3l1.7-1.8c1.7-1,3.7-2.7,6.2-4.9
		c0.1-0.1,0.3-0.3,0.3-0.4c4.5-4.2,8.7-8.3,12.7-12.4C1618.3,5.8,1618.5,5.6,1618.7,5.4z"/>
	
		<linearGradient id="SVGID_58_" gradientUnits="userSpaceOnUse" x1="1819.6299" y1="-100.2856" x2="1843.7095" y2="-82.1667" gradientTransform="matrix(1 0 0 -1 -251.0098 -50.9453)">
		<stop  offset="0.2706" style="stop-color:#F4F3F8"/>
		<stop  offset="1" style="stop-color:#C5C5CD"/>
	</linearGradient>
	<path fill="url(#SVGID_58_)" d="M1597.5,23.5l-33.2,33.8c-0.9,0-0.9-0.2-0.1-0.6l33.3-33.8V23.5z"/>
	<path fill="#727274" d="M1597.5,25.8L1566,57.6c-0.6,1-1.2,2-1.8,3c-3.6,5.4-7.1,8.4-10.5,9.3c-0.6-0.1-1.1-0.1-1.5-0.3
		c3.2-0.2,6.2-2.2,9-5.8c2.7-3.7,4.1-5.7,4.3-6c0.1-0.1,0.1-0.2,0.3-0.3l31.5-32L1597.5,25.8z"/>
	
		<linearGradient id="SVGID_59_" gradientUnits="userSpaceOnUse" x1="1833.0234" y1="-92.4546" x2="1831.5452" y2="-90.9828" gradientTransform="matrix(1 0 0 -1 -251.0098 -50.9453)">
		<stop  offset="0.1098" style="stop-color:#727274"/>
		<stop  offset="0.2706" style="stop-color:#F4F3F8"/>
		<stop  offset="0.4627" style="stop-color:#DFDFE3"/>
		<stop  offset="0.5255" style="stop-color:#B1B5BD"/>
		<stop  offset="0.6627" style="stop-color:#F4F3F8"/>
		<stop  offset="0.8627" style="stop-color:#D9D8DF"/>
		<stop  offset="1" style="stop-color:#C5C5CD"/>
	</linearGradient>
	<polygon fill="url(#SVGID_59_)" points="1564.3,57.3 1597.5,23.5 1597.3,25.5 1565.8,57.5 1565.6,57.5 1565.5,57.5 1565.5,57.5 	
		"/>
	
		<linearGradient id="SVGID_60_" gradientUnits="userSpaceOnUse" x1="1811.2998" y1="-110.7124" x2="1803.9285" y2="-120.1402" gradientTransform="matrix(1 0 0 -1 -251.0098 -50.9453)">
		<stop  offset="0" style="stop-color:#DFDFE3"/>
		<stop  offset="1" style="stop-color:#C5C5CD"/>
	</linearGradient>
	<path fill="url(#SVGID_60_)" d="M1564.3,57.3l1.3,0.2c-0.1,0.1-0.3,0.3-0.5,0.5c-0.2,0.3-1.4,2.1-3.6,5.3c-2.2,3.3-5.3,5.4-9.1,6.4
		c-2.1-0.7-2.2-2.2-0.3-4.6c1.8-2.5,5.2-4.9,10-7.3c0.7-0.4,1.4-0.7,2.1-1.1C1563.3,57.1,1563.4,57.3,1564.3,57.3z"/>
	<path fill="#FFFFFF" d="M1565.8,57.5c-0.1,0.1-0.2,0.1-0.3,0.3c-0.1,0.4-1.5,2.4-4.3,6c-2.7,3.6-5.7,5.6-9,5.8
		c3.8-0.9,6.9-3.1,9.1-6.4c2.2-3.2,3.4-5,3.6-5.3c0.2-0.2,0.4-0.4,0.5-0.5l0,0l0.1,0.1H1565.8z"/>
</g>
</svg>
