<?xml version="1.0" encoding="utf-8"?>
<!-- Generator: Adobe Illustrator 16.0.0, SVG Export Plug-In . SVG Version: 6.00 Build 0)  -->
<!DOCTYPE svg PUBLIC "-//W3C//DTD SVG 1.1//EN" "http://www.w3.org/Graphics/SVG/1.1/DTD/svg11.dtd">
<svg version="1.1" id="Layer_1" xmlns="http://www.w3.org/2000/svg" xmlns:xlink="http://www.w3.org/1999/xlink" x="0px" y="0px"
	 width="190.5px" height="14.8px" viewBox="0 0 190.5 14.8" enable-background="new 0 0 190.5 14.8" xml:space="preserve">
<g>
	
		<line fill-rule="evenodd" clip-rule="evenodd" fill="none" stroke="#FFFFFF" stroke-width="0.1" stroke-linecap="round" stroke-linejoin="round" stroke-miterlimit="3" stroke-opacity="0.298" x1="2.2" y1="9.3" x2="189.6" y2="9.3"/>
	<g>
		<polygon fill-rule="evenodd" clip-rule="evenodd" fill="#365461" points="1.9,14.2 2,9.3 141.3,9.3 141.2,9.4 189.8,9.4 
			189.8,14.2 		"/>
		<path fill-rule="evenodd" clip-rule="evenodd" fill="#588A9E" d="M189.8,9.4h-48.5l0-0.1L2,9.3l-0.4-7H17c2,1.3,6.2,2,12.6,2.3
			c7.5-0.1,12.2-0.9,14.1-2.3h5.6c2,1.3,6.2,2,12.6,2.3c7.5-0.1,12.2-0.9,14.1-2.3h5.4c2,1.3,6.2,2,12.6,2.3
			c7.6-0.1,12.3-0.8,14.2-2.3h5.3c2,1.3,6.2,2,12.7,2.3c7.5-0.1,12.2-0.8,14.2-2.3h5.3c2,1.3,6.2,2,12.7,2.3
			c7.6-0.1,12.3-0.8,14.3-2.3h13.3L189.8,9.4z"/>
		<polygon fill-rule="evenodd" clip-rule="evenodd" fill="#243942" points="1.9,14.2 1.3,2.3 1.6,2.3 2,9.3 		"/>
	</g>
	
		<line fill-rule="evenodd" clip-rule="evenodd" fill="none" stroke="#FFFFFF" stroke-width="0.1" stroke-linecap="round" stroke-linejoin="round" stroke-miterlimit="3" stroke-opacity="0.498" x1="2" y1="9.2" x2="189.8" y2="9.2"/>
</g>
</svg>
