<?xml version="1.0" encoding="utf-8"?>
<!-- Generator: Adobe Illustrator 16.0.0, SVG Export Plug-In . SVG Version: 6.00 Build 0)  -->
<!DOCTYPE svg PUBLIC "-//W3C//DTD SVG 1.1//EN" "http://www.w3.org/Graphics/SVG/1.1/DTD/svg11.dtd">
<svg version="1.1" id="Layer_1" xmlns="http://www.w3.org/2000/svg" xmlns:xlink="http://www.w3.org/1999/xlink" x="0px" y="0px"
	 width="17.5px" height="93.5px" viewBox="0 0 17.5 93.5" enable-background="new 0 0 17.5 93.5" xml:space="preserve">
<g>
	
		<radialGradient id="SVGID_1_" cx="5.5" cy="7.3999" r="16.5254" gradientTransform="matrix(1 6.741159e-003 -8.403494e-003 1.2466 6.231689e-002 -1.8616)" gradientUnits="userSpaceOnUse">
		<stop  offset="0" style="stop-color:#2375A6"/>
		<stop  offset="0.2431" style="stop-color:#1B628C"/>
		<stop  offset="0.4784" style="stop-color:#185A81"/>
		<stop  offset="0.7765" style="stop-color:#155074"/>
		<stop  offset="1" style="stop-color:#0F3D58"/>
	</radialGradient>
	<path fill-rule="evenodd" clip-rule="evenodd" fill="url(#SVGID_1_)" d="M15.5,28c-4.7,0.7-9,0.6-12.7-0.3c0.3-0.2,0.6-0.4,0.7-0.8
		C3.7,26,3.8,25,3.7,24c-0.4-4.2-0.9-8.1-1.6-11.6C2,11.9,2,11.4,1.9,11c-0.3-2.8,0-5,0.9-6.5c0.8-1.2,1.9-2.1,3.1-2.6
		C7,1.4,8.3,1.2,9.7,1.3c1.1,0,2.1,0.3,2.9,0.7C14,2.6,15,3.8,15.8,5.5c0.6,1.5,0.8,3.3,0.7,5.6c-0.1,1.9-0.5,4.1-1.1,6.5
		c-0.8,3.1-1.1,6.1-1,9.1C14.5,27.2,14.9,27.6,15.5,28z"/>
	<linearGradient id="SVGID_2_" gradientUnits="userSpaceOnUse" x1="2.3481" y1="28.3462" x2="15.4734" y2="28.3962">
		<stop  offset="0" style="stop-color:#1F4E58"/>
		<stop  offset="0.2431" style="stop-color:#52B1CF"/>
		<stop  offset="0.5804" style="stop-color:#52B1CF"/>
		<stop  offset="0.8667" style="stop-color:#3B97AE"/>
		<stop  offset="1" style="stop-color:#266473"/>
	</linearGradient>
	<path fill-rule="evenodd" clip-rule="evenodd" fill="url(#SVGID_2_)" d="M15.5,28.6c-4.7,0.6-9,0.5-13.1-0.3v-0.6
		c0.2,0,0.3,0,0.4-0.1c3.7,0.8,7.9,0.9,12.7,0.3V28.6z"/>
	<linearGradient id="SVGID_3_" gradientUnits="userSpaceOnUse" x1="2.3472" y1="29.188" x2="15.4725" y2="29.238">
		<stop  offset="0" style="stop-color:#1F4E58"/>
		<stop  offset="0.2431" style="stop-color:#479FB7"/>
		<stop  offset="0.5804" style="stop-color:#3A96AD"/>
		<stop  offset="0.8667" style="stop-color:#3B97AE"/>
		<stop  offset="1" style="stop-color:#266473"/>
	</linearGradient>
	<path fill-rule="evenodd" clip-rule="evenodd" fill="url(#SVGID_3_)" d="M2.4,28.4c4.1,0.7,8.4,0.8,13.1,0.3v0.7
		c-1,0.2-1.9,0.3-2.9,0.4c-0.1,0-0.3,0-0.5,0h0c-0.1,0-0.3,0.1-0.3,0.1c-0.5,0-0.9,0.1-1.4,0.1L9,30c-0.1,0-0.1,0-0.2,0l-1.1,0
		c-0.1,0-0.1,0-0.2,0c-0.3,0-0.6,0-1-0.1c-0.2-0.1-0.5-0.1-0.8-0.1c-0.1,0-0.3,0-0.3,0c-1-0.1-2.1-0.3-3.1-0.5V28.4z"/>
	<path fill-rule="evenodd" clip-rule="evenodd" fill="#84979B" d="M5.3,29.8L5.3,29.8L4.9,83.6c0.4,2.5,1.1,4.9,1.9,7
		C6.8,90.8,6.9,91,7,91.3c1,0.3,2,0.3,3.1,0c0.1-0.1,0.3-0.7,0.7-1.5c0.4-0.9,0.9-2.9,1.5-6l0.4-53.8v-0.1c0.2,0,0.3,0,0.5,0
		l-0.4,53.7c-0.4,3.1-1.2,5.8-2.3,8.1c-0.1,0.1-0.3,0.1-0.5,0.2C9,92,8,92,7,91.7c-0.1-0.1-0.2-0.1-0.3-0.2c-1-2.3-1.8-5-2.3-8
		l0.4-53.8C5,29.8,5.1,29.8,5.3,29.8z"/>
	<linearGradient id="SVGID_4_" gradientUnits="userSpaceOnUse" x1="4.5498" y1="60.5986" x2="12.9498" y2="60.6526">
		<stop  offset="0" style="stop-color:#B2B2B4"/>
		<stop  offset="0.1255" style="stop-color:#B3B3B5;stop-opacity:0.498"/>
		<stop  offset="0.2275" style="stop-color:#FFFFFF;stop-opacity:0"/>
		<stop  offset="0.3059" style="stop-color:#FFFFFF;stop-opacity:0.7804"/>
		<stop  offset="0.3608" style="stop-color:#E6E6E6;stop-opacity:0.498"/>
		<stop  offset="0.4275" style="stop-color:#C7C7C7;stop-opacity:0.298"/>
		<stop  offset="0.4941" style="stop-color:#D0D0D0;stop-opacity:0.4706"/>
		<stop  offset="0.6784" style="stop-color:#E2E2E2;stop-opacity:0.4235"/>
		<stop  offset="0.8235" style="stop-color:#F3F3F3;stop-opacity:0.4824"/>
		<stop  offset="1" style="stop-color:#CACACA;stop-opacity:0.6627"/>
	</linearGradient>
	<path fill-rule="evenodd" clip-rule="evenodd" fill="url(#SVGID_4_)" d="M6.5,29.9c0.3,0,0.6,0.1,1,0.1c0.1,0,0.1,0,0.2,0l1.1,0
		c0,0,0.1,0,0.2,0l1.3,0c0.6,0,1.2-0.1,1.8-0.1c0.1,0,0.3,0,0.4-0.1c0,0,0.1,0,0.1,0v0.1l-0.4,53.8c-0.6,3.1-1.1,5.1-1.5,6
		c-0.4,0.9-0.6,1.4-0.7,1.5C9,91.5,8,91.5,7,91.3c-0.1-0.2-0.2-0.5-0.3-0.7c-0.8-2.1-1.4-4.4-1.9-7l0.4-53.7v-0.1
		c0.3,0,0.6,0,0.9,0.1C6.3,29.9,6.4,29.9,6.5,29.9z"/>
</g>
</svg>
