<?xml version="1.0" encoding="utf-8"?>
<!-- Generator: Adobe Illustrator 16.0.0, SVG Export Plug-In . SVG Version: 6.00 Build 0)  -->
<!DOCTYPE svg PUBLIC "-//W3C//DTD SVG 1.1//EN" "http://www.w3.org/Graphics/SVG/1.1/DTD/svg11.dtd">
<svg version="1.1" id="Layer_1" xmlns="http://www.w3.org/2000/svg" xmlns:xlink="http://www.w3.org/1999/xlink" x="0px" y="0px"
	 width="110px" height="230px" viewBox="0 0 110 230" enable-background="new 0 0 110 230" xml:space="preserve">
<g>
	<g>
		<path fill-rule="evenodd" clip-rule="evenodd" fill="#BBBBBB" d="M103.7,58.9l0.1,0.9l-20,2.5c-2.9,0.3-5.4,0.3-7.4,0l-1.9,0.3V62
			l2.5-0.4c2,0.2,4.6,0.1,7.8-0.3c0.2,0,0.4,0,0.5-0.1c6.1-0.6,12-1.4,17.6-2.3C103.2,59,103.4,58.9,103.7,58.9z"/>
		<path fill-rule="evenodd" clip-rule="evenodd" fill="#D7D7D7" d="M102.9,59l-0.7-3.1l0.6-0.9l0.9,3.9
			C103.4,58.9,103.2,59,102.9,59z"/>
		<path fill-rule="evenodd" clip-rule="evenodd" fill="#D9D9D9" d="M102.3,55.9c-5.8,0.9-11.4,1.8-16.9,2.6c-1.7,0.3-3.4,0.6-5,0.9
			l-3.1,1l-1.3,0.3l0.4-0.6l3.4-1l23.2-4L102.3,55.9z"/>
		<linearGradient id="SVGID_1_" gradientUnits="userSpaceOnUse" x1="108.4121" y1="57.1069" x2="69.0311" y2="61.1997">
			<stop  offset="0.1098" style="stop-color:#717173"/>
			<stop  offset="0.2706" style="stop-color:#F4F3F8"/>
			<stop  offset="0.4627" style="stop-color:#DEDFE3"/>
			<stop  offset="0.5255" style="stop-color:#B0B4BD"/>
			<stop  offset="0.6627" style="stop-color:#F4F3F8"/>
			<stop  offset="0.8627" style="stop-color:#D9D8DF"/>
			<stop  offset="1" style="stop-color:#C5C5CD"/>
		</linearGradient>
		<path fill-rule="evenodd" clip-rule="evenodd" fill="url(#SVGID_1_)" d="M74.5,62l1.3-1.4l1.3-0.3l3.1-1c1.7-0.3,3.4-0.5,5-0.9
			c5.5-0.9,11.1-1.8,16.9-2.6l0.7,3.1c-5.6,0.9-11.5,1.7-17.6,2.3c-0.2,0.1-0.4,0.1-0.5,0.1c-3.3,0.3-5.9,0.4-7.8,0.3L74.5,62z"/>
		<linearGradient id="SVGID_2_" gradientUnits="userSpaceOnUse" x1="24.2808" y1="67.0327" x2="12.7368" y2="70.1302">
			<stop  offset="0" style="stop-color:#DEDFE3"/>
			<stop  offset="1" style="stop-color:#C5C5CD"/>
		</linearGradient>
		<path fill-rule="evenodd" clip-rule="evenodd" fill="url(#SVGID_2_)" d="M29.4,67c-1-0.1-1.1,0-0.4,0.5l0.9,1c-0.1,0-0.4,0-0.6,0
			c-0.4,0.1-2.4,0.8-6.1,2.1c-3.8,1.3-7.5,1.2-11.1-0.4c-1.2-1.8-0.4-3.1,2.5-3.9c3-0.8,7.1-0.8,12.5,0.2
			C27.8,66.7,28.5,66.9,29.4,67z"/>
		<linearGradient id="SVGID_3_" gradientUnits="userSpaceOnUse" x1="37.2876" y1="63.7749" x2="67.4126" y2="63.7749">
			<stop  offset="0.2706" style="stop-color:#F4F3F8"/>
			<stop  offset="1" style="stop-color:#C5C5CD"/>
		</linearGradient>
		<path fill-rule="evenodd" clip-rule="evenodd" fill="url(#SVGID_3_)" d="M29.4,67l46.9-7l-0.4,0.6L29,67.5
			C28.3,67.1,28.4,66.9,29.4,67z"/>
		<linearGradient id="SVGID_4_" gradientUnits="userSpaceOnUse" x1="52.6548" y1="65.6602" x2="52.3574" y2="63.6098">
			<stop  offset="0.1098" style="stop-color:#717173"/>
			<stop  offset="0.2706" style="stop-color:#F4F3F8"/>
			<stop  offset="0.4627" style="stop-color:#DEDFE3"/>
			<stop  offset="0.5255" style="stop-color:#B0B4BD"/>
			<stop  offset="0.6627" style="stop-color:#F4F3F8"/>
			<stop  offset="0.8627" style="stop-color:#D9D8DF"/>
			<stop  offset="1" style="stop-color:#C5C5CD"/>
		</linearGradient>
		<polygon fill-rule="evenodd" clip-rule="evenodd" fill="url(#SVGID_4_)" points="29,67.5 75.8,60.6 74.5,62 30,68.6 30,68.5 
			30,68.5 29.9,68.5 		"/>
		<path fill-rule="evenodd" clip-rule="evenodd" fill="#FFFFFF" d="M30,68.6c-0.1,0-0.2,0-0.3,0.1c-0.3,0.2-2.7,0.9-7,2.3
			c-4.4,1.3-7.9,1-10.7-0.8c3.6,1.6,7.3,1.7,11.1,0.4c3.7-1.3,5.7-2,6.1-2.1c0.3,0,0.5,0,0.6,0H30L30,68.6L30,68.6z"/>
		<path fill-rule="evenodd" clip-rule="evenodd" fill="#717173" d="M74.5,62.5L30.2,69c-1.1,0.4-2.2,0.8-3.2,1.3
			c-6.1,2.1-10.7,2.5-13.9,1.1c-0.5-0.4-0.8-0.8-1.1-1.1c2.8,1.8,6.3,2,10.7,0.8c4.4-1.3,6.7-2.1,7-2.3c0.1-0.1,0.2-0.1,0.3-0.1
			L74.5,62V62.5z"/>
	</g>
	<g>
		<path fill-rule="evenodd" clip-rule="evenodd" fill="#7A5F44" d="M27.7,66.9c1.4,1.6,0.6,2.9-2.4,3.6c-3,0.8-5.2,1.1-6.7,1.1
			c-4,0-6.4-0.6-7.1-1.9c-0.2-0.4-0.4-0.8-0.4-1.2c0-0.4,0.1-0.6,0.1-0.8c0-0.3,0.1-0.5,0.3-0.7c0-0.1,0-0.2,0-0.3
			c0-0.3,0.2-0.5,0.6-0.5c0.1,0.1,0.1,0.1,0.3,0.2h0c0-0.1,0-0.1,0-0.2c0.1-0.3,0.2-0.4,0.5-0.4c0.1,0,0.2,0.1,0.3,0.2
			c-0.1-0.6,0.1-1,0.4-1.4c0.1,0,0.3,0.1,0.4,0.2c0.1-0.2,0.3-0.4,0.6-0.4c0.1,0,0.2,0,0.3-0.1c0.1-0.2,0.3-0.4,0.6-0.4
			c0.1,0.1,0.2,0.2,0.3,0.3c0.1-0.1,0.1-0.1,0.2-0.1C15.9,64.1,16,64,16,64c-0.1-0.1-0.1-0.2,0-0.4c0.1-0.3,0.2-0.5,0.5-0.5
			c0.1,0.1,0.2,0.1,0.2,0.1c0.1,0,0.2-0.1,0.3-0.1c0.1,0,0.1-0.1,0.3-0.1c0.7-0.1,1.2-0.1,1.6,0.1c1-0.1,1.6,0.2,1.7,1
			c0.1-0.1,0.2-0.1,0.4-0.1c0.3,0.2,0.5,0.4,0.6,0.5v0c0-0.2,0.2-0.4,0.5-0.5c0.2,0.1,0.4,0.2,0.6,0.3c0.5,0.1,0.9,0.3,1.1,0.5
			c0-0.2,0-0.3,0-0.4c0-0.1,0.1-0.2,0.3-0.2c0.4,0.2,0.6,0.3,0.9,0.5c0,0,0.1,0,0.1,0c0.2,0.2,0.4,0.4,0.5,0.6
			C26.4,65.7,27.2,66.2,27.7,66.9z"/>
	</g>
</g>
</svg>
