<?xml version="1.0" encoding="utf-8"?>
<!-- Generator: Adobe Illustrator 16.0.0, SVG Export Plug-In . SVG Version: 6.00 Build 0)  -->
<!DOCTYPE svg PUBLIC "-//W3C//DTD SVG 1.1//EN" "http://www.w3.org/Graphics/SVG/1.1/DTD/svg11.dtd">
<svg version="1.1" id="Layer_1" xmlns="http://www.w3.org/2000/svg" xmlns:xlink="http://www.w3.org/1999/xlink" x="0px" y="0px"
	 width="218px" height="160px" viewBox="0 0 218 160" enable-background="new 0 0 218 160" xml:space="preserve">
<g>
	<g>
		<polygon fill-rule="evenodd" clip-rule="evenodd" fill="#434343" points="185.2,30.3 185.2,32.9 159.7,32.8 159.8,30.2 		"/>
		<polygon fill-rule="evenodd" clip-rule="evenodd" fill="#DCDCD6" points="185.2,30.3 159.8,30.2 159.7,29.5 185.1,29.6 		"/>
	</g>
	<g>
		
			<linearGradient id="SVGID_1_" gradientUnits="userSpaceOnUse" x1="-549.2588" y1="-417.166" x2="-544.0837" y2="-417.166" gradientTransform="matrix(-1 -9.557665e-003 9.557664e-003 -1 -334.1093 -395.5967)">
			<stop  offset="0" style="stop-color:#000000;stop-opacity:0.7059"/>
			<stop  offset="1" style="stop-color:#FFFFFF;stop-opacity:0.451"/>
		</linearGradient>
		<path fill-rule="evenodd" clip-rule="evenodd" fill="url(#SVGID_1_)" d="M211.1,27.1v0.5c-0.1,0-0.3-0.1-0.5-0.1
			c-0.3-0.1-0.6-0.2-0.9-0.3c-1.2-0.4-2.4-0.6-3.7-0.8l0-0.5c1.3,0.2,2.5,0.4,3.5,0.8c0.4,0.1,0.8,0.3,1.1,0.4
			C210.7,27,210.9,27.1,211.1,27.1z"/>
		
			<linearGradient id="SVGID_2_" gradientUnits="userSpaceOnUse" x1="-543.9351" y1="-417.2539" x2="-526.5099" y2="-417.2539" gradientTransform="matrix(-1 -8.730524e-003 8.730524e-003 -1 -334.2734 -395.4591)">
			<stop  offset="0" style="stop-color:#000000;stop-opacity:0.7059"/>
			<stop  offset="1" style="stop-color:#FFFFFF;stop-opacity:0.451"/>
		</linearGradient>
		<path fill-rule="evenodd" clip-rule="evenodd" fill="url(#SVGID_2_)" d="M188.7,27.4l-0.1-0.5c0.1-0.1,0.3-0.1,0.4-0.1
			c2.9-0.8,6.4-1.2,10.6-1.2c2.4,0,4.5,0.1,6.4,0.4l0,0.5c-1.9-0.3-4-0.4-6.3-0.4c-4,0-7.4,0.4-10.2,1.2
			C189.2,27.2,188.9,27.3,188.7,27.4z"/>
		
			<linearGradient id="SVGID_3_" gradientUnits="userSpaceOnUse" x1="-552.0132" y1="-421.7173" x2="-524.0379" y2="-421.7173" gradientTransform="matrix(-1 -4.966315e-003 4.966315e-003 -1 -335.0194 -394.8322)">
			<stop  offset="0" style="stop-color:#000000;stop-opacity:0.7059"/>
			<stop  offset="1" style="stop-color:#FFFFFF;stop-opacity:0.451"/>
		</linearGradient>
		<path fill-rule="evenodd" clip-rule="evenodd" fill="url(#SVGID_3_)" d="M211.1,27.6l0.6,5.6c-0.1-0.1-0.3-0.1-0.5-0.2
			c0,0,0-0.1,0-0.1c-0.2,0-0.5-0.1-0.7-0.2c-0.3-0.1-0.5-0.1-0.8-0.2c-0.9-0.3-2-0.5-3.1-0.8c-2.1-0.3-4.5-0.5-7-0.5
			c-4,0-7.3,0.4-10.1,1.1c-0.1,0-0.2,0-0.3,0.1c-0.3,0.1-0.6,0.1-0.9,0.3c-0.3,0.1-0.5,0.2-0.7,0.3l-0.5-5c0.2-0.1,0.4-0.2,0.6-0.3
			c0.3-0.1,0.6-0.3,1-0.4c0.3-0.1,0.5-0.1,0.8-0.2c2.8-0.8,6.2-1.2,10.2-1.2c2.3,0,4.4,0.2,6.3,0.4c1.3,0.2,2.5,0.4,3.7,0.8
			c0.3,0.1,0.6,0.2,0.9,0.3C210.8,27.6,211,27.6,211.1,27.6z"/>
		
			<linearGradient id="SVGID_4_" gradientUnits="userSpaceOnUse" x1="-529.5044" y1="-421.4248" x2="-527.8544" y2="-421.4248" gradientTransform="matrix(-1 0 2.173913e-002 -1 -331.7178 -394)">
			<stop  offset="0" style="stop-color:#000000;stop-opacity:0.7059"/>
			<stop  offset="1" style="stop-color:#FFFFFF;stop-opacity:0.451"/>
		</linearGradient>
		<path fill-rule="evenodd" clip-rule="evenodd" fill="url(#SVGID_4_)" d="M187,28l-0.1-0.5c0.2-0.1,0.4-0.3,0.6-0.4
			c0.3-0.1,0.6-0.2,1-0.3l0.1,0.5c-0.4,0.1-0.7,0.2-1,0.4C187.4,27.8,187.2,27.9,187,28z"/>
		<path fill-rule="evenodd" clip-rule="evenodd" fill="#DCDCD6" d="M211.1,27.6v-0.5c1.5,0.6,2.4,1.1,2.7,1.6l-0.5,0.2
			C212.8,28.5,212.1,28,211.1,27.6z M184.5,31v0.5h0L184.5,31L184.5,31z M187,28c-1.2,0.5-1.8,1.2-1.8,1.9h-0.8c0,0,0,0,0,0
			c0.1-0.9,0.9-1.6,2.5-2.4L187,28z"/>
		
			<linearGradient id="SVGID_5_" gradientUnits="userSpaceOnUse" x1="-552.0132" y1="-423.5293" x2="-524.0186" y2="-423.5293" gradientTransform="matrix(-1 -4.966315e-003 4.966315e-003 -1 -335.0194 -394.8322)">
			<stop  offset="0" style="stop-color:#5B4D46"/>
			<stop  offset="9.803922e-002" style="stop-color:#685553"/>
			<stop  offset="0.2549" style="stop-color:#888888"/>
			<stop  offset="0.4157" style="stop-color:#333333"/>
			<stop  offset="0.502" style="stop-color:#1E1E1E"/>
			<stop  offset="0.7059" style="stop-color:#7B7B7B"/>
			<stop  offset="0.7569" style="stop-color:#BBBBBB"/>
			<stop  offset="0.8941" style="stop-color:#A7ADA7"/>
			<stop  offset="1" style="stop-color:#515151"/>
		</linearGradient>
		<path fill-rule="evenodd" clip-rule="evenodd" fill="url(#SVGID_5_)" d="M213.3,28.9l0,5.3c-0.3-0.3-0.9-0.6-1.5-0.9l-0.6-5.6
			C212.1,28,212.8,28.5,213.3,28.9z M185.3,29.9c0-0.7,0.6-1.4,1.8-1.9l0.5,5c-1.4,0.6-2.2,1.2-2.3,2c0,0,0-0.1,0-0.1
			C185.3,31.8,185.3,30.1,185.3,29.9L185.3,29.9z"/>
		<path fill-rule="evenodd" clip-rule="evenodd" fill="#434343" d="M213.2,34.1l0-5.3l0.5-0.2V34L213.2,34.1z M184.4,31.5
			L184.4,31.5l0-0.5l0-1.1h0.8l0,0.1c0,0.2,0,1.9,0,5l-0.8,0v-1.5h0V31.5z"/>
	</g>
</g>
<g>
	<g>
		<g>
			<g>
				
					<linearGradient id="SVGID_6_" gradientUnits="userSpaceOnUse" x1="-2369.0771" y1="-589.5879" x2="-1352.6782" y2="-589.5879" gradientTransform="matrix(-5.863839e-002 0.9983 -0.6379 -6.194 -303.5154 -1249.5092)">
					<stop  offset="3.529412e-002" style="stop-color:#FFFFFF"/>
					<stop  offset="0.4275" style="stop-color:#FFFFFF;stop-opacity:0.1373"/>
					<stop  offset="0.8627" style="stop-color:#BCC1C2;stop-opacity:8.627451e-002"/>
				</linearGradient>
				<polygon fill-rule="evenodd" clip-rule="evenodd" fill="url(#SVGID_6_)" points="211,116 209,116 209,9.7 211,9.1 				"/>
				<linearGradient id="SVGID_7_" gradientUnits="userSpaceOnUse" x1="187.1504" y1="62.5996" x2="214.4504" y2="62.5996">
					<stop  offset="0" style="stop-color:#9EA2A5;stop-opacity:9.803922e-002"/>
					<stop  offset="3.921569e-002" style="stop-color:#7E8184;stop-opacity:0.4824"/>
					<stop  offset="9.411765e-002" style="stop-color:#A7AAAF;stop-opacity:8.627451e-002"/>
					<stop  offset="0.2353" style="stop-color:#FFFFFF"/>
					<stop  offset="0.3647" style="stop-color:#C6CED2;stop-opacity:8.627451e-002"/>
					<stop  offset="0.4863" style="stop-color:#E2E7E9;stop-opacity:8.627451e-002"/>
					<stop  offset="0.6" style="stop-color:#AAB3B1;stop-opacity:0.1373"/>
					<stop  offset="0.7216" style="stop-color:#BCC1C2;stop-opacity:8.627451e-002"/>
					<stop  offset="0.9882" style="stop-color:#8E9193;stop-opacity:0.4235"/>
				</linearGradient>
				<path fill-rule="evenodd" clip-rule="evenodd" fill="url(#SVGID_7_)" d="M201.8,10.3l0.2,105.8h-9.8
					c-0.4-25.4-0.7-36.8-0.9-34.1c-0.4,3.5-0.4,14.8,0.1,34.1h-3.7V9.1C192.3,10,197,10.4,201.8,10.3z M209,9.7V116h-4.7V10L209,9.7
					z"/>
				
					<linearGradient id="SVGID_8_" gradientUnits="userSpaceOnUse" x1="852.6201" y1="-458.8027" x2="990.9553" y2="-458.8027" gradientTransform="matrix(0.3369 0.9416 -4.807605e-002 2.8342 -120.878 519.5165)">
					<stop  offset="0" style="stop-color:#9EA2A5;stop-opacity:9.803922e-002"/>
					<stop  offset="3.921569e-002" style="stop-color:#7E8184;stop-opacity:0.149"/>
					<stop  offset="0.102" style="stop-color:#A7AAAF;stop-opacity:8.627451e-002"/>
					<stop  offset="0.2353" style="stop-color:#FFFFFF"/>
					<stop  offset="0.3647" style="stop-color:#C6CED2;stop-opacity:8.627451e-002"/>
					<stop  offset="0.4863" style="stop-color:#E2E7E9;stop-opacity:8.627451e-002"/>
					<stop  offset="0.6" style="stop-color:#D2D7D6;stop-opacity:8.627451e-002"/>
					<stop  offset="0.7216" style="stop-color:#F2F2F2;stop-opacity:8.627451e-002"/>
					<stop  offset="0.9882" style="stop-color:#8E9193;stop-opacity:0.4235"/>
				</linearGradient>
				<polygon fill-rule="evenodd" clip-rule="evenodd" fill="url(#SVGID_8_)" points="204.3,116 201.9,116 201.8,10.3 204.3,10 				
					"/>
				<linearGradient id="SVGID_9_" gradientUnits="userSpaceOnUse" x1="187.1504" y1="135.8496" x2="214.4504" y2="135.8496">
					<stop  offset="0" style="stop-color:#9EA2A5;stop-opacity:9.803922e-002"/>
					<stop  offset="3.921569e-002" style="stop-color:#7E8184;stop-opacity:0.4824"/>
					<stop  offset="9.411765e-002" style="stop-color:#A7AAAF;stop-opacity:8.627451e-002"/>
					<stop  offset="0.2353" style="stop-color:#FFFFFF"/>
					<stop  offset="0.3647" style="stop-color:#C6CED2;stop-opacity:8.627451e-002"/>
					<stop  offset="0.4863" style="stop-color:#E2E7E9;stop-opacity:8.627451e-002"/>
					<stop  offset="0.6" style="stop-color:#AAB3B1;stop-opacity:0.1373"/>
					<stop  offset="0.7216" style="stop-color:#BCC1C2;stop-opacity:8.627451e-002"/>
					<stop  offset="0.9882" style="stop-color:#8E9193;stop-opacity:0.4235"/>
				</linearGradient>
				<path fill-rule="evenodd" clip-rule="evenodd" fill="url(#SVGID_9_)" d="M211.2,146.5c-0.4,1.5-1,3-2,4.3
					c-1.9,2.7-4.6,4.2-7.9,4.7c-2.9,0.3-5.6-0.2-8.3-1.5c-3.1-1.6-4.9-4.1-5.4-7.5l-0.1-30.5h3.7c0,1.3,0,2.6,0.2,3.9
					c-0.3,3.7-0.5,7-0.6,9.9c-0.1,0-0.1,0.1,0,0.2c-0.1,2.8-0.1,5.1-0.1,7c0,4.8-0.1,6.9-0.3,6c0.2,3.1,0.5,4.8,1,5
					c0.6,0.3,0.8-3.1,0.8-10.1c0-0.3,0-0.6,0-0.9c0-6.8,0-13.8-0.2-21h9.8v22.8c1-0.4,1.6-0.8,1.8-1c0.1-0.3,0.2-0.5,0.4-0.7
					c0-0.1,0.1-0.1,0.2-0.3V116h4.7v34C209.7,149.9,210.4,148.7,211.2,146.5z M188,145.3c-0.1,0.5-0.2,0.9-0.2,1.2h0.9
					c0.1-0.2,0.1-0.3,0.1-0.5v-2.3c-0.3,0.1-0.5,0.4-0.7,0.8c-0.1,0.2-0.1,0.4-0.1,0.5C188,145.2,188,145.3,188,145.3z M202.2,143.1
					c0.1-0.5,0-1-0.3-1.5v1.5l-0.2,3.9C202,145.5,202.1,144.2,202.2,143.1z"/>
				
					<linearGradient id="SVGID_10_" gradientUnits="userSpaceOnUse" x1="238.0508" y1="24.5229" x2="286.234" y2="24.5229" gradientTransform="matrix(0.9671 0.2542 -0.1783 0.9871 -40.6522 40.1696)">
					<stop  offset="0" style="stop-color:#9EA2A5;stop-opacity:9.803922e-002"/>
					<stop  offset="3.921569e-002" style="stop-color:#7E8184;stop-opacity:0.149"/>
					<stop  offset="0.102" style="stop-color:#A7AAAF;stop-opacity:8.627451e-002"/>
					<stop  offset="0.2353" style="stop-color:#FFFFFF"/>
					<stop  offset="0.3647" style="stop-color:#C6CED2;stop-opacity:8.627451e-002"/>
					<stop  offset="0.4863" style="stop-color:#E2E7E9;stop-opacity:8.627451e-002"/>
					<stop  offset="0.6" style="stop-color:#D2D7D6;stop-opacity:8.627451e-002"/>
					<stop  offset="0.7216" style="stop-color:#F2F2F2;stop-opacity:8.627451e-002"/>
					<stop  offset="0.9882" style="stop-color:#8E9193;stop-opacity:0.4235"/>
				</linearGradient>
				<path fill-rule="evenodd" clip-rule="evenodd" fill="url(#SVGID_10_)" d="M204.3,116v20.8c-0.1,0.1-0.2,0.2-0.2,0.3
					c-0.2,0.2-0.3,0.4-0.4,0.7c-0.2,0.3-0.8,0.6-1.8,1V116H204.3z M201.9,143.1v-1.5c0.3,0.5,0.4,1,0.3,1.5
					C202.1,143.2,202,143.2,201.9,143.1z"/>
				
					<linearGradient id="SVGID_11_" gradientUnits="userSpaceOnUse" x1="-198.126" y1="-691.8276" x2="-85.7662" y2="-691.8276" gradientTransform="matrix(-0.5304 0.8477 -0.7512 -0.6846 -405.1071 -189.4571)">
					<stop  offset="3.529412e-002" style="stop-color:#FFFFFF"/>
					<stop  offset="0.4275" style="stop-color:#FFFFFF;stop-opacity:0.1373"/>
					<stop  offset="0.8627" style="stop-color:#BCC1C2;stop-opacity:8.627451e-002"/>
				</linearGradient>
				<path fill-rule="evenodd" clip-rule="evenodd" fill="url(#SVGID_11_)" d="M211.2,146.5c-0.8,2.2-1.5,3.3-2.3,3.5v-34h2.1
					L211.2,146.5L211.2,146.5L211.2,146.5z"/>
				
					<linearGradient id="SVGID_12_" gradientUnits="userSpaceOnUse" x1="254.5439" y1="16.4897" x2="313.9051" y2="16.4897" gradientTransform="matrix(0.9691 0.2468 -0.2633 0.9649 -57.0566 34.5418)">
					<stop  offset="0" style="stop-color:#9EA2A5;stop-opacity:9.803922e-002"/>
					<stop  offset="3.921569e-002" style="stop-color:#7E8184;stop-opacity:0.149"/>
					<stop  offset="0.102" style="stop-color:#A7AAAF;stop-opacity:8.627451e-002"/>
					<stop  offset="0.2353" style="stop-color:#FFFFFF;stop-opacity:0.6627"/>
					<stop  offset="0.3647" style="stop-color:#C6CED2;stop-opacity:8.627451e-002"/>
					<stop  offset="0.4863" style="stop-color:#E2E7E9;stop-opacity:8.627451e-002"/>
					<stop  offset="0.6" style="stop-color:#D2D7D6;stop-opacity:8.627451e-002"/>
					<stop  offset="0.7216" style="stop-color:#F2F2F2;stop-opacity:8.627451e-002"/>
					<stop  offset="0.9882" style="stop-color:#8E9193;stop-opacity:0.4235"/>
				</linearGradient>
				<path fill-rule="evenodd" clip-rule="evenodd" fill="url(#SVGID_12_)" d="M192.1,116c0.1,7.2,0.2,14.2,0.2,21c0,0.3,0,0.5,0,0.9
					c0,7-0.3,10.4-0.8,10.1c-0.5-0.2-0.8-1.8-1-5c0.2,0.8,0.3-1.2,0.3-6c0-1.9,0-4.3,0.1-7c-0.1-0.1-0.1-0.2,0-0.2
					c0.1-2.9,0.3-6.2,0.6-9.9c-0.1-1.3-0.2-2.6-0.2-3.9c-0.5-19.3-0.5-30.6-0.1-34.1C191.4,79.3,191.7,90.7,192.1,116z M201.9,143.1
					c0.1,0.1,0.2,0.1,0.3,0c-0.1,1.1-0.3,2.4-0.5,3.9L201.9,143.1z"/>
				<path fill-rule="evenodd" clip-rule="evenodd" fill="#5F6265" fill-opacity="9.803922e-002" d="M188,145.3c0-0.1,0-0.1,0-0.3
					c0-0.2,0-0.3,0.1-0.5c0.2-0.4,0.4-0.7,0.7-0.8v2.3c0,0.2,0,0.3-0.1,0.5h-0.9C187.8,146.2,187.8,145.8,188,145.3z"/>
				<g>
					<linearGradient id="SVGID_13_" gradientUnits="userSpaceOnUse" x1="199.5098" y1="149.8076" x2="199.5832" y2="156.7076">
						<stop  offset="0" style="stop-color:#000000;stop-opacity:0"/>
						<stop  offset="0.9882" style="stop-color:#000000;stop-opacity:0.4235"/>
					</linearGradient>
					<path fill-rule="evenodd" clip-rule="evenodd" fill="url(#SVGID_13_)" d="M211.2,146.5L211.2,146.5L211.2,146.5
						c-0.4,1.6-1,3.1-2,4.4c-1.9,2.7-4.6,4.2-7.9,4.7c-2.9,0.3-5.6-0.2-8.3-1.5c-3.1-1.6-4.9-4.1-5.4-7.5V137h23.5V146.5z"/>
				</g>
			</g>
		</g>
		<g>
			<linearGradient id="SVGID_14_" gradientUnits="userSpaceOnUse" x1="185.0371" y1="8.75" x2="215.4621" y2="8.75">
				<stop  offset="0" style="stop-color:#9EA2A5;stop-opacity:9.803922e-002"/>
				<stop  offset="3.921569e-002" style="stop-color:#7E8184;stop-opacity:0.4824"/>
				<stop  offset="9.411765e-002" style="stop-color:#8F949A;stop-opacity:8.627451e-002"/>
				<stop  offset="0.2353" style="stop-color:#DDDDDD;stop-opacity:0.4"/>
				<stop  offset="0.3647" style="stop-color:#C6CED2;stop-opacity:8.627451e-002"/>
				<stop  offset="0.4863" style="stop-color:#E2E7E9;stop-opacity:8.627451e-002"/>
				<stop  offset="0.6" style="stop-color:#FFFFFF;stop-opacity:0.4431"/>
				<stop  offset="0.7216" style="stop-color:#BCC1C2;stop-opacity:8.627451e-002"/>
				<stop  offset="0.8353" style="stop-color:#E0E2E1;stop-opacity:0.2314"/>
				<stop  offset="0.9882" style="stop-color:#8E9193;stop-opacity:0.4235"/>
			</linearGradient>
			<path fill-rule="evenodd" clip-rule="evenodd" fill="url(#SVGID_14_)" d="M190,8c0.1,0,0.2,0,0.3,0c0.2,0,0.6,0,1.3-0.1
				c0.4,0,0.9-0.1,1.7-0.1c0.6-0.1,2-0.2,4.1-0.2c1.9,0,3.4,0,4.4,0c1,0,1.7,0,2,0c1.7,0,3.1,0.1,4.5,0.3c2.1,0.2,3.3,0.4,3.4,0.8
				v0.1c-0.2,0.4-1.3,0.6-3.3,0.8h-0.1c-2.3,0.3-5.1,0.4-8.5,0.4c-3.3,0-6.2-0.1-8.5-0.4c-2-0.2-3.2-0.4-3.5-0.8V8.6
				C188,8.4,188.7,8.1,190,8z"/>
			<path fill-rule="evenodd" clip-rule="evenodd" fill="#777780" fill-opacity="0.851" d="M203.7,7.5c-1.3-0.1-2.6-0.1-4-0.1
				c-3.3,0-6.2,0.1-8.5,0.4c-0.5,0-0.9,0-1.3,0.1c-1.3,0.2-2,0.4-2.2,0.7v0.1c0.3,0.4,1.4,0.6,3.5,0.8c2.3,0.3,5.1,0.4,8.5,0.4
				c3.3,0,6.1-0.1,8.5-0.4h0.1c2-0.2,3.2-0.4,3.3-0.8V8.6c-0.2-0.4-1.3-0.6-3.4-0.8C206.8,7.6,205.4,7.5,203.7,7.5z M212.3,8.9
				c-0.2,0.3-1.3,0.5-3.5,0.8h-0.1c-2.5,0.3-5.5,0.4-9,0.4s-6.5-0.1-8.9-0.4h-0.1c-0.1,0-0.2,0-0.3,0c-1.9-0.3-3-0.6-3.4-1V8.6
				c0.3-0.3,1.3-0.5,2.9-0.8c0.3,0,0.6-0.1,0.8-0.1c2.4-0.3,5.4-0.4,8.9-0.4c1.6,0,3,0.1,4.3,0.2c1.7,0.1,3.3,0.1,4.7,0.3
				c2.2,0.3,3.4,0.6,3.6,0.9V8.9z M189.9,9.5c0.5,0.2,1.1,0.3,1.6,0.3c0.5,0.1,1.2,0.1,2,0.1c-1.7-0.2-2.6-0.3-2.8-0.3
				C190.8,9.5,190.4,9.5,189.9,9.5z"/>
			<linearGradient id="SVGID_15_" gradientUnits="userSpaceOnUse" x1="185.0371" y1="10.375" x2="215.4621" y2="10.375">
				<stop  offset="0" style="stop-color:#9EA2A5;stop-opacity:9.803922e-002"/>
				<stop  offset="3.921569e-002" style="stop-color:#CFD1D1;stop-opacity:0.4824"/>
				<stop  offset="9.411765e-002" style="stop-color:#A7AAAF;stop-opacity:8.627451e-002"/>
				<stop  offset="0.2353" style="stop-color:#FFFFFF"/>
				<stop  offset="0.3647" style="stop-color:#FFFFFF;stop-opacity:8.627451e-002"/>
				<stop  offset="0.4863" style="stop-color:#E2E7E9;stop-opacity:8.627451e-002"/>
				<stop  offset="0.6" style="stop-color:#FFFFFF;stop-opacity:0.4431"/>
				<stop  offset="0.7216" style="stop-color:#BCC1C2;stop-opacity:8.627451e-002"/>
				<stop  offset="0.8353" style="stop-color:#E0E2E1;stop-opacity:0.2314"/>
				<stop  offset="0.9882" style="stop-color:#8E9193;stop-opacity:0.4235"/>
			</linearGradient>
			<path fill-rule="evenodd" clip-rule="evenodd" fill="url(#SVGID_15_)" d="M187.1,8.8c0.3,0.4,1.4,0.7,3.4,1c0.1,0,0.1,0,0.3,0
				h0.1c2.4,0.3,5.4,0.4,8.9,0.4s6.5-0.1,9-0.4h0.1c2.1-0.3,3.3-0.5,3.5-0.8c0.3,0.4,0.3,1,0.1,1.8l-0.1,0.1
				c-0.2,0.3-1.4,0.6-3.6,0.8c-2.5,0.3-5.5,0.4-9,0.4s-6.5-0.1-8.9-0.4c-2.4-0.2-3.6-0.5-3.8-0.8v-0.1
				C186.8,9.9,186.8,9.2,187.1,8.8z"/>
			<path fill-rule="evenodd" clip-rule="evenodd" fill="#FFFFFF" fill-opacity="0.7059" d="M190,8c0.4-0.1,0.8-0.1,1.3-0.1
				c2.3-0.3,5.1-0.4,8.5-0.4c1.4,0,2.7,0,4,0.1c-0.3,0-0.9,0-2,0c-1,0-2.5,0-4.4,0c-2.1,0-3.5,0.1-4.1,0.2c-0.7,0.1-1.3,0.1-1.7,0.1
				c-0.7,0.1-1.1,0.1-1.3,0.1C190.2,8,190.1,8,190,8z"/>
			<path fill-rule="evenodd" clip-rule="evenodd" fill="#FFFFFF" d="M189.9,9.5c0.5,0.1,0.8,0.1,0.9,0.1c0.1,0,1,0.1,2.8,0.3
				c-0.8,0-1.5-0.1-2-0.1C191,9.7,190.4,9.6,189.9,9.5z"/>
			<g>
				
					<radialGradient id="SVGID_16_" cx="201.9971" cy="8.6289" r="18.7751" gradientTransform="matrix(1 3.328876e-003 -1.997325e-003 0.1158 -3.5291 8.178)" gradientUnits="userSpaceOnUse">
					<stop  offset="0.4549" style="stop-color:#9EA2A5;stop-opacity:0"/>
					<stop  offset="0.9882" style="stop-color:#363838;stop-opacity:0.7098"/>
				</radialGradient>
				<path fill-rule="evenodd" clip-rule="evenodd" fill="url(#SVGID_16_)" d="M205.3,10.5c-0.1-0.1,1.1-0.3,3.4-0.5h0.1l0.3,0.4
					c0.5,0.3,0.5,0.6,0.2,0.9c1.1-0.2,1.8-0.4,2.2-0.6c0.4-0.3,0.5-0.6,0.3-0.9c0.2,0.1,0.4,0,0.8-0.2c0,0.4,0,0.7-0.1,1.1l-0.1,0.1
					c-0.2,0.3-1.4,0.6-3.6,0.8c-2.5,0.3-5.5,0.4-9,0.4s-6.5-0.1-8.9-0.4c-2.4-0.2-3.6-0.5-3.8-0.8v-0.1c-0.2-0.5-0.3-0.9-0.3-1.2
					c0.1,0.3,0.2,0.6,0.3,0.9c0.1,0.3,0.3,0.4,0.5,0.1c0.1-0.2,0.1-0.6,0-1.4c0.3,0.2,0.7,0.3,1.3,0.3c-0.2,0.6-0.2,0.9,0.1,1
					c0.7,0.2,1.7,0.4,3.2,0.5c1,0.1,2.1,0.2,3.2,0.2c0.4-0.1,0.7-0.2,0.7-0.3l-0.4-0.5c0-0.1,0.5-0.1,1.7-0.1h0.1c0.3,0,0.6,0,0.9,0
					c0.1,0,0.2,0,0.3,0.1h0.3c2.3,0.1,3.5,0.2,3.5,0.3c0.1,0.2,0.1,0.3,0.1,0.4c-0.4,0-0.9,0.1-1.4,0.2c0.5,0,0.9,0,1.4,0v0.1
					c0,0.1-0.1,0.2-0.3,0.3c-0.1,0.1-0.2,0.1-0.4,0.1h0.7c0.6-0.1,1.3-0.1,1.9-0.1c0.4,0,0.7-0.1,0.8-0.1l0.2-0.2l0.1-0.3
					c0.2-0.1,0.4-0.1,0.6-0.1c0.7-0.1,1.3-0.1,1.8-0.1v-0.1c0-0.1,0-0.2,0-0.3h-0.1C206.7,10.5,205.9,10.5,205.3,10.5z"/>
				<path fill-rule="evenodd" clip-rule="evenodd" fill="#FFFFFF" fill-opacity="0.451" d="M202.3,11.2c0.4,0,1-0.1,1.7-0.2
					c-0.1,0-0.2,0-0.3-0.1c-0.1,0-0.2,0-0.3,0c-0.3,0.1-0.7,0.1-1.1,0.1c0-0.1,0-0.2-0.1-0.4c0-0.1-1.2-0.2-3.5-0.3h-0.3
					c-0.1-0.1-0.2-0.1-0.3-0.1c3.3,0,5.5,0,6.6,0c0.1,0,1.1-0.1,3-0.3h0.9c-2.3,0.3-3.4,0.4-3.4,0.5c-0.4,0.1-0.6,0.1-0.8,0.1
					c0,0.1,0,0.2,0.2,0.4c0.2,0,0.4,0,0.6,0l-0.1,0.3l-0.2,0.2c-0.2,0.1-0.5,0.1-0.8,0.1c-0.6,0-1.3,0-1.9,0.1h-0.7
					c0.2,0,0.3,0,0.4-0.1C202.3,11.5,202.3,11.4,202.3,11.2L202.3,11.2z"/>
				<path fill-rule="evenodd" clip-rule="evenodd" fill="#FFFFFF" d="M205.3,11c-0.3,0-0.5,0-0.6,0c-0.1-0.2-0.2-0.3-0.2-0.4
					c0.2,0,0.4,0,0.8-0.1c0.6,0,1.3,0,2.3-0.1h0.1c0,0.1,0,0.2,0,0.3v0.1c-0.5,0-1.1,0-1.8,0.1C205.7,10.9,205.5,11,205.3,11z
					 M202.3,11c0.4,0,0.8,0,1.1-0.1c0.1,0,0.1,0,0.3,0c0.1,0.1,0.2,0.1,0.3,0.1c-0.7,0.1-1.2,0.2-1.7,0.2c-0.5,0-0.9,0-1.4,0
					C201.5,11.1,202,11,202.3,11z"/>
				<path fill-rule="evenodd" clip-rule="evenodd" fill="#FFFFFF" fill-opacity="0.7059" d="M211.8,9.7c0.2,0.4,0.1,0.7-0.3,0.9
					c-0.4,0.3-1.1,0.5-2.2,0.6c0.4-0.3,0.3-0.6-0.2-0.9l1.7-0.4C211,9.9,211.4,9.8,211.8,9.7z"/>
			</g>
		</g>
	</g>
</g>
<g>
	<g>
		<path fill-rule="evenodd" clip-rule="evenodd" fill="#DCDCD6" d="M188.3,32.9c-0.2-0.1-0.4-0.2-0.6-0.3c-0.9-0.3-1.5-0.6-2-1
			c-0.1-0.1-0.2-0.1-0.3-0.2l-0.1-0.1c-0.2-0.1-0.3-0.3-0.4-0.4c-0.2-0.2-0.3-0.5-0.3-0.8h1c0,0.7,0.8,1.3,2.3,1.9h0
			c0.1,0,0.2,0,0.3,0c0.1,0,0.1,0.1,0.2,0.1c0.1,0,0.1,0,0.2,0c0.3,0.1,0.5,0.1,0.8,0.2c0.1,0,0.1,0,0.2,0h0
			c-0.2,0.1-0.3,0.3-0.3,0.5v0.1c-0.1,0-0.3-0.1-0.4-0.1c-0.2,0-0.3-0.1-0.5-0.1C188.4,32.9,188.4,32.9,188.3,32.9z M214.2,30.1
			c0,0.9-0.9,1.6-2.6,2.3c-0.1,0.1-0.3,0.1-0.4,0.1c-0.1,0-0.1,0.1-0.2,0.1c-0.3,0.1-0.7,0.2-1.1,0.3c0,0-0.1,0-0.1,0
			c-0.3,0.1-0.5,0.1-0.8,0.2v0c-0.1-0.2-0.2-0.4-0.3-0.5c0.2-0.1,0.4-0.1,0.6-0.2c0.3-0.1,0.6-0.1,0.8-0.2c0.1,0,0.1-0.1,0.2-0.1
			c0.1,0,0.1,0,0.1,0h0c0.4-0.1,0.8-0.3,1.2-0.5c1-0.5,1.6-1.1,1.8-1.9h0.8C214.1,29.9,214.2,30,214.2,30.1L214.2,30.1z"/>
		
			<linearGradient id="SVGID_17_" gradientUnits="userSpaceOnUse" x1="-550.1377" y1="-428.0752" x2="-520.6627" y2="-428.0752" gradientTransform="matrix(-1 0 0 -1 -336 -394)">
			<stop  offset="0" style="stop-color:#444444"/>
			<stop  offset="9.803922e-002" style="stop-color:#ABA398"/>
			<stop  offset="0.2549" style="stop-color:#888888"/>
			<stop  offset="0.4157" style="stop-color:#333333"/>
			<stop  offset="0.502" style="stop-color:#1E1E1E"/>
			<stop  offset="0.5686" style="stop-color:#CCCCCC"/>
			<stop  offset="0.6627" style="stop-color:#EAEAEA"/>
			<stop  offset="0.7373" style="stop-color:#717571"/>
			<stop  offset="0.8863" style="stop-color:#778078"/>
			<stop  offset="1" style="stop-color:#FFFFFF"/>
		</linearGradient>
		<path fill-rule="evenodd" clip-rule="evenodd" fill="url(#SVGID_17_)" d="M209.8,33C209.8,33,209.8,33,209.8,33
			c0.5-0.1,0.9-0.3,1.2-0.3c0.1,0,0.1-0.1,0.2-0.1c0.2,0,0.3-0.1,0.4-0.1c1.7-0.7,2.5-1.4,2.6-2.3v5c0,0.9-1,1.8-3.1,2.5
			c-0.1,0-0.2,0.1-0.3,0.1c-0.3,0.1-0.5,0.2-0.9,0.3h0c0.1-2.2,0.2-3.5,0.3-3.8c0.1-0.3,0-0.5-0.1-0.8
			C209.8,33.2,209.8,33.1,209.8,33z"/>
		<path fill-rule="evenodd" clip-rule="evenodd" fill="#606053" d="M183,31.5c0,0.4,0,0.7-0.1,0.8c0,0.2-0.4,0.7-1,1.7h-9.9
			c0.5-0.6,1-1.5,1.5-2.5H183z"/>
		<path fill-rule="evenodd" clip-rule="evenodd" fill="#6F6F5E" d="M173.4,31.5c-0.5,1.1-1,1.9-1.5,2.5h-6.6
			c1.1-1.6,1.6-2.5,1.6-2.5H173.4z M157.5,31.5h7c-0.2,0.3-0.5,0.8-1,1.7c-0.2,0.3-0.4,0.5-0.5,0.8h-5.5V31.5z"/>
		<path fill-rule="evenodd" clip-rule="evenodd" fill="#AFAFA5" d="M166.9,31.5c0.1,0.1-0.5,0.9-1.6,2.5H163
			c0.1-0.3,0.3-0.5,0.5-0.8c0.5-0.9,0.9-1.4,1-1.7L166.9,31.5z"/>
		<polygon fill-rule="evenodd" clip-rule="evenodd" fill="#CCCCC4" points="164.5,31.5 157.5,31.5 157.5,31 184.7,31 184.7,31 
			184.8,31.5 183,31.5 173.4,31.5 166.9,31.5 		"/>
		
			<linearGradient id="SVGID_18_" gradientUnits="userSpaceOnUse" x1="-550.1377" y1="-428.7251" x2="-520.6627" y2="-428.7251" gradientTransform="matrix(-1 0 0 -1 -336 -394)">
			<stop  offset="0" style="stop-color:#5B4D46"/>
			<stop  offset="9.803922e-002" style="stop-color:#8A726C"/>
			<stop  offset="0.2549" style="stop-color:#888888"/>
			<stop  offset="0.4157" style="stop-color:#333333"/>
			<stop  offset="0.502" style="stop-color:#1E1E1E"/>
			<stop  offset="0.5686" style="stop-color:#CCCCCC"/>
			<stop  offset="0.6627" style="stop-color:#EAEAEA"/>
			<stop  offset="0.7373" style="stop-color:#717571"/>
			<stop  offset="0.8863" style="stop-color:#778078"/>
			<stop  offset="1" style="stop-color:#FFFFFF"/>
		</linearGradient>
		<path fill-rule="evenodd" clip-rule="evenodd" fill="url(#SVGID_18_)" d="M207.9,33.5L207.9,33.5c0,0.2,0,0.4,0,0.6
			c0,0.3,0,0.6,0,0.9c0,0.9-0.1,2-0.3,3.3c0,0.1,0,0.2,0,0.3c-0.1,0-0.1,0-0.2,0c-1.2,0.2-2.5,0.4-3.8,0.5c-1,0.1-2,0.2-3.1,0.2
			c-0.4,0-0.8,0-1.1,0c-0.7,0-1.5,0-2.2,0c-0.7,0-1.3-0.1-2-0.1c-1.1-0.1-2.2-0.2-3.2-0.4c-0.9-0.2-1.8-0.4-2.6-0.6
			c0-0.2,0-0.3,0-0.5c0.1-1,0.1-1.7,0.1-2c0-0.4,0-1,0-1.8c0-0.2,0-0.3,0-0.4c0-0.1,0.1-0.2,0.1-0.3c0.9,0.2,1.8,0.4,2.8,0.5
			c0.8,0.1,1.7,0.2,2.6,0.3c0.7,0.1,1.5,0.1,2.3,0.2c0.7,0,1.4,0,2.1,0c0.4,0,0.8,0,1.1,0c1.3,0,2.5-0.1,3.5-0.2c1-0.1,2-0.2,3-0.4
			C207.3,33.6,207.6,33.5,207.9,33.5z M184.8,34v-2.5l-0.1-0.4v0v-0.8c0,0.3,0.1,0.5,0.3,0.8c0.1,0.1,0.2,0.3,0.4,0.4l0.1,0.1
			c0.1,0.1,0.1,0.1,0.3,0.2c0.5,0.3,1.2,0.6,2,1c0.2,0.1,0.4,0.1,0.6,0.3c0,0.2,0,0.4,0,0.6c0,0.6-0.1,1.7-0.2,3.1
			c-0.1,0.4-0.1,0.8-0.2,1.1l0,0c-2.2-0.7-3.3-1.6-3.3-2.6L184.8,34z"/>
		<path fill-rule="evenodd" clip-rule="evenodd" fill="#676D67" d="M188,37.8c0-0.3,0.1-0.7,0.2-1.1c0.1-1.5,0.2-2.5,0.2-3.1
			c0-0.3,0-0.5,0-0.6c0,0,0.1,0,0.2,0c0.2,0,0.3,0.1,0.5,0.1c0.1,0,0.3,0.1,0.4,0.1c0.1,0,0.2,0.1,0.3,0.1c0,0.1-0.1,0.1-0.1,0.3
			c0,0.1,0,0.2,0,0.4c0,0.8,0,1.4,0,1.8c0,0.3,0,1-0.1,2c0,0.2,0,0.3,0,0.5c-0.1-0.1-0.3-0.1-0.4-0.1
			C188.7,37.9,188.3,37.9,188,37.8z"/>
		<path fill-rule="evenodd" clip-rule="evenodd" fill="#C0BFB6" d="M189.4,33.1L189.4,33.1c0-0.3,0.1-0.5,0.3-0.6
			c2.7,0.7,5.9,1.1,9.7,1.1c1.7,0,3.3-0.1,4.8-0.3c1-0.1,1.9-0.2,2.8-0.4c0.2,0,0.3,0,0.5,0c0.1,0,0.1-0.1,0.1-0.1
			c0.4-0.1,0.7-0.1,1-0.2c0.1,0.1,0.2,0.3,0.3,0.5v0c-0.3,0.1-0.7,0.1-1,0.3c-0.3,0-0.6,0.1-0.9,0.1c-0.9,0.2-1.9,0.3-3,0.4
			c-1.1,0.1-2.3,0.2-3.5,0.2c-0.4,0-0.8,0-1.1,0c-0.7,0-1.4,0-2.1,0c-0.8,0-1.6-0.1-2.3-0.2c-0.9-0.1-1.8-0.2-2.6-0.3
			c-1-0.1-1.9-0.3-2.8-0.5C189.6,33.2,189.5,33.1,189.4,33.1z"/>
		<path fill-rule="evenodd" clip-rule="evenodd" fill="#3A3934" d="M181.8,34c0.6-1,1-1.5,1-1.7c0.1-0.2,0.1-0.4,0.1-0.8h1.8V34
			H181.8z"/>
		<path fill-rule="evenodd" clip-rule="evenodd" fill="#6C6968" d="M207.7,38.5c0-0.1,0-0.2,0-0.3c0.2-1.3,0.3-2.4,0.3-3.3
			c0-0.3,0-0.6,0-0.9c0-0.2,0-0.4,0-0.6v0c0.3-0.1,0.7-0.2,1-0.3c0.3-0.1,0.6-0.1,0.8-0.2c0,0,0.1,0.2,0.2,0.4
			c0.1,0.2,0.2,0.5,0.1,0.8c-0.1,0.3-0.1,1.6-0.3,3.8C209.1,38.2,208.4,38.4,207.7,38.5z"/>
	</g>
	<g>
		<path fill-rule="evenodd" clip-rule="evenodd" fill="#231303" d="M175.2,28.2c0,0.1,0.1,0.3,0.1,0.4c0.2,1,0.3,2.1,0.4,3.5
			c0,0,0,0.1,0,0.1l-0.1,1.6c0,0.6-0.1,1.2-0.2,1.7c-0.1,0.3-0.2,0.6-0.3,0.8c0,0.1-0.1,0.2-0.1,0.3l0,0h-1.3V37H157
			c-0.1-0.1-0.3-0.3-0.5-0.6c-0.1-0.2-0.3-0.6-0.5-1.3c-0.2-0.8-0.3-1.8-0.3-3s0.1-2.2,0.3-3c0.2-0.7,0.3-1.1,0.5-1.2
			c0.1-0.4,0.3-0.7,0.5-0.7h17.5l0.3,0.1c0,0,0.1,0.1,0.1,0.1c0.1,0.1,0.2,0.3,0.3,0.5C175.1,28,175.2,28.1,175.2,28.2z"/>
		<path fill-rule="evenodd" clip-rule="evenodd" d="M175.6,33.9l0.1-1.6c0-0.1,0-0.1,0-0.1c0-1.4-0.2-2.5-0.4-3.5
			c-0.1-0.2-0.1-0.3-0.1-0.4c0.2,0.1,0.4,0.5,0.5,1.2c0.2,0.8,0.3,1.8,0.3,3c0,1.2-0.1,2.2-0.3,3.1c-0.2,0.8-0.4,1.2-0.6,1.3
			c0.1-0.2,0.1-0.5,0.3-0.8C175.5,35.3,175.6,34.7,175.6,33.9z"/>
	</g>
	<g>
		
			<linearGradient id="SVGID_19_" gradientUnits="userSpaceOnUse" x1="-493.5752" y1="-426.3252" x2="-491.9258" y2="-426.3252" gradientTransform="matrix(-1 0 0 -1 -336 -394)">
			<stop  offset="0" style="stop-color:#4A2A09"/>
			<stop  offset="0.9843" style="stop-color:#351F08"/>
		</linearGradient>
		<path fill-rule="evenodd" clip-rule="evenodd" fill="url(#SVGID_19_)" d="M157.3,35.2c-0.1,0.8-0.3,1.3-0.5,1.3s-0.4-0.4-0.6-1.3
			c-0.2-0.8-0.3-1.8-0.3-2.9s0.1-2.1,0.3-2.9c0.1-0.8,0.3-1.2,0.5-1.2s0.4,0.4,0.6,1.2c0.2,0.8,0.3,1.8,0.3,2.9
			S157.5,34.4,157.3,35.2z"/>
	</g>
	<g>
		
			<linearGradient id="SVGID_20_" gradientUnits="userSpaceOnUse" x1="56.6338" y1="-530.8423" x2="65.1088" y2="-530.8423" gradientTransform="matrix(2.949839e-003 1 -1 -8.163321e-004 -364.5055 -29.1613)">
			<stop  offset="0" style="stop-color:#CD8943"/>
			<stop  offset="0.5529" style="stop-color:#834608"/>
			<stop  offset="1" style="stop-color:#4A2D0F"/>
		</linearGradient>
		<path fill-rule="evenodd" clip-rule="evenodd" fill="url(#SVGID_20_)" d="M157.5,27.2h-0.2l-0.1-0.1l17,0.1c0.1,0,0.1,0,0.2,0
			c0.4,0,0.7,0.3,0.9,0.7l0.1,0.3c0.6,2.5,0.6,5.1,0,8.1v0.1c0,0-0.1,0-0.1,0v0.1c0,0,0,0,0,0c0,0.1,0,0.1,0,0.1v0.1
			c0,0,0,0.1-0.1,0.2c0,0.1-0.1,0.1-0.2,0.1h-17.5c0.1,0,0.1-0.1,0.2-0.2l0.1-0.1v-0.1c0,0,0-0.1,0-0.1c0,0,0,0,0.1,0v-0.2h0v-0.1
			c0,0,0-0.1,0-0.1c0-0.1,0-0.1,0-0.1c0-0.1,0-0.2,0-0.3h0v-0.1c0,0,0-0.1,0-0.1c0,0,0.1-0.1,0.1-0.1v-0.1c0,0,0-0.1,0-0.1
			c0-0.1,0-0.2,0-0.3v-0.1c0,0,0,0,0,0v-0.1c0-0.2,0-0.3,0-0.5c0-0.1,0-0.1,0-0.3v0c0-0.1,0-0.3,0-0.4c0-0.2,0-0.4,0-0.6
			c0-0.1,0-0.1,0-0.1s0-0.1,0-0.1c0-0.1,0-0.3,0-0.5c0-0.1,0-0.3,0-0.4v-0.1c0,0,0-0.1,0-0.1c0-0.1,0-0.1,0-0.1c0-0.1,0-0.1,0-0.3
			v-0.3c0-0.2,0-0.3,0-0.5c0,0,0-0.1,0-0.1l0-0.4v-0.1c0-0.1,0-0.2,0-0.3v-0.1c0,0,0-0.1,0-0.1c0,0,0,0,0-0.1c0-0.1,0-0.1,0-0.1
			c0-0.1-0.1-0.2-0.1-0.3c0-0.1,0-0.1,0-0.2c0,0,0-0.1,0-0.1v0c0,0,0-0.1,0-0.1v-0.1c0,0,0-0.1,0-0.1c0-0.1,0-0.1,0-0.1s0,0-0.1,0
			c0,0,0-0.1,0-0.1v-0.1l0,0v0c0,0,0-0.1,0-0.1c0,0,0-0.1,0-0.1c0,0,0,0,0,0v-0.1l-0.1,0C157.6,27.3,157.6,27.3,157.5,27.2
			L157.5,27.2L157.5,27.2L157.5,27.2z"/>
	</g>
	<g>
		
			<linearGradient id="SVGID_21_" gradientUnits="userSpaceOnUse" x1="59.0986" y1="-495.1484" x2="63.5239" y2="-495.1484" gradientTransform="matrix(1.129871e-002 0.9999 -1.0001 -4.762234e-004 -363.1151 -29.1047)">
			<stop  offset="0" style="stop-color:#CD8943"/>
			<stop  offset="0.5529" style="stop-color:#834608"/>
			<stop  offset="1" style="stop-color:#4A2D0F"/>
		</linearGradient>
		<path fill-rule="evenodd" clip-rule="evenodd" fill="url(#SVGID_21_)" d="M156.6,34.4c-0.1,0.4-0.1,0.6-0.2,0.7h-47.6
			c0,0,0,0-0.1,0v-5.4l47.6,0.2c0.1,0.1,0.2,0.3,0.2,0.7c0.1,0.5,0.2,1.2,0.2,1.9S156.7,33.9,156.6,34.4z"/>
	</g>
	<g>
		
			<linearGradient id="SVGID_22_" gradientUnits="userSpaceOnUse" x1="-342.8608" y1="130.0137" x2="-324.7538" y2="130.0137" gradientTransform="matrix(0.2039 -0.979 0.979 0.2039 59.1199 -321.2956)">
			<stop  offset="0" style="stop-color:#FFFFFF"/>
			<stop  offset="3.921569e-002" style="stop-color:#8A8484"/>
			<stop  offset="8.627451e-002" style="stop-color:#7E7E7E"/>
			<stop  offset="0.2314" style="stop-color:#41403F"/>
			<stop  offset="0.4078" style="stop-color:#464646"/>
			<stop  offset="0.6157" style="stop-color:#E5E5E5;stop-opacity:0.9882"/>
			<stop  offset="0.9529" style="stop-color:#000000;stop-opacity:0.9882"/>
		</linearGradient>
		<path fill-rule="evenodd" clip-rule="evenodd" fill="url(#SVGID_22_)" d="M117.8,38.7c0.2-0.3,0.4-0.6,0.5-1c0,0,0-0.1,0-0.1
			c0.1-0.3,0.3-0.6,0.4-0.9c0.5-1.4,0.7-3,0.7-4.8c0-2.2-0.4-4.1-1.2-5.7c-0.2-0.5-0.5-0.9-0.8-1.3c0.4,0.2,0.8,0.5,1.1,1
			c0.2,0.2,0.4,0.5,0.6,0.9c0.8,1.4,1.2,3,1.2,5c0,2-0.3,3.6-1,5.1c-0.2,0.4-0.4,0.7-0.6,0.9c0,0,0,0.1,0,0.1
			C118.4,38.3,118.1,38.5,117.8,38.7z"/>
		
			<linearGradient id="SVGID_23_" gradientUnits="userSpaceOnUse" x1="47.5576" y1="-482.4575" x2="63.8854" y2="-482.4575" gradientTransform="matrix(-1.844447e-002 0.9998 -0.9998 -1.844446e-002 -368.0653 -32.6621)">
			<stop  offset="0" style="stop-color:#FFFFFF"/>
			<stop  offset="3.921569e-002" style="stop-color:#8A8484"/>
			<stop  offset="8.627451e-002" style="stop-color:#7E7E7E"/>
			<stop  offset="0.2314" style="stop-color:#B6A39F"/>
			<stop  offset="0.3137" style="stop-color:#464646"/>
			<stop  offset="0.6157" style="stop-color:#E5E5E5;stop-opacity:0.9882"/>
			<stop  offset="0.9529" style="stop-color:#2E2D2B;stop-opacity:0.9882"/>
			<stop  offset="1" style="stop-color:#BBBBBB;stop-opacity:0.9882"/>
		</linearGradient>
		<path fill-rule="evenodd" clip-rule="evenodd" fill="url(#SVGID_23_)" d="M117.8,38.7c-0.1,0.1-0.2,0.2-0.3,0.3
			c-0.5,0.7-1.1,1-1.8,1h-8l-0.4-16.2l8.2,0c0.7,0,1.4,0.4,2,1.1c0.3,0.3,0.5,0.8,0.8,1.3c0.8,1.6,1.2,3.5,1.2,5.7
			c0,1.8-0.2,3.4-0.7,4.8c-0.1,0.3-0.3,0.6-0.4,0.9c0,0,0,0.1,0,0.1C118.2,38.1,118,38.4,117.8,38.7z"/>
	</g>
	<g>
		
			<linearGradient id="SVGID_24_" gradientUnits="userSpaceOnUse" x1="51.2163" y1="-424.9004" x2="70.4171" y2="-424.9004" gradientTransform="matrix(9.114204e-003 1 -1 -1.568695e-004 -363.4778 -29.0379)">
			<stop  offset="0" style="stop-color:#CD8943"/>
			<stop  offset="0.5529" style="stop-color:#834608"/>
			<stop  offset="1" style="stop-color:#4A2D0F"/>
		</linearGradient>
		<path fill-rule="evenodd" clip-rule="evenodd" fill="url(#SVGID_24_)" d="M13.3,43h0.3c0,0,0.1,0,0.1,0h0c0.2,0,0.4,0,0.6-0.1
			c0.1,0,0.1,0,0.1,0v-0.1c0.1,0,0.1,0,0.1,0h0c0.1,0,0.2-0.1,0.3-0.1c0,0-0.1,0-0.1,0c0.1,0,0.1-0.1,0.2-0.1c0,0,0.1,0,0.1,0
			l0.6-0.5v0c0.6-0.5,1.1-1.2,1.6-2.1c0,0,0-0.1,0-0.1l0.1-0.1c1.1-2.2,1.6-4.8,1.6-7.9c0-3.1-0.6-5.8-1.8-8c-0.5-0.9-1-1.7-1.6-2.2
			l-0.5-0.4v-0.1H15v0l-0.1-0.1c0,0,0,0,0,0c-0.2-0.1-0.4-0.2-0.6-0.3h-0.1v0h-0.1c-0.1,0-0.1,0-0.3,0l0-0.1c-0.1,0-0.1,0-0.2,0h0
			c0,0-0.1,0-0.1,0l92.3,0c0.1,0,0.4,0.1,0.8,0.3c0.6,0.2,1.1,0.6,1.6,1.3c0.2,0.2,0.3,0.4,0.5,0.6c2.8,5.5,3.1,11.2,0.8,17.2h0.1
			V40c-0.1,0.2-0.2,0.4-0.3,0.6c-0.1,0.1-0.1,0.2-0.2,0.3c0,0.1-0.1,0.2-0.1,0.3v0h0c0,0,0,0,0,0.1c0,0,0,0.1,0,0.1
			c0,0-0.1,0-0.1,0.1c0,0-0.1,0.1-0.1,0.1v0c0,0-0.1,0.1-0.1,0.1h0c0,0.1-0.1,0.1-0.1,0.1c-0.1,0.1-0.3,0.3-0.4,0.4v0c0,0,0,0,0,0.1
			H108v0l-0.4,0.4c0,0-0.1,0.1-0.1,0.1l-0.6,0.3l0,0c0,0-0.1,0-0.1,0c-0.1,0-0.2,0.1-0.3,0.1H105c0.1,0,0.2,0,0.2-0.1
			c0,0,0.1,0,0.1,0c0.1,0,0.3-0.1,0.4-0.1l-20.4,0c-0.1,0-0.1,0-0.2,0h-1.7c0.1,0,0.1,0,0.2,0L14,43.2C13.1,43.1,12.8,43.1,13.3,43z
			"/>
		
			<linearGradient id="SVGID_25_" gradientUnits="userSpaceOnUse" x1="39.1182" y1="-490.2158" x2="63.0467" y2="-490.2158" gradientTransform="matrix(-6.686573e-002 0.9978 -1.0005 -2.675001e-002 -376.322 -34.6458)">
			<stop  offset="0" style="stop-color:#CD8943"/>
			<stop  offset="0.5529" style="stop-color:#834608"/>
			<stop  offset="1" style="stop-color:#4A2D0F"/>
		</linearGradient>
		<path fill-rule="evenodd" clip-rule="evenodd" fill="url(#SVGID_25_)" d="M108.7,22.7c-0.1-0.1-0.1-0.2-0.2-0.3
			c0,0-0.1-0.1-0.1-0.1c0.3,0,0.6,0,0.8,0.1c0.9,0.3,1.7,1.1,2.4,2.5c0.9,1.8,1.4,4,1.5,6.6c0.1,2.6-0.3,4.9-1.2,6.9
			c-0.8,1.9-1.9,2.9-3.2,3c0-0.1,0.1-0.1,0.1-0.2c0,0,0,0,0-0.1h0v0c0.1-0.1,0.1-0.1,0.1-0.3c0.1-0.1,0.1-0.2,0.2-0.3
			c0.1-0.2,0.2-0.4,0.3-0.6v-0.1h-0.1C111.8,33.9,111.5,28.2,108.7,22.7z"/>
		
			<radialGradient id="SVGID_26_" cx="-350.2651" cy="-424" r="7.9625" gradientTransform="matrix(-1 0 -1.883831e-002 1.7002 -346.5024 750.8666)" gradientUnits="userSpaceOnUse">
			<stop  offset="0" style="stop-color:#FCE7D2"/>
			<stop  offset="0.2118" style="stop-color:#E5B688;stop-opacity:0.902"/>
			<stop  offset="0.8275" style="stop-color:#895829"/>
		</radialGradient>
		<path fill-rule="evenodd" clip-rule="evenodd" fill="url(#SVGID_26_)" d="M14.4,42.9c0,0-0.1,0-0.1,0.1C14,43,13.8,43,13.6,43h0
			c0,0-0.1,0-0.1,0h-0.3c-1.2,0-2.2-0.7-3.2-2l-0.3-0.5c0,0,0,0,0,0c-0.1-0.2-0.2-0.4-0.4-0.6c0.7,0.8,1.4,1.2,2.2,1.2
			c0.2,0,0.5,0,0.7-0.1c0.9-0.3,1.6-1.2,2.3-2.6c0.3-0.6,0.5-1.2,0.6-1.9c0.3-1,0.4-2.1,0.5-3.3c0-0.2,0-0.4,0-0.6
			c0-0.2,0-0.5,0-0.7c0-0.2,0-0.3,0-0.5c-0.1-2.3-0.6-4.4-1.4-6.1c-0.5-0.9-1-1.6-1.5-2.1c-0.5-0.4-1-0.6-1.5-0.6
			c-0.7,0-1.3,0.3-1.8,0.8c0-0.1,0.1-0.2,0.1-0.3C9.6,23,9.7,23,9.7,23c0.3-0.4,0.6-0.8,0.9-1.2l0,0c0,0,0.1-0.1,0.1-0.1
			c0.1-0.1,0.1-0.1,0.2-0.1l2-0.9c0.1,0,0.1,0,0.2,0c0.3,0,0.6,0,0.9,0.1c0,0,0.1,0,0.1,0l0.5,0.2c0.1,0,0.1,0.1,0.2,0.1
			c0,0,0,0,0,0l0.1,0.1v0h0.1v0.1l0.5,0.4c0.5,0.5,1.1,1.3,1.6,2.2c1.1,2.2,1.7,4.9,1.8,8c0,3.1-0.5,5.8-1.6,7.9l-0.1,0.1
			c0,0.1,0,0.1,0,0.1c-0.5,0.9-1,1.6-1.6,2.1v0L15,42.6c0,0-0.1,0-0.1,0c-0.1,0-0.1,0.1-0.2,0.1c0,0-0.1,0-0.1,0l-0.1,0.1
			C14.4,42.9,14.4,42.9,14.4,42.9z"/>
		
			<radialGradient id="SVGID_27_" cx="-349.25" cy="-426.2002" r="6.0125" gradientTransform="matrix(-1 0 0 1.8503 -336 820.8035)" gradientUnits="userSpaceOnUse">
			<stop  offset="0" style="stop-color:#FCE7D2"/>
			<stop  offset="0.2118" style="stop-color:#E5B688;stop-opacity:0.902"/>
			<stop  offset="0.8275" style="stop-color:#895829"/>
		</radialGradient>
		<path fill-rule="evenodd" clip-rule="evenodd" fill="url(#SVGID_27_)" d="M9.4,39.9C9,39.5,8.7,39,8.5,38.4
			c-0.9-1.8-1.4-3.9-1.4-6.5c0-2.6,0.4-4.8,1.2-6.6c0.4-0.8,0.8-1.4,1.3-1.9c0.5-0.5,1.1-0.8,1.8-0.8c0.5,0,1,0.2,1.5,0.6
			c0.5,0.5,1,1.2,1.5,2.1c0.8,1.7,1.3,3.7,1.4,6.1c0,0.2,0,0.3,0,0.5c0,0.2,0,0.5,0,0.7c0,0.2,0,0.4,0,0.6c-0.1,1.2-0.2,2.3-0.5,3.3
			c-0.2,0.7-0.4,1.3-0.6,1.9c-0.6,1.4-1.4,2.3-2.3,2.6C12,41,11.8,41,11.5,41C10.8,41,10,40.6,9.4,39.9z"/>
		
			<linearGradient id="SVGID_28_" gradientUnits="userSpaceOnUse" x1="-464.4644" y1="-159.4932" x2="-438.4124" y2="-159.4932" gradientTransform="matrix(-0.5055 -0.8628 0.8628 -0.5055 -82.9465 -441.5372)">
			<stop  offset="0" style="stop-color:#4A2A09;stop-opacity:0.7059"/>
			<stop  offset="0.5216" style="stop-color:#834608;stop-opacity:0"/>
			<stop  offset="1" style="stop-color:#351F08;stop-opacity:0.7059"/>
		</linearGradient>
		<path fill-rule="evenodd" clip-rule="evenodd" fill="url(#SVGID_28_)" d="M9.7,40.5c-0.5-0.5-1-1.2-1.5-2.1
			c-0.9-1.8-1.3-4-1.4-6.5c0-2.6,0.4-4.8,1.2-6.6c0.4-1,0.9-1.8,1.5-2.2c-0.1,0.1-0.1,0.2-0.1,0.3c-0.5,0.5-0.9,1.1-1.3,1.9
			c-0.8,1.8-1.2,4-1.2,6.6c0,2.6,0.5,4.7,1.4,6.5C8.7,39,9,39.5,9.4,39.9C9.5,40.1,9.6,40.3,9.7,40.5z"/>
	</g>
	
		<radialGradient id="SVGID_29_" cx="877.2852" cy="-616.6411" r="95.553" gradientTransform="matrix(2.976990e-002 0 0 2.976990e-002 93.051 47.6643)" gradientUnits="userSpaceOnUse">
		<stop  offset="0" style="stop-color:#FFFFFF"/>
		<stop  offset="0.1059" style="stop-color:#FFFFFF"/>
		<stop  offset="0.2431" style="stop-color:#FFFFFF;stop-opacity:0.651"/>
		<stop  offset="0.3922" style="stop-color:#FFFFFF;stop-opacity:0.4"/>
		<stop  offset="0.6157" style="stop-color:#FFFFFF;stop-opacity:0.1333"/>
		<stop  offset="1" style="stop-color:#FFFFFF;stop-opacity:0"/>
	</radialGradient>
	<path fill-rule="evenodd" clip-rule="evenodd" fill="url(#SVGID_29_)" d="M119.2,26.5c0.8,0,1.4,0.3,2,0.8c0.5,0.5,0.8,1.2,0.8,2
		c0,0.8-0.3,1.4-0.8,2c-0.5,0.5-1.2,0.8-2,0.8c-0.8,0-1.4-0.3-2-0.8c-0.5-0.5-0.8-1.2-0.8-2c0-0.8,0.3-1.4,0.8-2
		C117.7,26.8,118.4,26.5,119.2,26.5z"/>
	
		<radialGradient id="SVGID_30_" cx="877.2744" cy="-616.6553" r="95.5656" gradientTransform="matrix(9.040833e-002 0 0 2.127075e-002 88.0386 42.2903)" gradientUnits="userSpaceOnUse">
		<stop  offset="0" style="stop-color:#FFFFFF"/>
		<stop  offset="0.1059" style="stop-color:#FFFFFF"/>
		<stop  offset="0.2431" style="stop-color:#FFFFFF;stop-opacity:0.651"/>
		<stop  offset="0.3922" style="stop-color:#FFFFFF;stop-opacity:0.4"/>
		<stop  offset="0.6157" style="stop-color:#FFFFFF;stop-opacity:0.1294"/>
		<stop  offset="1" style="stop-color:#FFFFFF;stop-opacity:0"/>
	</radialGradient>
	<path fill-rule="evenodd" clip-rule="evenodd" fill="url(#SVGID_30_)" d="M167.3,27.2c2.4,0,4.4,0.2,6,0.6c1.7,0.4,2.5,0.9,2.5,1.4
		s-0.8,1-2.5,1.4c-1.7,0.4-3.7,0.6-6,0.6s-4.4-0.2-6-0.6c-1.7-0.4-2.5-0.9-2.5-1.4s0.8-1,2.5-1.4C163,27.4,165,27.2,167.3,27.2z"/>
	
		<radialGradient id="SVGID_31_" cx="877.2754" cy="-616.6558" r="95.5654" gradientTransform="matrix(0.3991 0 0 2.127075e-002 -288.2467 38.99)" gradientUnits="userSpaceOnUse">
		<stop  offset="0" style="stop-color:#FFFFFF"/>
		<stop  offset="0.1059" style="stop-color:#FFFFFF"/>
		<stop  offset="0.2431" style="stop-color:#FFFFFF;stop-opacity:0.651"/>
		<stop  offset="0.3922" style="stop-color:#FFFFFF;stop-opacity:0.4"/>
		<stop  offset="0.6157" style="stop-color:#FFFFFF;stop-opacity:0.1255"/>
		<stop  offset="1" style="stop-color:#FFFFFF;stop-opacity:0"/>
	</radialGradient>
	<path fill-rule="evenodd" clip-rule="evenodd" fill="url(#SVGID_31_)" d="M88.4,24.5c7.3,0.4,11,0.9,11,1.4s-3.7,1-11,1.4
		c-7.3,0.4-16.1,0.6-26.6,0.6s-19.3-0.2-26.6-0.6c-7.3-0.4-10.9-0.9-10.9-1.4s3.6-1,10.9-1.4c7.3-0.4,16.1-0.6,26.6-0.6
		S81.2,24.1,88.4,24.5z"/>
	
		<radialGradient id="SVGID_32_" cx="877.2607" cy="-616.6538" r="95.5718" gradientTransform="matrix(2.770996e-002 0 0 6.491089e-002 -8.6947 70.9878)" gradientUnits="userSpaceOnUse">
		<stop  offset="0" style="stop-color:#FFFFFF"/>
		<stop  offset="0.1059" style="stop-color:#FFFFFF"/>
		<stop  offset="0.2431" style="stop-color:#FFFFFF;stop-opacity:0.651"/>
		<stop  offset="0.3922" style="stop-color:#FFFFFF;stop-opacity:0.4"/>
		<stop  offset="0.6157" style="stop-color:#FFFFFF;stop-opacity:0.1216"/>
		<stop  offset="1" style="stop-color:#FFFFFF;stop-opacity:0"/>
	</radialGradient>
	<path fill-rule="evenodd" clip-rule="evenodd" fill="url(#SVGID_32_)" d="M15.6,24.9c0.7,0,1.3,0.6,1.8,1.8
		c0.5,1.2,0.8,2.6,0.8,4.3c0,1.7-0.3,3.1-0.8,4.3c-0.5,1.2-1.1,1.8-1.8,1.8s-1.3-0.6-1.8-1.8C13.3,34.1,13,32.7,13,31
		c0-1.7,0.3-3.1,0.8-4.3C14.3,25.5,14.9,24.9,15.6,24.9z"/>
	
		<radialGradient id="SVGID_33_" cx="877.2617" cy="-616.6553" r="95.5721" gradientTransform="matrix(1.426745e-002 -1.750817e-003 7.386635e-003 6.019389e-002 102.1519 67.3141)" gradientUnits="userSpaceOnUse">
		<stop  offset="0" style="stop-color:#FFFFFF"/>
		<stop  offset="0.1059" style="stop-color:#FFFFFF"/>
		<stop  offset="0.2431" style="stop-color:#FFFFFF;stop-opacity:0.651"/>
		<stop  offset="0.3922" style="stop-color:#FFFFFF;stop-opacity:0.4"/>
		<stop  offset="0.6157" style="stop-color:#FFFFFF;stop-opacity:0.1294"/>
		<stop  offset="1" style="stop-color:#FFFFFF;stop-opacity:0"/>
	</radialGradient>
	<path fill-rule="evenodd" clip-rule="evenodd" fill="url(#SVGID_33_)" d="M109.4,23c0.4,0,0.8,0.5,1.2,1.5c0.4,1.1,0.7,2.4,0.9,4
		c0.2,1.6,0.2,2.9,0.1,4.1c-0.1,1.1-0.4,1.7-0.7,1.8c-0.4,0-0.8-0.5-1.2-1.5c-0.4-1.1-0.7-2.4-0.9-4c-0.2-1.6-0.2-2.9-0.1-4.1
		C108.8,23.6,109,23,109.4,23z"/>
</g>
</svg>
