<?xml version="1.0" encoding="utf-8"?>
<!-- Generator: Adobe Illustrator 16.0.0, SVG Export Plug-In . SVG Version: 6.00 Build 0)  -->
<!DOCTYPE svg PUBLIC "-//W3C//DTD SVG 1.1//EN" "http://www.w3.org/Graphics/SVG/1.1/DTD/svg11.dtd">
<svg version="1.1" id="Layer_19" xmlns="http://www.w3.org/2000/svg" xmlns:xlink="http://www.w3.org/1999/xlink" x="0px" y="0px"
	 width="700px" height="700px" viewBox="0 0 700 700" enable-background="new 0 0 700 700" xml:space="preserve">
<g>
	
		<linearGradient id="SVGID_1_" gradientUnits="userSpaceOnUse" x1="450.29" y1="-174.1748" x2="642.9052" y2="-174.1748" gradientTransform="matrix(0.4486 0.8938 -1.0093 0.2183 -4.035234e-004 5.233288e-005)">
		<stop  offset="0" style="stop-color:#888888"/>
		<stop  offset="9.411765e-002" style="stop-color:#AAAAAA"/>
		<stop  offset="0.1882" style="stop-color:#6A6A6A"/>
		<stop  offset="0.3137" style="stop-color:#888888"/>
		<stop  offset="0.4588" style="stop-color:#D9D9D9"/>
		<stop  offset="0.5686" style="stop-color:#C4C4C4"/>
		<stop  offset="0.6824" style="stop-color:#737373"/>
		<stop  offset="0.8314" style="stop-color:#D0D0D0"/>
		<stop  offset="0.9098" style="stop-color:#9D9D9D"/>
	</linearGradient>
	<path fill-rule="evenodd" clip-rule="evenodd" fill="url(#SVGID_1_)" d="M467.1,443.6H365v-5.8h30c0.1,0,0.1,0.1,0.2,0.2
		c1.5,0.8,3.6,1.6,6.3,2.3c2.1,0.5,4.4,0.9,6.7,1.2c1.7,0.2,3.5,0.4,5.3,0.5c0.8,0,1.6,0,2.4,0c5.1,0,9.1-0.6,12-1.7
		c1.3-0.5,2.1-1,2.6-1.5c0.2-0.3,0.3-0.5,0.4-0.8c0,0,0-0.1,0-0.2h36.3V443.6z"/>
	<linearGradient id="SVGID_2_" gradientUnits="userSpaceOnUse" x1="381.7754" y1="438.2998" x2="419.0254" y2="438.2998">
		<stop  offset="0" style="stop-color:#888888"/>
		<stop  offset="9.411765e-002" style="stop-color:#AAAAAA"/>
		<stop  offset="0.1882" style="stop-color:#6A6A6A"/>
		<stop  offset="0.3176" style="stop-color:#BBBBBB"/>
		<stop  offset="0.3451" style="stop-color:#888888"/>
		<stop  offset="0.4588" style="stop-color:#D9D9D9"/>
		<stop  offset="0.5686" style="stop-color:#C4C4C4"/>
		<stop  offset="0.6" style="stop-color:#888888"/>
		<stop  offset="0.6471" style="stop-color:#E1E1E1"/>
		<stop  offset="0.7294" style="stop-color:#737373"/>
		<stop  offset="0.7725" style="stop-color:#D0D0D0"/>
		<stop  offset="0.9098" style="stop-color:#9D9D9D"/>
	</linearGradient>
	<path fill-rule="evenodd" clip-rule="evenodd" fill="url(#SVGID_2_)" d="M430.4,438.8c-0.4-0.3-0.9-0.6-1.5-0.9h1.9
		c0,0.1,0,0.1,0,0.2C430.7,438.2,430.6,438.5,430.4,438.8z"/>
	<linearGradient id="SVGID_3_" gradientUnits="userSpaceOnUse" x1="280.7749" y1="451.2246" x2="687.2249" y2="451.2246">
		<stop  offset="0" style="stop-color:#A48B77"/>
		<stop  offset="0.1255" style="stop-color:#373634"/>
		<stop  offset="0.2078" style="stop-color:#B3ADAA"/>
		<stop  offset="0.3137" style="stop-color:#A48D6B"/>
		<stop  offset="0.3765" style="stop-color:#4A4947"/>
		<stop  offset="0.4549" style="stop-color:#363533"/>
		<stop  offset="0.5333" style="stop-color:#AA8D6D"/>
		<stop  offset="0.6627" style="stop-color:#E9E3E2"/>
		<stop  offset="0.7529" style="stop-color:#D6D6D6"/>
		<stop  offset="0.8627" style="stop-color:#615851"/>
		<stop  offset="1" style="stop-color:#CFCAC0"/>
	</linearGradient>
	<polygon fill-rule="evenodd" clip-rule="evenodd" fill="url(#SVGID_3_)" points="467.1,455.3 365,455.3 365,447.2 467.1,447.2 	"/>
	
		<linearGradient id="SVGID_4_" gradientUnits="userSpaceOnUse" x1="-251.2876" y1="607.8096" x2="33.2384" y2="607.8096" gradientTransform="matrix(0.7794 -0.6266 0.8883 0.5689 4.763603e-004 4.819036e-004)">
		<stop  offset="0" style="stop-color:#888888"/>
		<stop  offset="9.411765e-002" style="stop-color:#AAAAAA"/>
		<stop  offset="0.1882" style="stop-color:#6A6A6A"/>
		<stop  offset="0.3451" style="stop-color:#888888"/>
		<stop  offset="0.5686" style="stop-color:#FFFFFF"/>
		<stop  offset="0.7294" style="stop-color:#737373"/>
		<stop  offset="0.7725" style="stop-color:#D0D0D0"/>
		<stop  offset="0.9098" style="stop-color:#9D9D9D"/>
	</linearGradient>
	<rect x="365" y="443.6" fill-rule="evenodd" clip-rule="evenodd" fill="url(#SVGID_4_)" width="102" height="3.6"/>
	<linearGradient id="SVGID_5_" gradientUnits="userSpaceOnUse" x1="416.0361" y1="450.957" x2="416.1113" y2="606.007">
		<stop  offset="7.843138e-003" style="stop-color:#C6CCD2"/>
		<stop  offset="3.529412e-002" style="stop-color:#E5E9EC"/>
		<stop  offset="5.490196e-002" style="stop-color:#C6CCD2"/>
		<stop  offset="0.9804" style="stop-color:#95A6A6"/>
		<stop  offset="1" style="stop-color:#627373"/>
	</linearGradient>
	<polygon fill-rule="evenodd" clip-rule="evenodd" fill="url(#SVGID_5_)" points="467.1,455.3 467.1,603.3 365,603.3 365,455.3 	"/>
	<line fill-rule="evenodd" clip-rule="evenodd" fill="none" x1="365" y1="455.3" x2="467.1" y2="455.3"/>
</g>
</svg>
