<?xml version="1.0" encoding="utf-8"?>
<!-- Generator: Adobe Illustrator 16.0.0, SVG Export Plug-In . SVG Version: 6.00 Build 0)  -->
<!DOCTYPE svg PUBLIC "-//W3C//DTD SVG 1.1//EN" "http://www.w3.org/Graphics/SVG/1.1/DTD/svg11.dtd">
<svg version="1.1" id="Layer_1" xmlns="http://www.w3.org/2000/svg" xmlns:xlink="http://www.w3.org/1999/xlink" x="0px" y="0px"
	 width="43.7px" height="15.2px" viewBox="0 0 43.7 15.2" enable-background="new 0 0 43.7 15.2" xml:space="preserve">
<g>
	<g>
		<path fill-rule="evenodd" clip-rule="evenodd" fill-opacity="0.7059" d="M1.4,7.6c0.3,1.6,2.3,2.9,6,4.1c4.1,1.3,8.9,1.9,14.6,1.9
			s10.6-0.6,14.6-1.9c3.7-1.2,5.8-2.5,6.1-4.1c0,0.1,0,0.3,0,0.5c0,1.8-2,3.3-6.1,4.5c-4,1.3-8.9,1.9-14.6,1.9s-10.6-0.6-14.6-1.9
			c-4-1.3-6.1-2.8-6.1-4.5C1.3,7.9,1.3,7.7,1.4,7.6z"/>
		<path fill-rule="evenodd" clip-rule="evenodd" fill="#BCBCBC" d="M42.7,7.6c-0.3,1.6-2.3,2.9-6.1,4.1c-4,1.3-8.9,1.9-14.6,1.9
			S11.4,13,7.4,11.7c-3.7-1.2-5.7-2.5-6-4.1c0-0.1-0.1-0.3-0.1-0.5c0-1.8,2-3.3,6.1-4.5c4.1-1.3,8.9-1.9,14.6-1.9s10.6,0.6,14.6,1.9
			c4.1,1.3,6.1,2.8,6.1,4.5C42.7,7.3,42.7,7.5,42.7,7.6z M9.8,3.4c-3.4,1-5,2.1-5,3.5c0,1.4,1.7,2.6,5,3.6c3.4,1,7.5,1.5,12.3,1.5
			s8.8-0.5,12.2-1.5c3.4-1,5.1-2.2,5.1-3.6c0-1.4-1.7-2.5-5.1-3.5c-3.4-1-7.4-1.5-12.2-1.5S13.1,2.4,9.8,3.4z M22,4.1
			c2.5,0,4.6,0.2,6.4,0.7C30.2,5.2,31,5.7,31,6.3c0,0.6-0.9,1.2-2.6,1.6S24.5,8.6,22,8.6c-2.5,0-4.6-0.2-6.4-0.7S13,6.9,13,6.3
			c0-0.6,0.9-1.1,2.6-1.5C17.4,4.3,19.5,4.1,22,4.1z"/>
		<path fill-rule="evenodd" clip-rule="evenodd" fill="#F1F1F1" d="M8.4,6.6c0-1,1.3-1.9,4-2.6s5.9-1.1,9.6-1.1c3.8,0,7,0.4,9.7,1.1
			c2.7,0.7,4,1.6,4,2.6s-1.3,1.9-4,2.6c-2.7,0.7-5.9,1.1-9.7,1.1c-3.7,0-6.9-0.4-9.6-1.1S8.4,7.6,8.4,6.6z M6,6.8
			c0,1.3,1.5,2.4,4.6,3.3c3.2,0.9,7,1.3,11.4,1.3c4.4,0,8.2-0.5,11.3-1.3c3.1-0.9,4.7-2,4.7-3.3c0-1.3-1.6-2.4-4.7-3.3
			C30.2,2.7,26.4,2.2,22,2.2c-4.4,0-8.2,0.5-11.4,1.4C7.5,4.5,6,5.5,6,6.8z M11.5,6.5c0,0.8,1,1.5,3.1,2c2,0.5,4.5,0.8,7.4,0.8
			c2.9,0,5.4-0.3,7.5-0.8c2.1-0.6,3.1-1.2,3.1-2c0-0.7-1-1.4-3.1-1.9c-2.1-0.6-4.5-0.9-7.5-0.9c-2.9,0-5.4,0.3-7.4,0.9
			C12.5,5.1,11.5,5.7,11.5,6.5z M9.8,3.4c3.4-1,7.5-1.5,12.3-1.5s8.8,0.5,12.2,1.5c3.4,1,5.1,2.1,5.1,3.5c0,1.4-1.7,2.6-5.1,3.6
			c-3.4,1-7.4,1.5-12.2,1.5s-8.9-0.5-12.3-1.5c-3.4-1-5-2.2-5-3.6C4.7,5.5,6.4,4.3,9.8,3.4z"/>
		<path fill-rule="evenodd" clip-rule="evenodd" fill="#9F9797" d="M8.4,6.6c0,1,1.3,1.9,4,2.6s5.9,1.1,9.6,1.1c3.8,0,7-0.4,9.7-1.1
			c2.7-0.7,4-1.6,4-2.6s-1.3-1.9-4-2.6C29,3.2,25.8,2.9,22,2.9c-3.7,0-6.9,0.4-9.6,1.1S8.4,5.6,8.4,6.6z M11.5,6.5
			c0-0.7,1-1.4,3.1-1.9c2-0.6,4.5-0.9,7.4-0.9c2.9,0,5.4,0.3,7.5,0.9c2.1,0.6,3.1,1.2,3.1,1.9c0,0.8-1,1.5-3.1,2
			c-2.1,0.5-4.5,0.8-7.5,0.8c-2.9,0-5.4-0.3-7.4-0.8C12.5,7.9,11.5,7.3,11.5,6.5z M6,6.8c0-1.3,1.5-2.4,4.6-3.3
			c3.2-0.9,7-1.4,11.4-1.4c4.4,0,8.2,0.5,11.3,1.4c3.1,0.9,4.7,2,4.7,3.3c0,1.3-1.6,2.4-4.7,3.3c-3.1,0.9-6.9,1.3-11.3,1.3
			c-4.4,0-8.2-0.5-11.4-1.3C7.5,9.2,6,8.1,6,6.8z M22,4.1c-2.5,0-4.6,0.2-6.4,0.7C13.9,5.2,13,5.7,13,6.3c0,0.6,0.9,1.2,2.6,1.6
			s3.9,0.7,6.4,0.7c2.5,0,4.6-0.2,6.4-0.7s2.6-1,2.6-1.6c0-0.6-0.9-1.1-2.6-1.5C26.6,4.3,24.5,4.1,22,4.1z"/>
	</g>
	<g>
		<path fill-rule="evenodd" clip-rule="evenodd" fill-opacity="0.3255" d="M27.4,6c0,0.3-0.5,0.5-1.6,0.7c-1,0.2-2.2,0.3-3.6,0.3
			s-2.7-0.1-3.7-0.3C17.5,6.4,17,6.2,17,6s0.5-0.5,1.5-0.7c1-0.2,2.3-0.3,3.7-0.3s2.6,0.1,3.6,0.3C26.9,5.5,27.4,5.7,27.4,6z"/>
	</g>
	<g>
		<g>
			<g>
				<g>
					<linearGradient id="SVGID_1_" gradientUnits="userSpaceOnUse" x1="21.8496" y1="6.9038" x2="21.8496" y2="4.8288">
						<stop  offset="0" style="stop-color:#333333"/>
						<stop  offset="1" style="stop-color:#000000"/>
					</linearGradient>
					<path fill-rule="evenodd" clip-rule="evenodd" fill="url(#SVGID_1_)" d="M22.2,6.2c0,0-0.1,0-0.1,0c-0.7,0-1.4-0.1-2-0.3V3.1
						c0.5,0,1,0.1,1.6,0.1c0.6,0,1.2,0,1.8-0.1c0,0,0,0,0,0v2.9C23.1,6.1,22.7,6.2,22.2,6.2z"/>
					<g>
						<path fill-rule="evenodd" clip-rule="evenodd" fill="#FFFFFF" fill-opacity="0.298" d="M23.6,3.1V6c-0.5,0.2-0.9,0.3-1.4,0.3
							l0-0.1l-0.1,0.1c-0.7,0-1.4-0.1-2-0.3V3.6c0.2,1,0.9,1.8,2.1,2.5c0.8-0.4,1.2-1,1.2-1.8C23.5,3.5,23.6,3.1,23.6,3.1z"/>
					</g>
				</g>
				<g>
					
						<linearGradient id="SVGID_2_" gradientUnits="userSpaceOnUse" x1="0.957" y1="8.8501" x2="23.0395" y2="8.8501" gradientTransform="matrix(0.9997 -2.603873e-002 1.538367e-002 0.9999 4.0717 -6.6954)">
						<stop  offset="0" style="stop-color:#FFFFFF"/>
						<stop  offset="1" style="stop-color:#000000"/>
					</linearGradient>
					<path fill-rule="evenodd" clip-rule="evenodd" fill="url(#SVGID_2_)" d="M25.3,1c1,0.2,1.5,0.4,1.5,0.6c0,0.4-0.5,0.6-1.5,0.8
						c-0.1,0-0.1,0.1-0.2,0.1h-6.4c-0.1,0-0.2,0-0.3-0.1C17.4,2.3,17,2,17,1.7c0-0.2,0.5-0.5,1.4-0.6c0.2-0.1,0.4-0.1,0.5-0.1h5.9
						C25,0.9,25.1,0.9,25.3,1z"/>
				</g>
				<g>
					
						<linearGradient id="SVGID_3_" gradientUnits="userSpaceOnUse" x1="-43.3018" y1="-626.522" x2="-36.5221" y2="-626.522" gradientTransform="matrix(-0.3503 0.9366 -0.9951 -0.194 -615.3616 -82.535)">
						<stop  offset="0" style="stop-color:#848484"/>
						<stop  offset="1" style="stop-color:#000000"/>
					</linearGradient>
					<path fill-rule="evenodd" clip-rule="evenodd" fill="url(#SVGID_3_)" d="M26.8,2.7C26.8,2.8,26.8,2.8,26.8,2.7l-0.1,0.1
						c-0.2,0.2-0.5,0.3-1,0.4c-0.1,0-0.2,0-0.3,0.1c0,0-0.1,0-0.1,0c-0.3,0-0.5,0.1-0.8,0.1c-0.8,0.1-1.6,0.1-2.6,0.1
						c-0.5,0-1,0-1.3,0c-0.8,0-1.5-0.1-2.1-0.3c-0.5-0.1-0.8-0.1-1-0.2C17.1,2.9,17,2.9,17,2.8v0h0V1.6c0,0.2,0.5,0.4,1.4,0.6
						c0.6,0.1,1.3,0.2,2.1,0.3c0.5,0,0.9,0,1.4,0c1,0,1.8,0,2.6-0.1c0.3,0,0.6-0.1,0.8-0.1c1-0.2,1.5-0.4,1.5-0.6V2.7z"/>
					<g>
						<path fill-rule="evenodd" clip-rule="evenodd" fill="#FFFFFF" fill-opacity="8.627451e-002" d="M20.5,3.8V2.7c0.5,0,1,0,1.5,0
							c0.9,0,1.8,0,2.5-0.1v1.1c-0.8,0.1-1.7,0.1-2.7,0.1C21.4,3.8,20.9,3.8,20.5,3.8z"/>
					</g>
				</g>
				<g>
					<path fill-rule="evenodd" clip-rule="evenodd" fill="#FFFFFF" fill-opacity="0.298" d="M24.6,0.7c0.2,0,0.4,0,0.6,0.1
						c1,0.2,1.5,0.5,1.5,0.8c0,0.1,0,0.1-0.2,0.2c-1-0.8-4.2-0.8-9.6,0c-0.1-0.1-0.2-0.1-0.2-0.2c0-0.3,0.5-0.5,1.4-0.8
						c0.2,0,0.4-0.1,0.6-0.1H24.6z"/>
				</g>
			</g>
		</g>
	</g>
</g>
</svg>
